<svg xmlns="http://www.w3.org/2000/svg" id="Layer_1" data-name="Layer 1" viewBox="0 0 1196.71 433.41"><defs><style>.cls-1,.cls-2{fill:none;stroke:#141414;stroke-miterlimit:10;stroke-width:1.09px}.cls-2{fill:#213649}</style></defs><path d="m463.82,135.19c1.69-1.9,3.84-4.46,6.06-7.45-29.23-3.24-36.67-4.71-38.77-13.03-.89-3.52-.06-7.28,2.44-11.17,4.57-7.1,16.55-15.86,32.84-24.32-12.72-7.26-30.87-11.36-42.89-11.18l-.82.02c-2.09.04-4.15.08-6.04-.04-13.56,8.31-24.4,16.72-32.63,23.95-32.78,28.81-61.38,67.33-51.71,78.76,3.64,4.3,13.38,6.96,26.07,7.12.44,0,.88,0,1.32,0,32.31,0,79.3-14.79,104.13-42.67Z" class="cls-1"/><path d="m177.13,143.71c11.88-1.41,23.87-3.2,35.73-5.32,69.64-12.47,84.54-27.24,87.23-34.93.86-2.48,2.18-7.55,1.29-13.57-2.02-13.63-14.5-25.64-37.09-35.7-18.25-8.13-38.3-12.67-48.63-14.65-.76-.15-2-.39-3.55-.66-14-2.46-27.86-3.19-41-2.8,1.01,7.5,1.93,16.38,2.77,26.74,1.83,22.51,2.98,51.15,3.25,80.9Z" class="cls-1"/><path d="m479.9,109.5c1.75-5.33,2.3-10.76.61-15.73-12,4.9-21.64,9.29-24.57,12.15,3.44,1.51,12.81,2.58,23.96,3.58Z" class="cls-1"/><path d="m1183.92,41.59c-5.27-.04-13.61.1-24.8.44-24.75.74-64.59,2.44-118.5,5.04,1.81-5.16,3.19-9.35,4.12-12.49,1.55-5.26,3.31-11.22-1.77-13.53-5.27-2.4-8.53,3.15-11.69,8.51-2.43,4.13-5.76,10.28-9.89,18.3-16.5,2.13-31.94,4.16-43.15,6.25-15.05,2.8-22.65,5.46-22.48,12.22.12,4.64,4.7,7.61,7.42,8.97,2.41,1.21,8.52,3.66,13.15.37,2.17-1.54,3.03-3.68,3.4-5.05,1.82-.98,9.33-3.42,38.33-3.21l-3.75,36.24c-3.23,1.08-6.01,2.92-7.96,5.35-1.85,2.3-2.71,4.93-2.42,7.4.29,2.55,1.81,4.97,4.26,6.8,2.08,1.56,4.62,2.57,7.38,2.99-.08,3.61-.04,7.08.11,10.4-19.99-3.65-40.08-7.04-60.04-10.11-20.02-3.07-40.33-5.89-60.52-8.41,36.24-10.73,57.75-24.91,60.93-40.33,1.59-7.71-1.48-15.04-8.64-20.63-14.04-10.97-43.58-14.71-72.87-.65l-2.29,1.1-.24,2.53c-.6,6.41-.98,12.92-1.12,19.36-.19,8.69.04,17.48.69,26.19-23.57,4.21-26.79,9.37-26.7,13.92.15,7.89,13.3,11.12,27.35,13.03-.41,13.93,1.71,32.5,5.18,44.3l.04.12c2.22,6.8,5.44,10.46,9.14,10.46.33,0,.67-.03,1.01-.09,3.26-.57,5.27-3.58,5.99-8.94l.08-.64-.1-.63c-1.97-13.08-3.33-28.23-3.75-41.57,21.56,3.09,43.55,6.57,65.45,10.36,17.12,2.96,32.78,5.87,46.59,8.43,5.96,1.11,11.49,2.13,16.65,3.08,3.17,12.7,8.84,22.07,17.02,27.94,7.29,5.23,16.44,7.84,27.36,7.84,9.37,0,20.04-1.92,31.97-5.77,18.69-6.04,34.23-14.92,36.15-16.37l3.25-2.47-1.36-3.75c-1.81-4.98-6.69-3.45-9.91-2.43-6.39,2.01-23.38,7.36-48.03,10.31-18.02,2.15-25.04-.21-30.55-4.72-2.22-1.82-4.05-4.17-5.49-6.99,27.48,4.52,39.23,4.54,42.13-2.96,2.59-6.68-5.35-13.61-6.27-14.38-9.61-8.07-24.07-4.35-31-1.84-2.6-.51-5.22-.99-7.82-1.49l-.07-16.99c2.36-.37,4.94-.75,7.75-1.16,8.24-1.19,18.5-2.68,30.06-5.25,6.93-1.54,19.83-4.41,30.69-7.08,6.07-1.49,10.83-2.76,14.15-3.77,4.85-1.47,10.34-3.13,9.42-8.52-.93-5.43-6.4-5.04-11.69-4.66-4.11.29-10.41.92-19.14,1.78-5.89.58-12.93,1.28-21.23,2.07-11.15,1.06-20.82,1.38-29.36,1.65-3.13.1-6.02.2-8.69.32l.53-31.7c16.67-1,33.58-2.18,50.34-3.5,21.66-1.71,47.02-3.96,66.2-5.87,11.13-1.11,19.92-2.08,26.13-2.88,3.5-.45,6.1-.84,7.95-1.18,2.24-.41,7.48-1.39,7.16-6.48-.35-5.51-5.6-5.55-12.23-5.6Zm-242.66,31.27c.05.36.52,8.72-50.4,26.12-.41-3.79-1.01-9.19-1.72-15.67l-.04-.33c-1.35-12.25-1.52-14.53-.7-15.77,3.53-5.27,16.51-6.03,27.82-4.45,13.38,1.87,24.63,7.06,25.03,10.11Z" class="cls-2"/><path d="m872.84,226.27c-9.15,0-16.6,3.42-21.79,6.88-13.53-81.7-11.56-152.43-10.71-182.74.13-4.6.23-8.23.24-10.72.01-3.29.03-8.25-4.84-8.52l-2.04-.08-1.48,1.33c-1.76,1.58-1.82,2.84-2.18,9.81-.37,7.24-1.02,19.97-3.48,35.7l-.41,2.51s-.01.07-.01.14c-4.38,26.28-13.86,60.22-35.2,90.81-17.82,25.54-26.45,27.75-30,26.8-12.01-3.22-14.49-46.59-14.96-59.8-.63-17.49.98-32.96,2.15-44.26.64-6.14,1.12-10.9,1.08-14.53,3.54-.09,7.05-.18,10.48-.26,9.25-.23,17.99-.44,25.88-.76l2.52-.1,1.34-2.13c3.02-4.81,1.67-8.44.59-10.18-4.71-7.61-18.63-10.06-84.97-3.45-5.09.51-9.71.97-13.68,1.32l2.36-44.86-3.95-.88c-2.32-.52-4.48-.33-6.42.55-6.64,3.02-6.87,11.56-7.23,24.49l-.07,2.65c-.18,6.18-.45,12.51-.8,18.87-.12,0-.23.02-.35.03-91.87,8.12-106.25,18.44-108.19,27.47-1.16,5.38,2.34,10.41,10.4,14.95l2.92,1.64,2.54-2.18c19.28-16.54,60.36-19.92,92.38-21.95-.91,25.46,1.35,51.25,3.54,76.24,1.47,16.72,2.98,34.01,3.46,50.59l.05,1.61,1.01,1.25c.31.38.6.77.89,1.15,1.61,2.14,4.38,5.83,9.39,5.83.97,0,2.02-.14,3.16-.45l3.72-1.02-.21-3.86c-.92-16.95-2.49-34.34-4.02-51.15-2.45-27.03-4.98-54.93-4.89-82.06,12.49-1.47,26.59-2.27,40.71-2.8-.49.83-.98,1.7-1.49,2.61-.46.83-.76,1.71-.92,2.64-2.25,13.61-3.26,27.44-3,41.11.27,14.21,2.93,85.47,29.11,93.05,22.03,6.38,51.07-31.59,73.17-73.27,1.35,33.88,2.99,71.81,4.2,89.41.22,3.25.49,6.63.8,10.05.38,4.2,3.97,7.43,8.14,7.43.18,0,.36,0,.54-.02,22.48-1.5,36.4-2.43,44.71-2.99q12.52-.84,13.72-1.84l1.79-1.51v-1.52c.74-3.44-2.04-6.57-3.04-7.7-9.92-11.22-26.49-11.34-26.65-11.34Z" class="cls-2"/><path d="m249.05,152.06c46.48-12.06,71.18-28.91,73.44-50.07.68-6.38-.84-11.69-2.06-15.97-11.72-41.06-62.72-56.63-81.92-62.49-24.5-7.48-48.65-8.68-70.88-6.43-.22-.83-.44-1.62-.66-2.37-2.38-8.04-5.37-12.09-10-13.54-3.9-1.22-8.92-.66-12.81,1.44-2.93,1.58-4.88,3.85-5.65,6.57-1.39,4.91,1.56,9.36,3.83,12.01-24.72,5.48-45.76,14.38-60.38,21.74-2.62,1.18-4.4,2.2-5.03,2.92l-2.18,2.48,1.78,5.74,2.51,1.06c2.59,1.09,4.32.2,7.2-1.26.64-.32,1.29-.65,1.95-.98,9.43-3.97,33.32-12.09,63.26-15.43,2.14,11.26,2.7,32.85,2.73,81.65,0,8.11.01,16.93.04,26.54l-.3,1.49c-62.3,11.62-142.7,26.6-144.92,26.98-1.07.17-2.09.53-3.05,1.05-2.29,1.25-4.01,3.35-4.87,5.98-1.81,5.59,1.08,11.66,6.43,13.53l3.86,1.34c.63.22,1.28.37,1.94.45,1.24.16,2.51.07,3.62-.24,3.41-.68,49.54-8.96,137.21-24.63,2.3,74.5,4.7,133.45,7.12,175.25,1.48,25.5,3.01,45.25,4.54,58.69,2.32,20.39,4.21,27.2,10.81,27.31.04,0,.08,0,.12,0,1.9,0,3.7-.8,4.97-2.22,2.74-3.06,2.22-7.1,1.08-15.95-.92-7.13-2.18-16.9-1.65-27.04,2.89-55.21-.58-139.95-2.44-185.48-.57-13.86-1.07-26-1.04-29.41l.27-8.23c13.51-1.41,42.54-5.05,71.15-12.47Zm-36.95-113.18c1.55.27,2.8.51,3.55.66,10.33,1.98,30.38,6.53,48.63,14.65,22.59,10.06,35.06,22.07,37.09,35.7.89,6.02-.42,11.09-1.29,13.57-2.68,7.7-17.58,22.47-87.23,34.93-11.86,2.12-23.85,3.91-35.73,5.32-.28-29.75-1.43-58.39-3.25-80.9-.84-10.36-1.76-19.24-2.77-26.74,13.14-.38,27,.35,41,2.8Z" class="cls-2"/><path d="m546.44,115.95c-16.71-2.08-31.27-3.46-43.75-4.53,2.11-9.12,1.37-17.72-2.25-25.53,1.08-.42,2.15-.84,3.22-1.25l.12-.05c36.61-14.21,49.07-16.16,53.27-15.94-.54.94-1.27,2-1.71,2.64-1.79,2.62-4.5,6.58-1.17,9.89,3.55,3.53,8.99.44,13.8-2.75,4.42-2.92,8.94-6.66,12.11-10.01,1.89-2,7.64-8.09,5.33-13.86-3.06-7.65-15.54-6.93-37.5-2.93-21.02,3.83-41.83,10.26-59.92,17.65-10-9.32-23.45-16.19-37.01-18.9,9.29-3.94,19.37-7.59,30.24-10.76,3.42-1,5.49-1.6,6.63-4.41l1.1-2.73-3.16-5.42-3.28-.19s-.09,0-.14,0c-6.85,0-100.49,21.21-148.43,86.56-8.67,11.81-35.04,47.77-17.12,69.79,7.93,9.75,24.12,15.01,45.37,15.01,4.1,0,8.39-.2,12.84-.59,25.62-2.29,53.11-10.98,73.52-23.25,16.5-9.92,32.34-24.25,42.36-38.34,1.33-1.87,2.53-3.73,3.66-5.58,10.67,1.2,23.06,2.64,37.76,4.51,72.17,9.17,89.78,14.7,93.41,17.4-.8,1.14-3.87,4.31-15.18,8.97-11.3,4.65-23.49,7.81-26.96,8.67-32.7,8.08-59.06,4.12-68.99,2.63-4.62-.69-6.18-.93-8.04.45l-1.64,1.24-.29,1.97c-.13.88-.18,3.11,2.13,4.85,4.02,3.02,27.85,11.58,57.68,11.58,17.29,0,36.61-2.88,55.24-11.37,16.76-7.64,36.35-19.51,34.54-32.69-2.52-18.28-42.4-24.55-107.8-32.7Zm-188.06,61.91c-12.69-.16-22.43-2.82-26.07-7.12-9.67-11.43,18.93-49.95,51.71-78.76,8.24-7.24,19.08-15.65,32.63-23.95,1.88.12,3.94.08,6.04.04l.82-.02c12.03-.18,30.18,3.92,42.89,11.18-16.29,8.46-28.27,17.22-32.84,24.32-2.51,3.89-3.33,7.65-2.44,11.17,2.09,8.32,9.54,9.79,38.77,13.03-2.22,2.99-4.37,5.56-6.06,7.45-24.83,27.88-71.82,42.67-104.13,42.67-.44,0-.88,0-1.32,0Zm121.52-68.36c-11.15-.99-20.51-2.07-23.96-3.58,2.93-2.86,12.57-7.25,24.57-12.15,1.69,4.96,1.13,10.4-.61,15.73Z" class="cls-2"/><path d="m888.41,67.21c-.83,1.24-.65,3.52.7,15.77l.04.33c.71,6.48,1.31,11.87,1.72,15.67,50.91-17.4,50.44-25.76,50.4-26.12-.4-3.05-11.66-8.24-25.03-10.11-11.31-1.58-24.29-.81-27.82,4.45Z" class="cls-1"/></svg>