<svg xmlns="http://www.w3.org/2000/svg" id="Layer_1" data-name="Layer 1" viewBox="0 0 1194.31 430.56"><defs><style>.cls-1{fill:none}.cls-1,.cls-2{stroke-width:0}</style></defs><path d="m479.64,108c1.88-5.97,2.05-11.3.51-15.92-8.12,3.29-21.37,8.89-25.27,12.35,4.23,1.65,15.82,2.79,24.76,3.57Z" class="cls-1"/><path d="m356.94,177.52c.44,0,.88,0,1.32,0,32.55,0,79.9-14.92,104.94-43.04,1.07-1.21,3.59-4.04,6.41-7.86-12.59-1.39-20.75-2.37-26.49-3.62-5.76-1.26-11.31-3.18-13.27-8.55-.13-.36-.25-.73-.34-1.12-.08-.33-.15-.68-.2-1.03-.02-.1-.03-.21-.05-.31-.04-.29-.06-.59-.08-.89-.01-.22,0-.44,0-.66,0-.07,0-.13,0-.2.12-5.06,3.48-10.16,8.73-15.06.15-.14.3-.28.45-.41.24-.22.49-.45.74-.67,5.65-5.01,14.18-10.68,26.77-16.99-.64-.37-1.3-.72-1.96-1.08-.17-.09-.34-.19-.51-.28-.24-.13-.5-.25-.75-.37-12.61-6.38-29.21-10-40.59-9.84l-.83.02c-2.19.04-4.44.07-6.32-.06-11.89,7.27-23,15.42-33.04,24.24-3.1,2.72-6.16,5.53-9.16,8.4-25,23.88-45.61,51.72-44.78,66.09.13,2.3.82,4.25,2.12,5.79,3.89,4.6,13.69,7.34,26.88,7.5Z" class="cls-1"/><path d="m210.82,36.59c-13.4-2.35-27.56-3.3-42.16-2.82,1.06,7.7,2.04,16.98,2.9,27.69,1.84,22.78,3,51.79,3.26,81.82,12.22-1.44,24.56-3.26,36.76-5.45,51.94-9.3,83.16-21.91,87.9-35.51.89-2.56,2.25-7.78,1.33-13.99-.12-.79-.28-1.58-.47-2.36-.03-.13-.06-.25-.09-.38-.19-.75-.41-1.49-.66-2.23-.04-.13-.09-.25-.13-.38-.27-.75-.56-1.5-.9-2.24-.03-.07-.06-.13-.1-.2-.74-1.61-1.63-3.19-2.67-4.75,0,0,0-.02-.01-.02-5.95-8.83-16.84-16.8-32.56-23.8-2.27-1.01-4.57-1.97-6.87-2.87-.04-.01-.07-.03-.11-.04-.96-.37-1.92-.74-2.88-1.09-.36-.13-.72-.27-1.08-.4-.65-.24-1.3-.47-1.94-.69-11.53-4.06-22.65-6.82-30.47-8.5-.14-.03-.28-.06-.42-.09-.43-.09-.84-.18-1.25-.26-.5-.1-1-.21-1.47-.3-.13-.03-.26-.05-.39-.08-.68-.14-1.33-.26-1.94-.38l-.16-.03c-.71-.14-1.92-.37-3.42-.63Z" class="cls-1"/><path d="m888.18,81.84c.42,3.85.8,7.31,1.13,10.29.2,1.79.37,3.39.53,4.8,45.31-15.54,49.19-23.73,49.51-25.19.03-.15.03-.23.03-.24-.38-2.87-11.82-7.92-24.63-9.71-.78-.11-1.57-.2-2.36-.29-.24-.03-.48-.05-.73-.07-.56-.06-1.11-.11-1.67-.15-.28-.02-.56-.04-.84-.06-.53-.04-1.07-.06-1.6-.09-.27-.01-.55-.02-.82-.03-.57-.02-1.14-.03-1.71-.03-.24,0-.47,0-.71,0-.17,0-.34,0-.5,0-.47,0-.93.02-1.39.03-.18,0-.35.01-.53.02-.58.03-1.16.06-1.72.1-.12,0-.24.02-.36.03-.46.04-.92.09-1.37.14-.17.02-.34.04-.51.06-.51.07-1.01.14-1.49.22-.04,0-.09.01-.13.02-.52.09-1.02.2-1.51.31-.15.03-.29.07-.43.1-.39.1-.78.2-1.15.31-.1.03-.2.06-.3.09-.45.14-.87.29-1.28.46-.11.04-.21.09-.31.13-.32.14-.63.28-.92.43-.1.05-.19.1-.29.15-.36.2-.69.4-1,.62-.06.04-.1.08-.16.12-.25.19-.49.39-.71.6-.07.07-.14.14-.21.21-.25.26-.48.52-.67.81-.29.43-.43,1.12-.42,2.42,0,2.16.42,5.98,1.19,13.04l.04.33Z" class="cls-1"/><path d="m842.97,118.15c.16,8.14,13.25,11.48,27.33,13.43-.36,13.93,1.76,32.3,5.21,44.02l.04.14c3.38,10.33,8.15,11.13,10.68,10.69,3.48-.61,5.62-3.75,6.37-9.34l.09-.7-.11-.7c-1.94-12.88-3.29-27.78-3.73-40.96,21.39,3.07,43.19,6.53,64.89,10.28,17.13,2.96,32.79,5.87,46.6,8.43,6.08,1.13,11.83,2.19,17.23,3.18,3.15,12.22,8.78,21.29,16.77,27.02,7.22,5.17,16.28,7.76,27.11,7.76,9.32,0,19.95-1.92,31.84-5.76,18.65-6.02,34.11-14.86,36.02-16.3l3-2.28-1.25-3.45c-1.67-4.59-6.12-3.19-9.38-2.17-6.4,2.02-23.42,7.37-48.11,10.32-18.16,2.17-25.28-.23-30.87-4.81-2.21-1.81-4.06-4.13-5.51-6.92,30.49,4.96,40.05,4.06,42.86-3.19,2.65-6.84-4.87-13.62-6.4-14.91-9.74-8.18-24.27-4.5-31.34-1.96-2.73-.53-5.47-1.06-8.22-1.59l-.07-16.78c2.46-.4,5.16-.79,8.12-1.22,8.23-1.19,18.48-2.68,30.04-5.25,7.42-1.65,19.85-4.41,30.67-7.08,6.06-1.49,10.81-2.76,14.12-3.76,4.68-1.42,9.98-3.02,9.12-8.03-.86-5.04-6.14-4.67-11.24-4.3-4.11.29-10.42.92-19.14,1.78-5.88.58-12.92,1.28-21.21,2.07-11.17,1.06-20.85,1.38-29.39,1.66-3.31.11-6.35.21-9.14.34l.54-32.56c16.84-1.01,33.88-2.19,50.73-3.52,21.66-1.71,47.02-3.96,66.19-5.87,11.12-1.11,19.91-2.08,26.12-2.88,3.49-.45,6.08-.84,7.93-1.18,2.3-.43,7.1-1.32,6.8-6.03-.33-5.1-5.14-5.14-11.81-5.2-5.26-.04-13.6.1-24.78.44-24.85.75-64.9,2.45-119.13,5.07,1.92-5.44,3.37-9.82,4.33-13.07,1.57-5.34,3.2-10.86-1.53-13.01-4.91-2.23-8.08,3.14-11.14,8.33-2.45,4.15-5.8,10.36-9.99,18.48-16.58,2.14-32.11,4.18-43.35,6.28-14.8,2.76-22.29,5.34-22.13,11.78.11,4.41,4.55,7.28,7.18,8.6,2.34,1.17,8.26,3.55,12.7.41,2.14-1.52,2.95-3.69,3.28-4.99,1.65-.98,8.89-3.6,39.18-3.34l-3.83,36.99c-3.26,1.03-6.08,2.87-8.02,5.29-1.78,2.21-2.6,4.73-2.33,7.08.28,2.43,1.73,4.74,4.09,6.51,2.12,1.59,4.73,2.6,7.56,2.97-.08,3.59-.06,7.05.07,10.36-20.07-3.66-40.35-7.07-60.37-10.14-19.3-2.96-38.86-5.69-58.31-8.13,44.48-13.46,56.83-29.01,59.11-40.05,1.63-7.89-1.5-15.39-8.81-21.09-14.15-11.05-43.89-14.85-73.36-.7l-2.53,1.22-.26,2.8c-.6,6.42-.98,12.95-1.12,19.39-.19,8.56.03,17.22.66,25.81-19,3.4-26.8,7.65-26.67,14.32Zm44.4-52.11c.19-.28.42-.55.67-.81.07-.07.14-.14.21-.21.22-.21.45-.41.71-.6.05-.04.1-.08.16-.12.31-.22.65-.43,1-.62.09-.05.19-.1.29-.15.29-.15.6-.3.92-.43.1-.04.2-.09.31-.13.41-.16.83-.32,1.28-.46.1-.03.2-.06.3-.09.37-.11.75-.22,1.15-.31.14-.04.28-.07.43-.1.49-.11.99-.22,1.51-.31.04,0,.09-.01.13-.02.49-.08.99-.16,1.49-.22.17-.02.34-.04.51-.06.45-.05.91-.1,1.37-.14.12-.01.24-.02.36-.03.57-.04,1.14-.08,1.72-.1.17,0,.35-.01.53-.02.46-.02.92-.03,1.39-.03.17,0,.34,0,.5,0,.23,0,.47,0,.71,0,.57,0,1.14.01,1.71.03.27,0,.55.02.82.03.53.02,1.07.05,1.6.09.28.02.56.04.84.06.56.04,1.11.09,1.67.15.24.02.49.05.73.07.79.09,1.58.18,2.36.29,12.82,1.79,24.26,6.84,24.63,9.71,0,0,0,.09-.03.24-.32,1.46-4.2,9.65-49.51,25.19-.15-1.41-.33-3.02-.53-4.8-.33-2.98-.71-6.44-1.13-10.29l-.04-.33c-.78-7.07-1.19-10.89-1.19-13.04,0-1.29.13-1.99.42-2.42Z" class="cls-2"/><path d="m565.1,90.9c-1.18,5.47,2.35,10.56,10.49,15.14l3.03,1.71,2.64-2.26c19.19-16.47,60.12-19.86,92.08-21.9-.89,25.41,1.36,51.13,3.55,76.06,1.47,16.72,2.98,34.01,3.46,50.57l.05,1.67,1.05,1.3c.31.38.6.77.88,1.15,1.63,2.17,4.44,5.91,9.52,5.91.98,0,2.05-.14,3.21-.46l3.86-1.06-.22-4c-.92-16.95-2.49-34.34-4.02-51.16-2.44-26.97-4.96-54.82-4.89-81.88,12.74-1.49,26.87-2.28,40.21-2.78-.43.73-.87,1.5-1.33,2.34-.46.84-.78,1.75-.93,2.69-2.25,13.62-3.26,27.46-3,41.15.04,2.29.52,23,4.07,44.24,4.92,29.47,13.15,45.49,25.17,48.97,1.65.48,3.35.71,5.07.71,21.27,0,47.56-35.1,68-73.5,1.34,33.72,2.97,71.28,4.17,88.77.22,3.25.49,6.63.8,10.06.39,4.29,4.06,7.6,8.31,7.6.18,0,.37,0,.55-.02,22.48-1.5,36.4-2.43,44.71-2.99q12.58-.85,13.83-1.88l1.85-1.56v-1.58c.75-3.51-2.07-6.69-3.08-7.84-9.97-11.28-26.62-11.4-26.79-11.4-9.06,0-16.45,3.34-21.65,6.76-11.69-70.79-11.76-133.3-11.02-168.38l4.27-17.07-4.02,7.04c.04-1.4.08-2.76.11-4.03.13-4.6.23-8.24.24-10.72,0-3.15.03-8.42-5.01-8.69l-2.12-.09-1.53,1.38c-1.81,1.63-1.88,2.9-2.24,9.94-.38,7.4-1.08,21.15-3.84,37.89v.02s0,0,0,0c0,.05-.02.1-.02.16v.03h0c-5.85,35.26-17.69,65.86-35.2,90.96-17.76,25.45-26.29,27.67-29.81,26.73-2.23-.6-7.83-4.24-11.62-25.11-2.46-13.58-2.99-28.26-3.21-34.53-.63-17.47.98-32.94,2.15-44.23.63-6.03,1.12-10.76,1.09-14.38,3.48-.09,6.93-.18,10.32-.26,9.25-.23,17.98-.44,25.87-.76l2.61-.11,1.39-2.21c3.07-4.89,1.69-8.6.59-10.37-4.75-7.67-18.71-10.16-85.14-3.53-5,.5-9.55.95-13.47,1.3l2.36-44.81-4.1-.91c-2.36-.53-4.56-.34-6.54.56-6.74,3.07-6.98,11.65-7.33,24.65l-.07,2.65c-.18,6.13-.44,12.4-.79,18.71-.07,0-.13.01-.2.02-91.99,8.13-106.39,18.52-108.35,27.61Z" class="cls-2"/><path d="m316.23,181.1c7.72,9.49,23.59,14.62,44.49,14.62,4.08,0,8.35-.2,12.79-.59,25.47-2.28,52.78-10.91,73.06-23.1,14.67-8.82,33.89-24.54,45.3-42.95,9.43,1.05,22.86,2.6,39.01,4.65,71.53,9.09,89.4,14.59,93.22,17.3-2.48,3.65-17.79,11.41-41.97,17.39-32.66,8.07-59,4.12-68.92,2.63-4.68-.7-6.26-.94-8.17.48l-1.69,1.29-.3,2.04c-.13.91-.19,3.22,2.2,5.02,6.36,4.78,62.25,23.41,113.11.22,24.45-11.15,36.11-22.21,34.64-32.88-2.53-18.41-42.47-24.69-107.96-32.85-17.23-2.15-32.03-3.53-44.82-4.62,2.06-8.89,1.35-17.18-2.11-24.72,1.4-.54,2.83-1.1,4.31-1.67,35.82-13.91,48.46-15.98,52.91-15.94-.52.86-1.15,1.79-1.55,2.37-1.71,2.5-4.58,6.7-1.15,10.12,3.65,3.63,9.15.49,14.03-2.73,5.04-3.33,21.18-14.9,17.51-24.09-3.1-7.76-15.65-7.06-37.7-3.04-19.34,3.52-40.89,9.96-61.01,18.21-10.83-9.9-25.64-16.72-39.81-18.79,16.08-7.1,28.67-10.78,33.86-12.29,3.42-1,4.99-1.46,5.93-3.78l.9-2.24-2.61-4.45-2.69-.15s-.09,0-.14,0c-6.8,0-99.8,21.11-147.5,86.12-8.55,11.65-34.55,47.09-17.16,68.47Zm56.49-82.97c3-2.87,6.06-5.67,9.16-8.4,10.04-8.83,21.15-16.97,33.04-24.24,1.88.13,4.13.1,6.32.06l.83-.02c11.39-.16,27.98,3.46,40.59,9.84.25.12.5.24.75.37.18.09.34.19.51.28.66.35,1.32.71,1.96,1.08-12.59,6.31-21.12,11.97-26.77,16.99-.25.22-.49.45-.74.67-.15.14-.31.28-.45.41-5.25,4.9-8.61,10-8.73,15.06,0,.07,0,.13,0,.2,0,.22,0,.44,0,.66.01.3.04.6.08.89.01.1.03.21.05.31.05.35.12.7.2,1.03.1.39.21.76.34,1.12,1.96,5.37,7.51,7.29,13.27,8.55,5.74,1.25,13.9,2.23,26.49,3.62-2.82,3.83-5.34,6.66-6.41,7.86-25.04,28.12-72.4,43.04-104.94,43.04-.44,0-.89,0-1.32,0-13.19-.17-22.99-2.9-26.88-7.5-1.3-1.54-1.98-3.49-2.12-5.79-.83-14.37,19.78-42.21,44.78-66.09Zm106.92,9.87c-8.94-.77-20.54-1.92-24.76-3.57,3.9-3.46,17.15-9.06,25.27-12.35,1.54,4.61,1.37,9.94-.51,15.92Z" class="cls-2"/><path d="m6.38,192.43l3.83,1.33c.58.2,1.19.35,1.78.42,1.13.14,2.29.06,3.3-.22,3.14-.63,49.63-8.97,138.26-24.82,2.31,74.97,4.72,134.26,7.15,176.25,1.48,25.49,3,45.22,4.53,58.64,2.22,19.49,4.06,26.43,9.95,26.53.03,0,.07,0,.1,0,1.65,0,3.21-.7,4.31-1.92,2.47-2.76,1.97-6.68.86-15.25-.93-7.16-2.19-16.98-1.66-27.2,2.89-55.16-.58-139.87-2.44-185.38-.63-15.26-1.17-28.45-1.01-30.28l.26-8.2c13.13-1.35,42.68-4.98,71.79-12.53,46.08-11.96,70.57-28.55,72.79-49.31.66-6.21-.83-11.43-2.03-15.63-11.59-40.6-62.26-56.07-81.33-61.89-22.24-6.79-46.2-8.9-71.28-6.28-2.48-9.95-5.49-14.56-10.26-16.07-3.68-1.16-8.44-.62-12.12,1.37-2.71,1.47-4.52,3.55-5.22,6.03-1.49,5.27,2.54,10.08,4.67,12.32-15.91,3.4-37.57,9.8-61.26,21.77-3.75,1.6-7.57,3.28-6.22,7.69l.71,2.24,2.12.89c.68.28,1.28.41,1.87.41,1.34,0,2.63-.66,4.59-1.66l1.09-.55c5.2-2.2,30.4-12.26,65.06-16.05,3.01,13.09,3.03,36.52,3.06,82.63,0,8.13.01,16.98.04,26.62l-.43,2.17c-62.45,11.64-143.41,26.74-145.51,27.09-.95.15-1.92.48-2.79.96-2.09,1.14-3.67,3.06-4.45,5.48-1.66,5.14.98,10.72,5.88,12.42ZM216.34,37.63c.13.03.26.05.39.08.47.1.97.2,1.47.3.41.08.82.17,1.25.26.14.03.28.06.42.09,7.81,1.68,18.94,4.44,30.47,8.5.65.23,1.29.46,1.94.69.36.13.72.26,1.08.4.96.36,1.92.72,2.88,1.09.04.01.07.03.11.04,2.3.9,4.6,1.86,6.87,2.87,15.72,7,26.62,14.97,32.56,23.8,0,0,0,.02.01.02,1.05,1.56,1.94,3.14,2.67,4.75.03.07.06.13.1.2.33.74.63,1.49.9,2.24.04.13.09.25.13.38.25.74.48,1.48.66,2.23.03.12.06.25.09.38.19.78.35,1.57.47,2.36.92,6.21-.44,11.43-1.33,13.99-4.74,13.6-35.96,26.21-87.9,35.51-12.2,2.18-24.54,4.01-36.76,5.45-.26-30.03-1.42-59.04-3.26-81.82-.87-10.71-1.84-19.99-2.9-27.69,14.6-.48,28.76.47,42.16,2.82,1.5.26,2.71.5,3.42.63l.16.03c.61.12,1.26.25,1.94.38Z" class="cls-2"/></svg>