<svg viewBox="0 0 25.76 25.88" xmlns="https://www.w3.org/2000/svg"><path d="m12.22 21.15c.15-.09.93.88 1.12.73.05-.04.03-.12.07-.66.02-.22.02-.24.03-.25.27-.34 2.9 1.24 2.84 1.36-.05.09-1.98-.58-1.92-.95.09-.59 5.19.57 10.09.6.34 0 1.19 0 1.3.34.18.55-1.74 1.65-2.2 1.91-1.5.85-4.35 1.98-9.35 1.55-1.18-2.34-2.2-4.51-1.99-4.63z" fill="#201d1c"/><path d="m8.69.06c-.07.22.1 1.22.2 1.31l.1-.89c.06.06.13.07.2.06.04-.02.24.28.25.31.36.66-.01.55-.7 1.37.24-.57-.06.02-.23-.03-.03 0 .04-.57-.13-.49 0-.06.05-.07.05-.12-.11-1.33-.23-.73-.33-.73-.02 0-.27-.37-.28-.4-.14-.71.27.02.33-.03.07-.06.07-.67.23.09.41.11-.05-.76.3-.46z" fill="#f2f0f2"/><path d="m2.81 2.14-.25.18s-.03 0-.05 0c-.07-.02-.31-.05-.33-.06-.04-.02.15-.18-.55-.79.39.81.36.37-.45.43-.09 0-.61.31-.63 0 .08-.05.17-.12.25-.18.19-.15.47-.32.45-.43.8-.1-.58-.11.33-.24.79.74-.17-.3.45.12.01-.26-.3-.35-.48-.31.01 0-.07.01.25-.18.03-.02 0 .05.1 0 .03-.02.05.03.15-.06.23.14.45.92.75 1.53z" fill="#faf9fa"/><path d="m3.36 2.87c.13.31 0 .35 0 .37-.39 0-.12.49-.5 1.34-.01.03-.08-.11-.1-.03 0 .03.04.53.05.64-.07-.08-.1.23-.1.24-.24-.18-.11.11-.15.24-.06.19-.21 0-.05.37-.01-.01-.08.07-.2-.31 0-.05.12-.11.05-.89l-.2.27c.02-.22-.06-.28-.05-.34.22-.16.31-.18.4-.46.37-.03.25-.44.25-.73 0-.04 0-.08 0-.12.15-.33.4-.45.6-.61z" fill="#dedbe0"/><path d="m4.42 2.38c-.1.09-.28.24-.35.37-.95.59-.65.48.15.15-.13.12-.41.31-.43.34-.53.62.77-.63.83-.67v.06c-.28.53-.85.78-1 1.4 0-.01-.25-.06-.25-.21l-.05 1.19s0-.04 0-.06c-.35-1.13.08-1.48.1-1.56s-.06-.1-.05-.15c0-.02.13-.05 0-.37.05-.04.2-.47 1.06-.49z" fill="#f2f0f2"/><path d="m1.86 2.51c-.35.3-1.87 2.08-.8 1.1l.1.06c-.06.07-.04.2-.05.21-.03.05-.37-.03-.15.58-.05.08-.05.19-.13.24-.24-.36-.48-.22-.53-.73l.1-.18s.1-.08.13.18l.08-.09c-.03-.17.58-1.32.63-1.37 0-.01.16.22.08-.12.98-.13-.29.39-.08.49l.63-.37z" fill="#ebe9ec"/><path d="m4.62 2.26c.03.21-.16.09-.2.12-.85.02-1.01.45-1.06.49-.21.16-.46.28-.6.61 0-.02-.2.2 0-.21.07-.14.46-.51.45-.55-.45.11-.65.68-.85 1.13l-.05-.06c.6-1.56-.57.54-.15-.4.41-.91 1.74-1.05 2.46-1.13z" fill="#9b92a4"/><path d="m3.41.8s-.09.04.08.31c.02-.5.16-.05.58.49.02.1.06.18-.05.24-.44-.41-.52-.16-.15.12l-.05.12c-.09-.05-.44-.39-.5-.49.02-.11-.06-.17-.1-.24-.47-1.32.51.56.05-.58.02-.07.06.06.15.03z" fill="#faf9fa"/><path d="m11.86.98c-.21.03.02.02 0 .18-.16.13-.19.05-.35.24l-.35.31c-.08.06-.17.12-.25.18-.17 0 .12-.75.18-.79.16.35.26-.22.28-.24 0-.01-.03-.11.13-.24.15.35.6-.57.38.37z" fill="#faf9fa"/><path d="m1.25 1.29c-.32.04-.7.09-.95-.15l1.13-.15s.07-.1.13-.12c.17-.05.49.05.48.31-.62-.42.33.62-.45-.12-.91.13.47.15-.33.24z" fill="#a79faf"/><path d="m2.06 2.32c-.08.21-.19.17-.2.18l-.63.37c-.22-.1 1.05-.62.08-.49-.76.11-1.35 1.02-1.26.58.02-.08.33-.35.4-.4.43-.29 1.13-.37 1.61-.24z" fill="#9b92a4"/><path d="m3.01 2.08c.02.06-.03.19.03.24.08-.37.33-.02.1.06-.35.12-.25-.09-.33-.24-.3-.61-.52-1.39-.75-1.53 0 0 .03-.1.05-.12.23.2.8 1.29.9 1.59z" fill="#c5c0ca"/><path d="m2.01 2.63c-.57.47-.42.74-.73.67-.11.1-.21.29-.23.31-1.07.98.46-.8.8-1.1.01 0 .12.03.2-.18.05.01.29.05.3.09-.11.08-.25.13-.35.21z" fill="#766c83"/><path d="m4.62 2.57c-.06.04-1.36 1.29-.83.67.02-.02.3-.21.43-.34-.8.32-1.1.44-.15-.15.17-.1.74-.41.9-.49.17.12-.11.14-.35.31z" fill="#81778d"/><path d="m8.99.49-.1.89c-.1-.1-.28-1.09-.2-1.31.27.23.28.41.3.43z" fill="#504764"/><path d="m2.51 4.34s-.16-.34.25-.73c0 .29.11.7-.25.73z" fill="#c5c0ca"/><path d="m2.26 10.69c.03.29.27.6-.1.37-.07-.04-.23-.28-.3-.37.12-.03.29-.03.4 0z" fill="#8c8297"/><path d="m1.66 8.86c.05-.09.05-.12.05-.12.38-.11-.05.17 0 .52-.2.04-.41.29-.4.43 0 .07.46-.04-.1.67-.04-1.02.12-.9.45-1.5z" fill="#c5c0ca"/><path d="m2.51 7.58c-.29.37-.56.74-.8 1.16 0 0 0 .03-.05.12-.05-.58.39-1 .75-1.28z" fill="#5f5570"/><path d="m1.15 8.86c-.02.08-.02.2-.1.34.3.16-.09.92-.35.37.4-.26.24-.49.25-.52.12-.32.14-.29.15-.31z" fill="#c5c0ca"/><path d="m1.83 7.88.08.03c-.31.57-.45.59-.08-.03z" fill="#746a82"/><path d="m1.91.67c-.1.05-.07-.02-.1 0-.34-.44-.13-.39.1 0z" fill="#afa8b6"/><path d="m1.66 17.65c-.35.29-1.17.85-.28.06l-1.23.15c.18-.14 1.45-.35 1.51-.21z" fill="#9b92a4"/><path d="m2.96 19.91c-.28.08-.33-.55-.15-1.1-.04.39.06.74.15 1.1z" fill="#877d92"/><path d="m.07 17.35c.63-.04.59.11 0 .12z" fill="#b1aab8"/><path d="m.52 18.32c.24.03-.27.54-.23.21 0-.04.21-.22.23-.21z" fill="#c7c2cc"/><path d="m.88 19.73c.16.07-.24.5-.08.15.02-.03.07-.16.08-.15z" fill="#f2f0f2"/><path d="m1.38 13.26c.3-.02-.36.83-.5.92.01-.15.46-.91.5-.92z" fill="#9b92a4"/><path d="m1 13.5.1-.24c.01.23-.05.14-.1.24z" fill="#b5afbc"/><path d="m13.94.25c.27.5.65-.19.5.49.49-.25 1.02.64 1.11.31.15.83.17.39.78.95l-.68-.21c-.34-1.08-.18-.23-.25-.24-.08-.02-.47-.53-1.46-.73-.47.58-.42.19.03-.15 0-.35-.59.5-.25-.18.05-.1.15-.14.23-.21z" fill="#9990a2"/><path d="m11.86.98c.22-.93-.23-.01-.38-.37-.15.14-.12.23-.13.24-.17.18-.02-.28-.13-.37-.04-.03-.29.52-.38.34l.23-.58c-.01.29.56-.18.9.24.09-.09.72-.22.7-.06.31-.43.34-.25.43.21-.5.85-.23.2-.18-.34-.41.08-.13.94-.45.43-.28.33-.14.06-.4-.18l-.23.43z" fill="#766c83"/><path d="m6.98.98-.15.12s-.34-.41-.4-.27c.06.06.1.14.15.21 0 .44-.48-.34-.5-.43-.16-.75.2-.05.23-.06.05-.03 0-.58.25-.06-.03-.4.47.05.48.09.03.24-.4.04-.05.4z" fill="#c7c2cc"/><path d="m3.41.8c-.09.03-.13-.11-.15-.03.46 1.14-.52-.74-.05.58-.05-.1-.39-.81-.43-.79-.03 0-.04.38-.13 0 0-.05-.1-.13-.03-.24l.3.24c-.15-.56.3-.11.48.24z" fill="#71677f"/><path d="m2.36 3.85c-.16.35-.31.7-.38 1.1-.11.09-.21-.41-.18-.55.12-.25.1-.39.13-.43.08-.1.2.12.38-.18z" fill="#c5c0ca"/><path d="m2.86 1.53c.14.28.38.57.15.55-.11-.3-.67-1.38-.9-1.59.01-.02-.11-.29.18.06 0-.44.18.17.58.98z" fill="#81778d"/><path d="m.8 1.71c-.08.06-.17.13-.25.18-.3.2-.17.27-.45.18-.11-.44.46-.68.7-.37z" fill="#c3bdc8"/><path d="m4.29.37c.51.33.26.95.95 1.59-.31.02-1.03-1.54-.95-1.59z" fill="#938a9d"/><path d="m7.31.12s.27.61.28.64c.08.74-.61-.4-.48-.46.01 0 .14.19.15.18.06-.03-.08-.39.05-.37z" fill="#71677f"/><path d="m4.04.43c.15 0 .23.48.33.58.06.82-.72-.57-.33-.58z" fill="#a79faf"/><path d="m8.09 2.38c-.07.03-.19.08-.25.12-.17-.24-.11-.53-.1-.79.04-1.03.06.4.35.67z" fill="#c5c0ca"/><path d="m5.37.86c.49.59-.15-.02-.18 0-.05.03.28.68-.08.24-.03-.04-.36-.71-.48-.85.19.21.57.42.73.61z" fill="#71677f"/><path d="m.95 4.46c-.22-.61.12-.53.15-.58 0-.01-.01-.14.05-.21.47-.53.06.38-.2.79z" fill="#c5c0ca"/><path d="m4.07 1.59c-.42-.54-.55-.99-.58-.49-.17-.26-.07-.29-.08-.31.08-.03.03-.07.08-.12.32.37.21.15.1-.24.14.2.44.95.48 1.16z" fill="#938a9d"/><path d="m15.95 2.08.68.34c0 .2-.77-.16-.68-.34z" fill="#afa8b6"/><path d="m7.56.12c.26.39.52 1.84.13.7-.02-.07-.18-.68-.13-.7z" fill="#6b617a"/><path d="m8.44 1.59c0 .06-.05.06-.05.12 0 .21.02.42.1.61-.13.05-.19-.06-.2-.06.02-.44-.08-.74.15-.67z" fill="#a199a9"/><path d="m4.02 1.83c.41.39.19.38-.15.12-.37-.28-.29-.53.15-.12z" fill="#ebe9ec"/><path d="m.47 3s.1-.02.13.03c-.78 1.03-.44.02-.13-.03z" fill="#c3bdc8"/><path d="m14.37 1.71c-.21-.12-.41-.22-.6-.37.16.08.53.12.7.34 0 .05-.07.02-.1.03z" fill="#685e77"/><path d="m12.78 1.41s.11-.01.13.03c-.74.68-.38.04-.13-.03z" fill="#f2f0f2"/><path d="m.4 3.79-.1.18s-.22-.01 0-.27c.23-.27.09.08.1.09z" fill="#c3bdc8"/><path d="m13.34.55c.09 0 .05.17.05.18 0 .71-.2-.18-.05-.18z" fill="#766c83"/><path d="m13.14.86s.04.22.03.27c-.08.36-.09-.27-.03-.27z" fill="#afa8b6"/><path d="m13.76 1.35s-.06.04-.08.06c-.13-.52.06-.07.08-.06z" fill="#685e77"/><path d="m8.89 5.38c0 .09.02.67-.03.67-.06-.27-.11-.55-.23-.79-.22-.47-.1.59-.3-.52 0-.05.1-.02.1-.03 0-.05 0-.23 0-.24.49-.28.45.58.45.92z"/><path d="m3.36 3.24c0 .05.07.07.05.15s-.45.43-.1 1.56c-.12.06 0 .39.05.49-.08 0-.04.08-.05.12-.05.17 0 .24-.03.24-.13.07-.43-1.04-.43-1.22.38-.86.12-1.35.5-1.34z" fill="#c5c0ca"/><path d="m3.61 4.03s-.15.2.05.18c-.07.2-.03.27-.05.37 0 .04-.14.04-.05.67-.09.11-.08.24-.25-.24l.05-1.19c0 .16.24.2.25.21z" fill="#c5c0ca"/><path d="m3.67 4.22c-.2.01-.04-.16-.05-.18.15-.63.72-.88 1-1.4.04 0 .1 0 .1.03-.01.13-.87 1.07-1.06 1.56z" fill="#6e647c"/><path d="m6.08.61c.02.09.51.87.5.43.07.1.22.19.28.31.07-.04 0-.19-.03-.24l.15-.12s.34.19.35.21c.12.22.09 1.42.4.52 0 .26-.07.56.1.79-.28.18-.37.23-.5.55-.21-.1-.16.03-.25.12-.26.28-.35.51-.53.85-.12-.09.51-1.45.68-1.5-.7.25-1.24 1.07-.58.58.04.17-.46.81-.5.79-.05-.02 0-.16-.05-.18-.04-.01-.44.68-.45.79l.35-1.47c-.35.58-.68 1.12-.93 1.77 0-.01-.07-.23-.1-.24.03-.11.22-.33.25-.46.12-.43-.08-.6.45-1.19-.79 1.9.18-.16.7-.52-.51-.11-.82.46-1.13.82.48-1.09-.44.13-.33.61-.01.03-.2.56-.2.61v.24c-.02.05-.06.16-.1.18-.08-.88.29-2.03 1-2.5.19-.13.37.01.35-.15-.07-.17-.25.02-.4.09-.61.29-.77.75-1 1.47l-.03-.67c-.19.45-.48.5-.63.98-.17.54-.03 1.26-.3.49.02-.1-.02-.17.05-.37.19-.49 1.04-1.43 1.06-1.56 0-.04-.06-.03-.1-.03v-.06c.24-.17.53-.18.35-.31.18-.08.2.04.33 0 .44-.15.15-.75.03-.58-.03.04.11.18.03.21-.05.02-.71-.85-.23-.79.36.44.03-.22.08-.24.03-.02.67.59.18 0h.15c.53.78.17.11.33.12.36.51.85.54.23.09l.1-.06c-.09-.09-.13-.22-.2-.34 0-.16.01-.12.1-.06z" fill="#ebe9ec"/><path d="m7.46 2.14s.1 0 .15 0v.12l-1.06.49c-1.08 1.84-.4.22-.2 0 .07-.07 1.05-.6 1.11-.61z" fill="#6e647c"/><path d="m6.83 1.1c.03.05.1.21.03.24-.06-.12-.21-.21-.28-.31-.05-.07-.09-.16-.15-.21.06-.14.38.23.4.27z" fill="#81778d"/><path d="m5.62 2.38-.05-.06c.15-.07.33-.26.4-.09.02.17-.16.02-.35.15z" fill="#9b92a4"/><path d="m6.6 2.32c.27-.07.18.18-.1.12-.06-.02.09-.12.1-.12z" fill="#857b90"/><path d="m7.21 1.65.1.37c-.1-.1-.18-.21-.1-.37z" fill="#81778d"/><path d="m4.72 4.71c0-.08 0-.16 0-.24.14.12 0 .23 0 .24z" fill="#685e77"/><path d="m10.55 1.77c-.25.05-.77.83-.83 1.1-.28-.39-.33.44-.65.73-.16 0 .79-1.55.43-1.19-.15.14-.57 1.42-.15 0-.11-.1-.52.75-.6.92-.02.04-.27.17-.35.79-.02.18.06.24.05.34v.24c-.6-.99 1.43-3.7-.25-1.62 0 .25.3-.37.35-.12-.11.07-.26.42-.3.55-.06.19-.36 1.6-.3.37 0-.09.22-.61.13-.64l-.28.76c.08.87-.2.06-.08-.52l-.35.73c-.2-.38.13-.52.18-.64.07-.18.16-.59.25-.73.33-.53.75-.3.7-.52-.08-.19-.1-.4-.1-.61.16-.08.1.48.13.49.16.05.46-.54.23.03.69-.82 1.06-.72.7-1.37l-.15-.55c.29-.05.3-.18.5 0-.16 0 .08.96.13.31.29.49.12.03.13 0 .16-.98.27-.03.33-.06.05-.03-.09-.55.35-.37.06.02-.16.19.13.15-.4.65-.13.99-.3 1.44z" fill="#ebe9ec"/><path d="m9.8.31c.12.11.12.24.25.31 0 .03.16.49-.13 0-.04.65-.28-.31-.13-.31z" fill="#afa8b6"/><path d="m9.29.31.15.55s-.21-.33-.25-.31c-.01-.6.04-.23.1-.24z" fill="#afa8b6"/><path d="m9.27 1.96c.14.02-.02.25-.05.24-.08-.02-.05-.26.05-.24z" fill="#c5c0ca"/><path d="m3.21 1.35c.03.08-.02.05.1.24.06.1.41.44.5.49.46.24.77.04.8.18-.72.08-2.05.22-2.46 1.13-.42.94.75-1.16.15.4-.18.3-.3.09-.38.18-.03.03 0 .17-.13.43-.02.03-.08-.1-.1-.03l-.13 1.07c-.16.1-.11-.52-.25-.55-.05-.01-.14.24-.15.24-.3 0 .18-1 .23-1.13.03-.08-.17-.13.1-.15-.1.76.19.63.45-.58 0-.02.3-.04-.1-.21.12-.22.23-.33.15-.43.11-.09.24-.13.35-.21 0-.04-.25-.08-.3-.09-.48-.12-1.18-.04-1.61.24-.1-.25-.23.02-.35-.49.28.08.16.01.45-.18.02.31.54 0 .63 0 .81-.06.84.38.45-.43.7.61.51.77.55.79.01 0 .26.05.33.06-.31.13.53.14.05 0l.25-.18c.08.15-.03.37.33.24.23-.08-.02-.43-.1-.06-.06-.06 0-.19-.03-.24.23.02 0-.27-.15-.55.36-.07-.18-.55-.2-.98.09.38.1 0 .13 0 .04-.01.37.7.43.79z" fill="#ebe9ec"/><path d="m1.5 3.85c.04-.32.22-.54.35-.79.4.17.11.19.1.21-.27 1.21-.56 1.34-.45.58z" fill="#c5c0ca"/><path d="m3.39 1.96c.12 0 .43.31-.1.18-.09-.08.09-.18.1-.18z" fill="#877d92"/><path d="m2.56 2.32c.48.14-.36.13-.05 0z" fill="#81778d"/><path d="m3.31 1.59c-.12-.2-.07-.16-.1-.24.04.07.12.14.1.24z" fill="#71677f"/><path d="m8.49 2.32c.04.22-.37-.01-.7.52-.09.14-.18.56-.25.73-.05.12-.37.26-.18.64l.35-.73c-.12.58.16 1.39.08.52l.28-.76c.09.03-.12.56-.13.64-.06 1.23.24-.17.3-.37.04-.13.19-.48.3-.55-.05-.25-.36.37-.35.12 1.68-2.08-.35.63.25 1.62 0 0-.1-.02-.1.03.2 1.11.08.05.3.52l.05 1.07c-.14-.18-.07-.71-.2-.85-.19-.2-.15.29-.15.34 0 .25.14.44-.05.31-.02-.32-.06-.66-.28-.85-.11-.1.01.35-.23-.18-.16-.36-.35-1.31-.25-.37 0-.01-.11.09-.13-.24-.06.06-.15.09-.23.12-.12-.34.03-1.22.15-1.53.13-.32.23-.37.5-.55.06-.04.18-.09.25-.12.08-.03.16-.12.2-.12.01 0 .07.11.2.06z" fill="#4b415f"/><path d="m7.79 5.07-.15.12c-.03-.13-.03-.35-.1-.49-.1-.95.09 0 .25.37z" fill="#a199a9"/><path d="m8.21 4.46.1.98c-.17.08-.15-.85-.1-.98z" fill="#ebe9ec"/><path d="m7.56 2.93-.1.24c-.08-.17 0-.16.1-.24z" fill="#ebe9ec"/><path d="m2.81 5.19c.02.17.02.33.1.49-.16.04-.18-.08-.2-.24 0-.02.03-.33.1-.24z" fill="#81778d"/><path d="m11.5 1.41s-.08.16-.1.18c-.04.03-.22.1-.25.12l.35-.31z" fill="#685e77"/><path d="m5.98.67c.07.11.11.24.2.34l-.1.06c.62.45.13.42-.23-.09-.16-.02.2.66-.33-.12-.88-1.3.74.4.1-.52l.08-.03c.1.12.2.23.28.37z" fill="#685e77"/><path d="m5.9.74s.09.09.08.15c-.03.09-.16-.14-.08-.15z" fill="#f2f0f2"/><path d="m3.82 5.5c-.08-.02-.13-.21-.15-.31-.11-.57.09.09.15.31z" fill="#9b92a4"/><path d="m2.91 5.68c-.08-.16-.08-.31-.1-.49.12.05.15.34.1.49z" fill="#dedbe0"/><path d="m5.68 2.93s.13-.1.15-.15c-.15-.1-.14.14-.15.15-.53.59-.33.76-.45 1.19-.04.13-.22.34-.25.46-.13.53.18.88.1.24.25-.65.58-1.19.93-1.77l-.35 1.47c.02-.11.41-.81.45-.79.05.02 0 .17.05.18s.54-.63.5-.79c-.66.49-.13-.33.58-.58-.17.05-.79 1.41-.68 1.5.17-.35.27-.58.53-.85-.39.58-.7 1.67-.45 1.37.25-1.15.53-1.14.05.09.2 2.16.04.94-.08 1.04-.04.03-.03.16-.03.21.04.21 1.47 2.06.08.34-.07.04.13.43-.05.49-.66-.51-.93-1.21-1-1.22-.02 0-.17.14-.18.15 0 .07.77 1.25-.13.03-.11.06.24.64-.03.61-.19-.28-.56-.64-.65-1.04-.02-.07.01-.21 0-.31.47.44.13.12.2-.34.02-.1.62-1.87.1-.76-.12-.48.81-1.7.33-.61.31-.37.62-.93 1.13-.82-.52.36-1.49 2.42-.7.52z" fill="#584e6a"/><path d="m6.2 5.44.35 1.04s-.74-.62-.55-.73c.34.63-.06-.32.2-.31z" fill="#f2f0f2"/><path d="m4.62 4.95s0-.04 0-.06c.04-.03.08-.14.1-.18 0-.01.14-.12 0-.24 0-.05.19-.58.2-.61.52-1.11-.09.67-.1.76-.07.46.27.77-.2.34z" fill="#a199a9"/><path d="m5.07 4.83c.07.64-.23.28-.1-.24.03.01.1.23.1.24z" fill="#c5c0ca"/><path d="m5.6 3.85c-.25.61-.16 1.68-.35 1.53-.11-.09.17-1.41.35-1.53z" fill="#ebe9ec"/><path d="m6 4.09c.11-.06.03.61.03.64-.1.42-.51.15-.03-.64z" fill="#c5c0ca"/><path d="m5.8 5.01c.15.02-.14.92-.03.03 0-.02.02-.03.03-.03z" fill="#9b92a4"/><path d="m5.68 2.93s0-.25.15-.15c-.02.06-.15.14-.15.15z" fill="#ebe9ec"/><path d="m6.65 4.95s.04.18 0 .18-.04-.18 0-.18z" fill="#ebe9ec"/><path d="m5.57 2.32.05.06c-.71.48-1.08 1.62-1 2.5v.06c-.23-.14-.02.2 0 .31.14.7.04.58.05.61-.41-.52-.94-1.34-.5-2.05.28-.46-.06.39.08.89.13-1.03.09-.13.23-.4.02-.04.05-.36.1-.52.23-.71.39-1.17 1-1.47z" fill="#584e6a"/><path d="m4.57 3.79c-.05.16-.08.48-.1.52-.14.26-.1-.63-.23.4-.13-.5.21-1.35-.08-.89-.44.71.09 1.52.5 2.05.04.23.2.32.15.55-.64-.61-.9-1.35-.9-2.32.15-.48.44-.53.63-.98z" fill="#c5c0ca"/><path d="m4.62 4.95c.01.1-.02.24 0 .31-.02-.11-.23-.45 0-.31z" fill="#ebe9ec"/><path d="m4.34 4.77c.08-.05.08.14.1.24.1.59-.23-.16-.1-.24z" fill="#ebe9ec"/><path d="m7.33 3.06c-.12.3-.27 1.19-.15 1.53-.02 0 0 .41-.15-.15-.02-.1.03-.39-.03-.4-.02.28-.18.26-.23.61h-.1c.48-1.23.2-1.24-.05-.09-.25.3.06-.79.45-1.37.09-.09.04-.22.25-.12z" fill="#c5c0ca"/><path d="m7.06 3.48c.08.04 0 .29-.08.15-.03-.05.07-.16.08-.15z" fill="#796f86"/><path d="m7.18 4.58c.07-.03.16-.06.23-.12.02.33.12.23.13.24.07.14.07.36.1.49.09.35.13.74.2 1.1-.14-.26-.25-.45-.3-.76h-.1c.15.33.05.32.05.34-.84-.97.26 1.13-.3.24-.05-.08-.12-.16-.15-.24-.12-.32-.29-.88-.25-1.22.04-.35.2-.33.23-.61.06 0 0 .3.03.4.14.56.13.16.15.15z"/><path d="m7.18 6.11c.02.75-.22.06-.15-.24.03.09.1.17.15.24z" fill="#938a9d"/><path d="m7.11 5.07s.22.26.23.27c.12.51-.39-.19-.23-.27z" fill="#c5c0ca"/><path d="m6.96 4.52s.09.16.05.24c-.09.18-.14-.27-.05-.24z" fill="#c5c0ca"/><path d="m2.96 7.51s.02.11.1.12c-.36.59-.48.49-.5.52-.11.16-.31.83-.55.92.25.05-.14.36-.03 1.07l.13-.58c.31.38.2-.42.25-.55.2-.46.25.13.4-.03-.01.16 0 .22.05.37.01.05-.02.18.03.18.17-.28.26-.7.28-.73h.1s.06.24.05.27c-.01.06-.1.14-.1.15-.42.54-.19.83-.2 1.47-.06.01-.1-.03-.15-.06-.13-.1-.26-.26-.33-.43-.08.16-.03.38-.03.61-.09-.07-.09-.09-.2-.12-.12-.03-.28-.03-.4 0 0 0-.16.03-.2-.09-.16-.52.31-1.79.55-2.29l.7-.76c-.13-.1-.22.03-.25.03 0 0-.04-.12-.08-.12-.03 0-.07.12-.08.12-.03 0-.07 0-.1 0-.79.08-.23.09-.35-.15-.08-.17-.12.06-.15.09-.03 0-.14-.06-.15-.06-.24-.25 1.11-.09 1.18-.06.05.02.02.11.03.12z" fill="#c5c0ca"/><path d="m1.1 8.74s-.03-.01-.15.31l-.43.43c-.07-.29-.18-.09-.2-.12-.02-.04.04-.85.03-.89-.02-.05-.67-.03.08-.7.02-.02.33.19.23-.24.64.12 1.4-.17.2.27.6-.1.06.28.65 0-.14.31-.28.63-.4.95z" fill="#f2f0f2"/><path d="m2.31 5.74s-.13-.04-.05.67c-.68-.67-.45-.21-.18.31-.58-.65.07.65-.65-.43l-.48.15c.88.4-.43.24-.6.03.41-.39 1.6-.25 1.48-1.04.19 1.16.16-.61.25.24.11-.18.06-.35.08-.55l.2-.27c.07.78-.05.84-.05.89z" fill="#b1aab8"/><path d="m1.76 7.45s.12.06.15.06c-.16.19-.69 1.12-.75 1.34l-.05-.12c.12-.32.27-.63.4-.95-.59.28-.05-.1-.65 0 1.2-.45.44-.15-.2-.27-.19-.04-.18-.08-.25-.12.45 0 .91.02 1.36.06z" fill="#6e647c"/><path d="m2.21 8.31c.13-.27.29-.5.45-.73.03 0 .12-.13.25-.03z" fill="#766c83"/><path d="m8.89 5.38c.13-.41.05.41.23.31.3-.91.21-.07.1.49.16-.26.22-.85.38-.67-.02.06-.03.12-.05.18-.15.5-.28 1-.5 1.47-.21.03-.39.08-.6.12.01-.06-.04-.45.1-1.13l-.2-.34s-.04-.54.15-.34c.13.14.06.68.2.85l-.05-1.07c.12.24.17.52.23.79.04 0 .03-.59.03-.67z" fill="#f2f0f2"/><path d="m9.14 7.27c.22-.53.78-1.15.8-1.65 0-.02 0-.04 0-.06.34.2-.18 1.1.28.37.23.19-.78 1.36-1.08 1.34z" fill="#f2f0f2"/><path d="m9.95 5.62c-.02.5-.58 1.11-.8 1.65-.08 0-.09-.12-.1-.12.22-.47.35-.96.5-1.47.29.33.19.14.4-.06z" fill="#8c8297"/><path d="m8.44 7.27c-.04.21-.2.39-.35.24 0-.03 0-.08 0-.12 0 0 .22.14 0-.12.14-.15.19-.14.2-.15.02-.04 0-.96 0-1.01.19.13.06-.05.05-.31l.2.34c-.14.68-.09 1.07-.1 1.13z" fill="#c5c0ca"/><path d="m4.82 6.42c1.19 1.14-.47-.48-.08.24.55.32.13.29.08.31-.56-.59-.69-1.51-.9-1.16 0 0-.08.02-.1-.03-.02-.08.05-.11 0-.27-.06-.21-.26-.87-.15-.31-.03 0-.1.06-.1.06-.09-.63.04-.64.05-.67.27.77.13.06.3-.49 0 .97.27 1.71.9 2.32z" fill="#584e6a"/><path d="m3.92 5.8c.22-.35.35.57.9 1.16-.01 0 0 .07-.25.09l.45.18c-.8.48.24-.14-.03.34l.33.06c-.07.12-.08.1-.15.18 0-.07-.04-.05-.05-.06-.17-.09-.26-.06-.43 0-.85.32-1.02 1.13-.65.55.21-.04-.47 1.23-.18 1.04-.27.69-.26 1.21-.35.15l-.08.76-.08-.89c-.07.16-.02.47-.2.43.07.99-.2.79 0-.58 0 0 .09-.1.1-.15 0-.04-.05-.26-.05-.27.08-.29.29-.51.38-.79-.29.14-.35.5-.48.79-.02.04-.11.46-.28.73-.05 0-.01-.13-.03-.18.03-.88.75-1.55 1.36-1.92-1.39.22-1.13.89-1.16.98-.04.12-.22.19-.25.58-.15.16-.2-.43-.4.03-.06.13.06.93-.25.55l-.13.58c-.11-.71.27-1.01.03-1.07.24-.08.44-.76.55-.92.02-.03.14.07.5-.52.09-.14.32-.26-.1-.12 0 0 .02-.1-.03-.12-.07-.03-1.42-.19-1.18.06-.45-.04-.91-.06-1.36-.06-.79-.49.31-.13.13-.49-.02-.05-.51-.11-.18-.43.17.2 1.49.37.6-.03l.48-.15c.72 1.08.07-.22.65.43-.27-.52-.5-.97.18-.31.6 1.14 1.02.59 1.38.92.08-.08-.03-.12-.03-.18 0 0 .1-.02.05-.09-.04-.07-.06.05-.1.03-.19-.08-.18.02-.23 0-.05-.03-.02-.12-.03-.12-.08-.15-.18-.27-.3-.37.44.22.08-.25-.08-.37-.05-.04-.1.16-.43-.18-.16-.36 0-.17.05-.37l.73.67.08-.03-.15-.43c.09-.2 1.47 1.68.1-.34.01-.04-.03-.13.05-.12.17.37.52.58.73.92-.05-.19-.12-.36-.18-.55z" fill="#ebe9ec"/><path d="m3.31 5.01c.17.48.16.35.25.24 0 0 .07-.05.1-.06.02.09.07.29.15.31.05.17-.02.2 0 .27.02.05.1.02.1.03.06.19.13.36.18.55-.2-.34-.55-.55-.73-.92-.05-.1-.17-.43-.05-.49v.06z" fill="#4b415f"/><path d="m2.51 6.05c.33.34.37.14.43.18.15.12.52.58.08.37-.07-.06-.12-.11-.18-.18-.02.42.43.52.48.55 0 0-.02.1.03.12.04.02.04-.08.23 0l.05.06c0 .06.1.1.03.18-.36-.33-.78.22-1.38-.92-.08-.71.05-.64.05-.67.12.38.19.29.2.31z" fill="#c5c0ca"/><path d="m2.86 4.58c0 .18.3 1.29.43 1.22.02 0-.03-.08.03-.24 1.37 2.02-.02.14-.1.34l.15.43-.08.03-.73-.67c.04-.13-.09-.42.15-.24.02.16.05.28.2.24.05-.15.02-.44-.1-.49 0-.11-.06-.61-.05-.64.02-.07.09.06.1.03z" fill="#6e647c"/><path d="m5.12 7.76c-.64.28-.98.88-1.26 1.59-.3.19.39-1.08.18-1.04-.36.58-.19-.23.65-.55.17-.06.25-.09.43 0z" fill="#4b415f"/><path d="m2.81 9.35c-.04-.15-.06-.21-.05-.37.03-.39.21-.46.25-.58.03-.09-.23-.75 1.16-.98-.61.38-1.32 1.04-1.36 1.92z" fill="#4b415f"/><path d="m3.21 8.8h-.1c.12-.3.19-.66.48-.79-.09.28-.3.51-.38.79z" fill="#5f5570"/><path d="m3.01 6.6c.12.1.23.22.3.37-.05-.03-.49-.13-.48-.55.05.08.11.13.18.18z" fill="#81778d"/><path d="m4.34 7.51s.04.06.08.09c-.67.57-.3-.11-.08-.09z" fill="#a199a9"/><path d="m3.54 8.37c.05.03-.06.32-.1.37-.17.2.04-.4.1-.37z" fill="#81778d"/><path d="m3.06 7.64c-.08 0-.1-.12-.1-.12.42-.14.19-.02.1.12z" fill="#6b617a"/><path d="m3.61 7.15-.05-.06s.06-.1.1-.03c.05.07-.05.09-.05.09z" fill="#796f86"/><path d="m8.29 6.11c0 .05.02.97 0 1.01 0 .01-.06 0-.2.15 0 0-.06 0-.1 0-.09-.33-.22-.61-.05-.95-.01-.05-.1-.02-.1-.03-.07-.36-.11-.75-.2-1.1l.15-.12c.24.54.12.08.23.18.22.2.25.54.28.85z" fill="#f2f0f2"/><path d="m6.78 4.64c-.04.35.13.9.25 1.22-.07.31.17.99.15.24.57.88-.54-1.21.3-.24.04.26.19.94.3 1.19-.02.06-.11.01-.15.03-.54.25-.37-.13-.83-.37.13.36.33.15.28.61-.11 0-.21.08-.28.18-.06-.24-.31-.09-.48-.06-.75-.3.41-.41-.58-.37-.3-.38-.45-.76-.48-.79.26.03-.09-.55.03-.61.89 1.22.12.04.13-.03 0-.01.16-.16.18-.15.07.01.35.71 1 1.22.18-.06-.02-.45.05-.49 1.39 1.73-.04-.13-.08-.34 0-.05-.01-.18.03-.21.12-.1.28 1.12.08-1.04h.1z" fill="#f2f0f2"/><path d="m7.84 6.29s.09-.02.1.03c-.17.34-.04.61.05.95 0 .01-.16.1.05.12-.07.08-.15.11-.15.12 0-.09-.07-.05-.1-.06 0 0 .01 0-.1-.06.09-.17.07-.19-.05-.31.04-.02.13.03.15-.03-.12-.25-.27-.93-.3-1.19 0-.02.1 0-.05-.34h.1c.05.31.16.51.3.76z" fill="#c5c0ca"/><path d="m7.63 7.09c.12.11.14.13.05.31-.07-.03-.11-.12-.13-.12-.15-.03-.19.06-.23.06-.09 0-.15 0-.25 0 .06-.46-.15-.25-.28-.61.46.24.29.61.83.37z" fill="#a199a9"/><path d="m5.17 9.53-.05-.06c.12-.38.05-.07.05.06z" fill="#796f86"/><path d="m15.62 7.88c-.01.09-.08.14-.15.12-.42-.07-.09-.31.15-.12z" fill="#685e77"/><path d="m8.09 7.27c.22.26 0 .11 0 .12-.01 0-.04-.01-.05 0-.21-.03-.05-.11-.05-.12z" fill="#5b516c"/><path d="m5.88 8.06s-.04.1-.05.12c-.18.26-.39.49-.53.79.02-.36.26-1.02.58-.92z" fill="#766c83"/><path d="m5.27 6.29s.18.42.48.79c.99-.04-.17.07.58.37-.17.03-.79.26-.83.24-.19-.05.13-.56-.18-.06l-.33-.06c.27-.47-.78.14.03-.34l-.45-.18c.25-.02.24-.09.25-.09.05-.02.48.01-.08-.31-.4-.72 1.26.89.08-.24.05-.23-.11-.32-.15-.55 0-.03.09.09-.05-.61.1.4.47.76.65 1.04z" fill="#dedbe0"/><path d="m5.1 6.96.78.4c-.36-.17-.76.16-.78-.4z" fill="#877d92"/><path d="m7.33 7.33c-.14.07-.91 1.28-.63 1.28.12-.18.2-.37.33-.55 0 .84-.65 1.29-.53 2.2.14-.5.33-.94.63-1.31-.1-.1.05-.84.1-.95.05-.09.43-.41.55-.55.03.01.1-.03.1.06-.11.18-.59 1.88-.25 2.41.19.3.17 0 .1-.34-.03-.7.6.91.2-.58.42-.35.17.45.2.73 0 .05.1.02.1.03.03.14.03.3.1.43v.24c0 .33 0 .65.03.98-.2-.56-.72-1.59-.45-.24-.43-1.2-.57-.8-.13.24h-.05c-.14-.22-.31-.39-.45-.61-.13-.2-.27-.42-.33-.67-.16-.02-.07.24-.03.49.19 1.05-.26-.83-.4-.09-.06.33.38 1.29.33 1.31l-.55-1.22c-.28-.06.21.92-.38-.09.71 2.44-.07-.05-.18-.03-.08.02-.07.17-.08.24-.34-.36-.01.49.2.61v.12l-.63-.55.25.61c-.82-.7-.71-.18-.25.12.05.04.09-.09.15-.06.32.17-.18.02.13.37-.23.17-.68-.69-.73-.67-.09.04.14.31.05.37-.19.11-.45-1.05-.55-1.22-.12.62.52 1.65 0 1.22-.16-.14-.28-.67-.33-.92.77 1.69.2-.07.08-.12-.02 0-.06.09-.08.12-.15.33.1.79.03.79-.31-.52-.3-1.1-.55-.67-.33-.54 0 .93-.48-.18 0-.64-.22-.93.2-1.47-.2 1.37.07 1.58 0 .58.18.05.13-.27.2-.43l.08.89.08-.76c.09 1.05.08.54.35-.15.16-.22-.04.62.03 1.22l.13-1.01c.12-.24.13.8.2-.24 1.2-2.23-.28.52.35 1.04-.18-1.1.12-.4.15-.43.04-.05.12-.94.4-1.34.36-.52.03.31-.2 1.1.19 1.4.05.26.2-.21l.05.06c-.04 1.58.47-1.18 1.23-1.53-.24.53-.82 1.23-.83 1.86 0 .68.27-.67.35-.85 1.17-1.72.13.07.18 1.01.65-.63.19-1.64.78-2.29-.02-.31-.39.3-.6.15.13-.11.4-.22.43-.43-.29.1-.63.11-.83.37-.08-.07.07-.14-.13-.12-.52.06-1.32 2.17-.68.4-.39.03-.1-.03.1-.27.07-.08.08-.07.15-.18.3-.5-.01 0 .18.06.04.01.66-.21.83-.24s.42-.18.48.06c.07-.1.17-.17.28-.18h.25z" fill="#4b415f"/><path d="m5.17 9.53c0-.13.07-.45-.05-.06-.15.47-.01 1.61-.2.21.23-.79.56-1.62.2-1.1-.28.4-.36 1.3-.4 1.34-.03.03-.33-.68-.15.43-.63-.52.85-3.27-.35-1.04-.07 1.04-.08 0-.2.24l-.13 1.01c-.06-.6.13-1.44-.03-1.22.28-.71.61-1.31 1.26-1.59.01 0 .06-.01.05.06-.2.25-.49.31-.1.27-.64 1.78.16-.34.68-.4.2-.02.05.06.13.12.02.02-.08.12.15.09-.04.07-.14.14-.15.15-.32-.1-.56.55-.58.92.13-.31.35-.53.53-.79.09.08.31-.18.45-.31.22.15.59-.46.6-.15-.59.65-.13 1.66-.78 2.29-.05-.94 1-2.72-.18-1.01-.08.19-.36 1.54-.35.85 0-.64.59-1.33.83-1.86-.76.35-1.27 3.1-1.23 1.53z" fill="#c5c0ca"/><path d="m7.23 8c-.05.1-.2.84-.1.95-.3.38-.49.82-.63 1.31-.12-.9.52-1.36.53-2.2.01-.01.09-.41.2-.06z" fill="#c5c0ca"/><path d="m7.68 7.39c.11.05.1.06.1.06-.12.14-.51.46-.55.55-.11-.35-.19.05-.2.06-.13.18-.21.37-.33.55-.28 0 .49-1.21.63-1.28.03 0 .08-.09.23-.06.02 0 .05.09.13.12z" fill="#ebe9ec"/><path d="m6.28 7.88c-.15.13-.37.38-.45.31.01-.02.04-.1.05-.12 0 0 .11-.08.15-.15-.23.03-.13-.07-.15-.09.2-.26.54-.26.83-.37-.03.21-.3.32-.43.43z" fill="#ebe9ec"/><path d="m7.61 7.94c.04.97-.47 1.22-.23.58-.46.1.11-.4.23-.58z" fill="#ebe9ec"/><path d="m7.06 9.29c.03.14-.16.72-.25.67z" fill="#ebe9ec"/><path d="m8.01 10.2c.09-.07.3.79.05.18 0-.01-.18-.09-.05-.18z" fill="#b5afbc"/><path d="m3.69 10.32s.09.28.05.31c-.14.09-.1-.31-.05-.31z" fill="#9b92a4"/><path d="m5.45 10.02c.05.03.04.43-.05.24-.04-.08.04-.25.05-.24z" fill="#ebe9ec"/><path d="m6 9.59c.08.01-.05.25-.08.15-.02-.06.07-.15.08-.15z" fill="#ebe9ec"/><path d="m6.93 10.63c.15 0 .29.65.28.85-.06.02-.81-1.5-.53-.58.09.28.72.88.65 1.13 0 .02-.2-.09-.15.18-.5.1-.84-.18-1.23-.49-.19-.17-.06-.21-.08-.24 0-.02 0-.1 0-.12l.1-.03c-.12-.15-.19-.46-.3-.58 0-.07 0-.23.08-.24.1-.02.89 2.47.18.03.59 1.01.1.03.38.09l.55 1.22c.05-.03-.39-.99-.33-1.31.15-.74.6 1.14.4.09z" fill="#ebe9ec"/><path d="m4.9 10.63c.49.58.34.82-.08.09z" fill="#f2f0f2"/><path d="m5.68 10.75c0 .21.13.42.2.61-.21-.12-.54-.97-.2-.61z" fill="#ebe9ec"/><path d="m5.88 11.36c-.07-.19-.21-.4-.2-.61.11.12.18.43.3.58z" fill="#4b415f"/><path d="m12.81 1.96c-.44.39-1.05.57-1.08.98.38-.34 1.19-.58 1.31-.67.28-.21-.95.2-.13-.18.16-.07.36-.11.53-.12-.25.52-.4.19.5.31.11.01.8.31.4 0-.08-.06-.48-.15-.63-.21.35-.32 1.77.84 1.33.34-.24-.27-1.34-.61-1.46-.73-.39-.39.42.15.78.06.02.01.41.47.4.09 0-.04-.62-.64-.38-.58.33.47.83.65 1.26.98.18.14.38.67.5.31.2.26.56 1.06.43 1.19-.02.02-.29-.2-.25.12 0 .06.21.08.1.43.63.25.06.08.05.24 0 .04.11-.07.1.55-.6.13-.3.32-.33.34-.14.07-.24-.07-.25-.06-.03.02.11.35-.4.18.04.37-.65.04-.68.27.56.28.82.7.95.82-.58.02-.43-.3-.53-.37-.31-.22-.75-.21-.65-.49-.56.5-.11-.12-.13-.15-.02-.05-.14.08-.23.03-.05-.03.29-.15-.33-.43-.02 0-.26-.39-.15.06-.12.03-.25.11-.35.18 0 0-.02-.12-.08-.06-.18.18 0 .53.08.12.32.45.33-.13.38-.12-.17.86.14-.05.4.67.23 0 .49.13.58.43-.41-.04-.21.15-.65.34l.48.03v.12c-1.25-.15-.79.67-.55.12.42.05 1.05.2.3.18-.14.32.49.03.5.43.16-.39.14.33 0 .24-.09-.74-.92.43-.2 0 .45.97.31.08.73.12.45.33.9-.49.2-.46.02-.29.28 0 .35-.12.03-.06-.1-.13-.3-.34.31-.43-.55-.14.2-.49.02.01.14 0 .23 0 .19.12-.4.21.38.58-.54.18.24.5-.15.55.42.41-.13.26.2.49-.17.38-.43.49.1.79.01.07-.34.25-.05.37-.55.25.18.32-.13.58-.08.07-.58.15-.5.37-.1 0-1.16.27-1.13.34.57.22 1.1.57 1.51 1.1-.75-.06.81.6-.05.55.48 1.1.17.8.15.85s.25.48-.2.85c.66.32.23.16.25.24 0 .04.15.16.15.18 0 .06-.27-.03-.05.18-.37.28.3.14-.48.58.22.08-.31.32-.45.37-.15.05-.89.03-.73.27.03.05.67.21.93.46.08.07-.03.15-.03.15.07.07.26.11.35.24.02.03-.02.16 0 .18.58.91.18.34.15.61-.02.2.49.74-.1 1.28.79.74.26.5.25.55 0 .04.19.03-.05.31.38.62-.35.48-.38.52-.04.06.17.35-.45.24.2.5-.38-.12-.48.27.4.12 1.42 1.4 1.46 1.71.01.13-.27.1-.2.31.55 1.48.01.79-.05 1.04 0 .04.25.37.25.4v.06c0 .02-.2.4-.2.43.13.31.34-.03.5.31-1.05.02-.71.17-.75.18-.27.06-.38-.07-.43-.06-.07.01-.29.46-.45.06-.02.29-.63.1-.8.06-.04.02-.02.12-.03.12-.06 0-.11-.13-.13-.12-.02 0-.04.11-.08.18-.23-.06-.12-.16-.18-.18-.07-.03-.11.11-.18.12-.05 0 .12-.14-.1 0-.43.26-.49.63-.45-.21.4.43.12-.29.3-.64 0 0 .07-.02.05.12-.04.2.24.12.25.12.05.02.09 0 .15.06.18.16.31-.15.43-.12.31 1.02.39-.19-.08-.12.09-.45-.29-.78-.3-.89 0-.05.25-.21.2-.31-.1-.19-.16.23-.45-.37.37-.27-.56-.29-.2.12-.12.02-.23.05-.35.09s-.19-.24-.73.61c-.9.21-.18.38-.58.58 0 .25.37 0 .53-.46.28.93.33.42.48.7.02.03.13.75.08.76-.45-1.09.11.48-.65.06-.42.46-.57-.05-.6-.06-.06-.01-.16.2-.2.18s-.16-.71-.4 0c-.42 0-.38-.19-.4-.18-.01 0-.08.35-.05.37.26.16 4.45-.26 5.15-.06-.08 0-.17 0-.25 0-.37 0-.73.05-1.11.06-1.09.03-4.85.23-5.63 0-.01 0-.11-.29-.1.06-.28.05-1.38 0-1.86 0 .2-.14-.04-.21-.05-.43-.04-.71.36-.04.5-.12.21.95.97.36.45.27.12-.66-.04-.64-.05-.76-.04-.18.1-.25.15-.37-.04 1.11.17.09.15.03-.02-.05-.11-.02-.15-.03.57-1.34.27-.42.25-.09-.04.53.18.92.2.24 0-.14-.1-.08-.1-.12.08-.88.4-1.21.4-1.28 0-.26-.46.37.23-.7l.08.03c-.57.87.51-.01.98-.95-.11 1.19-1.67 1.22-1.46 3.42.22-.37-.09-.97.48-1.71h.05c-.02.09.02.16.08.12.08-.05 1.06-1.07 1.41-1.53.01-.02.11.01.13 0-.04.23-1.38 1.62-1.13 1.77.83-1.04 1.5-1.2 2.19-2.6l-.08-.09c-.79 1.04-.18.16-.18.09 0-.01-.11-.21-.13-.21s-.08.25-.1.24c-.16-.01.3-.79-.38.37.01-.06.07-.34.03-.37-.99 1.47.3-.76-.28-.21-.02-.26-.08-.5-.18-.89.07.6-.34 1.63-.48 1.37-.02-.04.08-.07-.1-1.01-.19-1.02.12-.61-.4-.15 0 .34-.14 1.25.1 1.31-.04.06-.17.79-.4-.12 0-.04.28-.14.03-.67l-.2.61s-.03-.46-.08-.73c.02-.05.13.09.15.03.11-.3-.05-.46-.05-.49-.05-.28-.06-.59-.35-.7-.03-.23.06-.5-.1-.24.2-.93.44-.95.45-1.01.06-.46-1.13.77-.75.95-.01.05-.02.24-.08.37-.1-.02.04-.86-.28-.18.06-.49.15-.61.45-.95l-.2-.06c2.02-1.02-.18-.6-.68-.03-.21.23-.42.71-.25.61.49-.75.04.17.03.27-.03.24.05.2.05.21-.09.48-.18.99-.3.24.15-.54.09-.59.1-1.1.12-.19.2-.19.05-.31.29-.23.22-.22.6-.37.13-.05.1-.06.1-.06.02 0 .13 0 .3-.06.13-.04.31-.05.35-.06.49-.17.99-.24 1.41-.64-1.05 1.03-1.09 2.3-.8 1.71.01-.02-.02-.21.05-.37.42-.9.58-.71.05.06l.08.03 1.46-1.77c-1.7 2.78.54.33.9-.61-.36.41.02-.1-.15-.31-.21.65-.86 1.8-.23.4-.26-.16-.15.33-.35.37.17-1.63-.03-.73-.3.06l.03-.4c-.51 1.2-.06.29-.3-.61-.13.97-.3.78-.33.82 0 0 .1.12.05.18-.1.13-.99.8-1.23.89.06-.32.63-.28.18-.4.26-.35.68-1.56.3-1.07.03-.69-.29-.08-.23.31-.12-1.13-.25-.76-.35.55-.09-1.64-.3-1.98-.38-.37l-.05.06c0-.25-.07-1.34-.13-1.34-.18 1.3 0 1.32-.35.31-.22.22-.01.68.03 1.22-.12-.03-.12-.36-.2-.61-.07-1.11.09-.56.23-.73.21-.26-.2-.47-.18-1.16.15.05.1-.34.2-.52.15-.26.04.14.08.15.21.07-.08-.49.25-.73.03.3 1-.73 1.38-1.1.18.06-.51.58-.75 1.13-.15.34-.32 1.15-.33 1.56.21-.28.61-2.33.6-1.4.35-.55.97-.99 1.18-1.22-.27.58-.9.98-.83 1.34.22-.27.45-.57.7-.79.07-.06.09.13.1.12.1-.09 1.1-1.18.83-1.07.67-.57.91-1.1.05-.24l.35-.49-.2.12.13-.58c-.05-.02-.32.69-.35.67-.13-.09.03-.62-.3.31.11-.97.39-1.42-.35-.31.09-2.27-.32 1.27-.43-.46l-.08.89c-.27-.64-.04-.72-.08-1.19-.21-.2-.08 1.1-.43.15 0 .61-.34 1.1-.75 1.59-.17-.13.49-.77.48-.82 0-.03-.2-.09-.2-.12 0-.05.2-.99-.18-.4-.17-.94-.19-.5-.15.18-.43-1.64.04.63-.38-.55 0-.08 0-.16 0-.24-.02-1.62-.12-1.96-.1-.43 0 0-.09.02-.1-.03-.04-.28.22-1.09-.2-.73.4 1.49-.23-.12-.2.58-.01-.06-.35-.16.03-1.1-.15.9.14.18.18-.03.02-.12-.14-.05-.1-.24.05-.23.2-.49.25-.7.15.14.31-.03.35-.24.21-.04.39-.09.6-.12 0 0 .02.12.1.12.3.01 1.31-1.15 1.08-1.34-.46.74.06-.16-.28-.37l-.03-1.1c-.38.69-.31.98-.33 1.04-.16-.17-.22.41-.38.67.11-.56.2-1.4-.1-.49-.17.1-.1-.72-.23-.31 0-.34.04-1.2-.45-.92 0-.1-.07-.16-.05-.34.08-.63.33-.75.35-.79.08-.16.49-1.01.6-.92-.41 1.42 0 .14.15 0 .37-.36-.59 1.2-.43 1.19.33-.29.38-1.13.65-.73.06-.27.58-1.05.83-1.1-.09.24-.77 1.06-.95 1.5 0 .3.5-.56.8-.89.1.4.38-.38.45-.12-.2.25-.42.5-.58.79l.58-.79c.18-.23.37-.45.55-.67.07-.05.34-.19.1-.18.17-.19.19-.11.35-.24-.06.47-1.44 1.39-.48.92.3.25-.24.44.03.15-.46 0-1.88 2.03-.6.92-.6.78.66-.64 1.18-1.31.25-.02-.08.19.23.15-1.03 1.14.83-.5.9-.24-.09.08-.22.14-.3.21z" fill="#685e77"/><path d="m12.91 2.08c-.82.39.4-.02.13.18-.12.09-.92.33-1.31.67.03-.41.64-.59 1.08-.98l.1.12z" fill="#f2f0f2"/><path d="m11.4 1.59c-.19.22-.37.44-.55.67-.07-.26-.35.52-.45.12.08-.09.16-.29.18-.31s-.06.12.33-.18c.08-.07.17-.12.25-.18.03-.03.21-.09.25-.12z" fill="#ebe9ec"/><path d="m11.91 5.68h-.05c-.08-.03-.03-.09-.08-.12-.04-.03 0 .3-.28-.18v-.06c.07-.22.08-.47.23-.61.09 1.23.54-.95.43.82 0 .04.11.02.1.06-.18.28-.3-.38-.35.09z" fill="#201d1c"/><path d="m13.21 3.67c-.23-.03-.19.06-.2.06-.23.09-.37.03-.6.12-.08-.14-.13.05-.15-.03-.15-.51 1.04-.72.95-.15z" fill="#6e647c"/><path d="m9.95 5.56s0 .04 0 .06c-.21.2-.11.39-.4.06.02-.06.03-.12.05-.18.02-.05-.06-.35.33-1.04l.03 1.1z" fill="#201d1c"/><path d="m13.29 2.32c.63-.08-.4.37-.43.27.07-.09.38-.27.43-.27z" fill="#f2f0f2"/><path d="m10.85 2.26-.58.79c.16-.29.38-.54.58-.79z" fill="#ebe9ec"/><path d="m9.62 3.54s-.11.55-.15.55c-.16 0 0-.63.15-.55z" fill="#dedbe0"/><path d="m11.63 2.45.08.03c-.26.64-.64.52-.08-.03z" fill="#f2f0f2"/><path d="m15.5 2.57c.28-.08.38.34 0 .18-.08-.03-.08-.16 0-.18z" fill="#f2f0f2"/><path d="m10.07 3.61c.14-.04.12.04.08.15-.16.39-.37-.06-.08-.15z" fill="#faf9fa"/><path d="m13.29 3.97s.29.13.15.24c-.09.08-.31-.21-.15-.24z" fill="#ebe9ec"/><path d="m14.02 5.19c0 .1-.08.04-.15.06-.11-.45.13-.07.15-.06z" fill="#ebe9ec"/><path d="m13.51 5.44v.06c-.07.4-.25.06-.08-.12.06-.06.07.06.08.06z" fill="#c3bdc8"/><path d="m10.32 2.69.08.03c-.34.47-.44.38-.08-.03z" fill="#c3bdc8"/><path d="m15 2.02s.33.19.33.21c-.02.1-.35-.06-.33-.21z" fill="#f2f0f2"/><path d="m13.21 3.67c-.03.19-.07.14-.2.06 0 0-.03-.09.2-.06z" fill="#80768c"/><path d="m10.02 5.07c.11-.05.02.29-.05.24-.07-.04-.01-.21.05-.24z" fill="#c3bdc8"/><path d="m13.94 2.45s.19.11.2.12c.15.26-.32-.08-.2-.12z" fill="#c7c2cc"/><path d="m11.4 1.59s.08-.16.1-.18c.24 0-.03.14-.1.18z" fill="#c7c2cc"/><path d="m11.13 3.12c.11-.06.11.24 0 .18-.04-.02-.04-.16 0-.18z" fill="#c3bdc8"/><path d="m13.54 2.63s.06.18-.05.18c-.16 0 .02-.2.05-.18z" fill="#c7c2cc"/><path d="m9.02 3.67c.08.04 0 .29-.08.15-.03-.05.07-.16.08-.15z" fill="#dedbe0"/><path d="m11.86 5.68h.05s.26.18-.03.12c-.04 0-.02-.12-.03-.12z" fill="#d6d2d9"/><path d="m10.17 3.12s.07 0 .08.03c.05.21-.35.07-.08-.03z" fill="#d6d2d9"/><path d="m12.58 2.63c.08-.04.11.09.05.12-.08.04-.11-.09-.05-.12z" fill="#f2f0f2"/><path d="m14.95 1.77.03.03.03.03.03.03-.03.03h-.05l-.03-.03v-.06l.03-.03z" fill="#c7c2cc"/><path d="m11.5 5.38c-.21.13 0-.05 0-.06z" fill="#dedbe0"/><path d="m12.41 3.85s.02.2-.1.09c.06-.1.1-.09.1-.09z" fill="#3d3455"/><path d="m15.88 6.6s.05.06.05.06c-.75.35.11.06-.2.49-.01-.01-.22-.18-.3-.24-.03-.03-.19-.32-.28-.37-.08-.05-.14.06-.15.06-.04-.02-.06-.12-.13-.12-.09-.29-.35-.42-.58-.43-.27-.72-.57.19-.4-.67-.05-.01-.06.57-.38.12v-.06c.11-.07.24-.15.35-.18.07-.02.15.04.15-.06.61.27.27.39.33.43.09.05.2-.08.23-.03.02.03-.43.66.13.15-.09.28.34.27.65.49.09.07-.05.39.53.37z" fill="#201d1c"/><path d="m10.45 7.21s.18-.1.15-.24c.6-1.03-.08-.16-.5.18-.16.06-.04-.18.05-.49.15-.55.33-1.06.38-1.65.54 1.04.03 1.18.03 1.25 0 .05-.01.13.03.15.32-.43.45.18.55-.79.07 1.17.36-.6.38.03 0 .04-.08.47-.15.61.2-.07.18-.54.4-.31-.52.79-.93 1.39-1.58 2.05.02-.29.17-.55.28-.79z" fill="#f2f0f2"/><path d="m14.87 6.48c.06 0 .09.11.13.12 0 0 .07-.11.15-.06s.24.34.28.37c-.02.85.23.74.2.98-.24-.19-.57.06-.15.12v.06c-.41-.04-.27.85-.73-.12-.72.43.11-.74.2 0 .14.09.16-.63 0-.24-.01-.4-.64-.1-.5-.43.75.02.12-.13-.3-.18-.23.54-.7-.27.55-.12v-.12l-.48-.03c.44-.18.24-.37.65-.34z" fill="#7b7187"/><path d="m13.66 10.2c.06.05.09.05.15.06.35.08 1.08.05.28.31-.18.06-.24-.28-.28.49-.27.15.06-.27-.25-.43-.11-.05-.11.08-.13.06-.06-.05 0-.21-.05-.24-.02 0-.18.3-.25.31-.02 0-.02-.14-.1-.18s-.08.14-.1.12c-.06-.06 0-.31-.03-.4-.04-.14-.13.5-.15-.27 0-.06-.05-.07-.05-.12.08 0 .38.17.28.31.39-.09.23.17.68 0z" fill="#201d1c"/><path d="m10.1 7.15c-.55.45-1.16.78-1.68 1.28l-.03-.09 1.18-1.25c-.05.27-.72.91-.2.49.23-.18.5-.72.78-.92-.09.31-.22.54-.05.49z" fill="#ebe9ec"/><path d="m12.84 5.8c.54-.1-1.04 1.28-.18.7-.99 1.17-1.38 1.01-.2-.24.03-.58.03-.01.08.03.04.04.23-.47.3-.49z" fill="#f2f0f2"/><path d="m8.09 7.51c-.05.21-.21.47-.25.7-.04.2.12.12.1.24-.03.21-.33.93-.18.03-.37.94-.04 1.04-.03 1.1.07.34.09.64-.1.34-.34-.54.14-2.24.25-2.41 0 0 .08-.04.15-.12 0-.01.04 0 .05 0v.12z" fill="#ebe9ec"/><path d="m15.72 7.15c.2.2.33.28.3.34-.07.13-.33-.17-.35.12.7-.04.25.78-.2.46v-.06c.07.02.14-.04.15-.12.03-.23-.22-.12-.2-.98.08.07.29.23.3.24z" fill="#71677f"/><path d="m11.98 5.93c.12.27-.09.34-.15.55 1.26-.97-.05.27-.5.55.15-.28.43-.97.63-.89l.03-.21z" fill="#f2f0f2"/><path d="m13.24 5.8c.18.02-.2.37-.33.76h.2c-.06.08-.45.53-.48.52-.21-.07.47-1.29.6-1.28z" fill="#f2f0f2"/><path d="m11.35 7.51c-.22.22-.46.45-.75.46.42-.57 1.94-1.71.65-.49z" fill="#f2f0f2"/><path d="m8.82 8.37-.05 1.47c-.07 0-.27-1.24.05-1.47z" fill="#ebe9ec"/><path d="m8.82 7.33c.16.07-.83.87-.88.95.08-.45.54-.8.88-.95z" fill="#ebe9ec"/><path d="m10.6 6.96c-.04.08-.1.16-.15.24-1.11 1.82-.8.73.13-.37l.03.12z" fill="#f2f0f2"/><path d="m8.34 10.2c-.07-.13-.07-.29-.1-.43-.01-1.53.08-1.19.1.43z" fill="#9b92a4"/><path d="m13.24 6.72c.18.14-.59.67-.63.52z" fill="#f2f0f2"/><path d="m9.57 7.76-.35.67c-.16-.09.28-.6.35-.67z" fill="#dedbe0"/><path d="m11.03 7.88c.23-.04-.17.37-.43.4-.04-.09.4-.39.43-.4z" fill="#f2f0f2"/><path d="m12.23 7.45c.11-.03.04.12.03.15-.13.26-.45.21-.03-.15z" fill="#f2f0f2"/><path d="m8.26 8.06s.04.17.03.21c-.14.6-.32.2-.03-.21z" fill="#ebe9ec"/><g fill="#dedbe0"><path d="m9.42 8.43c.2 0-.08.38-.1.37-.08-.04.06-.36.1-.37z"/><path d="m9.47 8.86c.23.03-.07.33-.1.31-.1-.07.07-.31.1-.31z"/><path d="m9.37 9.77c.1-.05.03.2.03.21-.12.3-.21.2-.03-.21z"/><path d="m10.47 8.43s.1.11.08.15c-.14.26-.25-.19-.08-.15z"/></g><path d="m14.24 8.61c.12-.02.15.16.05.18-.12.02-.15-.16-.05-.18z" fill="#f2f0f2"/><path d="m13.82 10.26c-.06-.01-.09-.01-.15-.06.07-.03.17-.27.15.06z" fill="#dedbe0"/><path d="m10.42 7.88s.07 0 .08.03c.05.21-.35.07-.08-.03z" fill="#c3bdc8"/><path d="m12.71 9.9c0 .06.05.06.05.12-.16.03-.24-.1-.05-.12z" fill="#f2f0f2"/><path d="m8.46 8.98c.09 0 .08.04.08.15 0 .24-.1-.15-.08-.15z" fill="#dedbe0"/><path d="m9.07 8.67s.11.09.03.15c-.1.07-.11-.15-.03-.15z" fill="#f2f0f2"/><path d="m8.46 8.61s.09.18.05.18c-.11 0-.09-.16-.05-.18z" fill="#dedbe0"/><path d="m13.34 9.16s.1.09.05.12c-.13.08-.15-.11-.05-.12z" fill="#b1aab8"/><path d="m8.77 9.96c.11 0 .09.16.05.18 0 0-.09-.18-.05-.18z" fill="#a199a9"/><path d="m13.04 9.65s.1.09.05.12c-.13.08-.15-.11-.05-.12z" fill="#938a9d"/><path d="m10.93 9.77.03.03.03.03.03.03-.03.03h-.05l-.03-.03v-.06l.03-.03z" fill="#d6d2d9"/><path d="m14.09 9.96h.05l.03.03v.06l-.03.03-.03-.03-.03-.03-.03-.03.03-.03z" fill="#80768c"/><path d="m11.93 7.82.03.03v.06l-.03.03h-.05l-.03-.03.03-.03.03-.03.03-.03z" fill="#c7c2cc"/><path d="m11.35 7.51.1-.09c.02.13-.09.08-.1.09z" fill="#f2f0f2"/><path d="m12.89 7.33.03.03v.06l-.03.03h-.05l-.03-.03.03-.03.03-.03.03-.03z" fill="#f2f0f2"/><path d="m12.08 5.99s.13 0 .13.03c0 .07-.22.02-.13-.03z" fill="#c3bdc8"/><path d="m10.45 7.21c.05-.08.11-.17.15-.24.03.14-.14.23-.15.24z" fill="#685e77"/><path d="m13.82 11.06c.36-.69.02.04.3.34-.02.09-.37.16-.35.24.01.04.49-.07-.1.21-.12 0-.2 0-.3.09.17.11.29-.08.3-.09.53 0-.32.16-.33.37 1.16-.46 1.65-.54.33.03.91-.23.85-.03.03.21-.24.07.09-.21-.15-.12-.05.02-1.15.73-.9.37 1.35-.65.6-.58-.35 0-.19.12-.8.7-.95.79-.92.55-.02-.29.75-.85.01 0 .05.12.3-.06 1.31-.96 1.58-1.19-.13-.52.21-.32.34-.65.63-.89-.13.43.41-.31.68-.55.31.16-.02.58.25.43z" fill="#f2f0f2"/><path d="m13.87 15.33s.1 0 .15 0c.24.23.28 0 .4.09-.06.58-.62.9-.63.4-.43.28-.33-.17-.4-.18-.03 0-.26.49-.4.49-.3 0 .28-.32-.25-.49-.75.55-.63-.36-.33-.09-.32.29.84-.41.83-.7 0 1.07-.08.51.4.73.05-.11.12-.21.23-.24z" fill="#201d1c"/><path d="m10.4 12.09c-.21.23-.83.67-1.18 1.22 0-.92-.4 1.12-.6 1.4 0-.41.18-1.22.33-1.56.24-.55.93-1.07.75-1.13.47-.45.09-.01.28 0 .08 0 .22-.23.35 0 .32-.58.51-.41.08.06z" fill="#ebe9ec"/><path d="m11 12.95c-.14.15-1.15 1.2-1.23 1.22-.26.06.8-1.03.88-1.13.52-.71 1.42-2.55 1.33-1.8 1.06-.51-.69.58-.43.76-.21.33-.46.56-.65.92z" fill="#f2f0f2"/><path d="m13.41 14.11s.17-.02-.1-.43c-.06-.09-.17-.04-.2-.24.04 0 .45-.27.68 0 .25-.63.45.22.25.24-.03 0-.45-.45-.23.15 0 .02.3.16.3.24 0 .06-.57.39-.43-.09-.16.18-.17.97-.28.12z" fill="#6e647c"/><path d="m11.75 12.4c.07-.34-.2 0-.2.03.03.06.11 0 .2-.03-.04.23-.5.46-.75.55.45-.48 1.77-2.38 1.76-1.86l-.75.92.25-.06c-.17.2-.25.38-.5.46z" fill="#f2f0f2"/><path d="m8.82 13.07c-.44.85-.32 1.38-.6 2.02-.08-.24-.1-.51-.08-.76.05-.62.44-.78.68-1.25z" fill="#ebe9ec"/><path d="m13.31 13.68c.28.41.1.4.1.43-.33-.49-1.42.52-.65-.43.33-.01.4.12.55 0z" fill="#6b617a"/><path d="m13.11 13.44c.03.2.14.15.2.24-.15.12-.23-.01-.55 0-.11 0-.61.17-.53 0 .28-.21.56-.18.88-.24z" fill="#6e647c"/><path d="m10.83 12.34.08.09c-.92 1.24-1.04 1.06-.08-.09z" fill="#f2f0f2"/><path d="m15.15 11.85c.17.08.52.11.55.12.5.26-.23.41-.55-.12z" fill="#dedbe0"/><path d="m12.73 11.97c.32-.08-.27.4-.63.52.04-.19.53-.49.63-.52z" fill="#ebe9ec"/><path d="m9.42 13.19c.14 0-.21.66-.3.85z" fill="#dedbe0"/><path d="m9.67 13.68c.06.1-.18.49-.2.49-.07 0-.15-.26.2-.49z" fill="#dedbe0"/><path d="m10.83 13.19c.08.15-.2.32-.35.49l-.08-.09z" fill="#dedbe0"/><path d="m11.68 12.71c.05.04-.07.27-.08.27-.19.2-.33.1.08-.27z" fill="#f2f0f2"/><path d="m10.07 12.95c.07.08-.02.15-.1.24-.28.36-.3.18.1-.24z" fill="#f2f0f2"/><path d="m9.32 14.9c.09-.02.06.51-.05.43-.07-.05.03-.42.05-.43z" fill="#d6d2d9"/><path d="m14.14 11.55c.12-.02.17-.02.18.09 0 .16-.51-.04-.18-.09z" fill="#c7c2cc"/><path d="m11.13 13.8c.32-.14.06.25-.05.18-.07-.04.01-.17.05-.18z" fill="#dedbe0"/><path d="m14.02 15.33s-.11-.01-.15 0c-.02-.31.17-.31.15 0z" fill="#ebe9ec"/><path d="m16 13.74c.09-.07.15.26.05.24-.12-.02-.09-.21-.05-.24z" fill="#f2f0f2"/><path d="m14.85 11.85s.12.15.05.18c-.62-.09-.08-.19-.05-.18z" fill="#c7c2cc"/><path d="m14.54 12.03s.21.09.18.15c-.06.13-.37-.12-.18-.15z" fill="#c7c2cc"/><path d="m14.59 11.61.33.03c0 .1-.33.06-.33-.03z" fill="#f2f0f2"/><path d="m11.78 11.73s.04.08 0 .12c-.25.29-.12-.19 0-.12z" fill="#f2f0f2"/><path d="m9.67 13.44c.09.04-.09.25-.1.24-.09-.04.09-.25.1-.24z" fill="#f2f0f2"/><path d="m15.15 14.11s.11.08.05.18c-.09.16-.11-.14-.05-.18z" fill="#938a9d"/><path d="m10.57 15.21c.14-.04.18.33.03.09-.03-.04-.08-.07-.03-.09z" fill="#d6d2d9"/><path d="m15.1 12.28c.05-.02.13.08.13.09 0 .1-.2-.06-.13-.09z" fill="#c7c2cc"/><path d="m14.34 15.21h.05l.03.03v.06l-.03.03-.03-.03-.03-.03-.03-.03.03-.03z" fill="#cac5ce"/><path d="m13.66 11.85s-.13.21-.3.09c.1-.09.18-.09.3-.09z" fill="#685e77"/><path d="m11.75 12.4c-.09.03-.17.09-.2.03 0-.03.27-.37.2-.03z" fill="#685e77"/><path d="m8.99 25.77s-.05.05-.1.06c0-.35.09-.07.1-.06z" fill="#a199a9"/><path d="m13.14 20.83c.39-.04-.74.94-.78 1.01l1.18-.89.08.09-.6.55c1.12-.25-.03.21-.83.64-.06.03-.09-.09-.15-.06-.66.37-2.89 3.32-.95.31-.2.61.48-.26.6-.37.05-.04.1.1.15.06.4-.34.85-1.05.9-1.1.12-.1.24 0 .25 0s.09-.24.15-.24z" fill="#f2f0f2"/><path d="m10.75 21.87s.07-.07.1-.12c.13-.18.09-.22.1-.31.68-1.16.22-.38.38-.37.02 0 .08-.25.1-.24.01 0 .13.2.13.21 0 .07-.62.95.18-.09l.08.09c-.69 1.39-1.36 1.56-2.19 2.6-.24-.15 1.09-1.54 1.13-1.77z" fill="#f2f0f2"/><path d="m14.62 23.15s.06.04.1.06c.01 0 .15.2.23.24.03.02.54 0 .48.21-.03.12-.48-.14.2.61-.12.18-.88.57-.7.24 1-.42-1.01-.87-.1-.98-.58-.4-.67-.68-.2-.4z" fill="#504764"/><path d="m13.87 21.68c-.12 0-.6.2-.25.21-2.17 1.73-.47-.08-.18-.21.13-.06.31 0 .43 0z" fill="#f2f0f2"/><path d="m11.98 21.19.13.03c-.3.64.27-.23.4 0-1.21 1.01-1.64 1.75-.53-.03z" fill="#f2f0f2"/><path d="m13.84 21.99c.45-.03-.5.43-.25.55-.34-.15-.33.1-.4.12-.92.34.53-.66.65-.67z" fill="#f2f0f2"/><path d="m14.12 24.8c-.04-.12.33-.24.35-.24.46-.07.38 1.14.08.12-.12-.02-.25.28-.43.12z" fill="#554b67"/><path d="m10.72 22.66.08.03c-.57.85-.93.65-.08-.03z" fill="#f2f0f2"/><path d="m13.87 21.68c.22 0 .46-.05.65.09-.23.11-.62-.09-.65-.09z" fill="#f2f0f2"/><path d="m8.04 24.43s.13-.02.15.03c.02.06-.19 1.08-.15-.03z" fill="#c5c0ca"/><path d="m12.89 21.99c.2.02-.19.32-.23.21-.05-.15.21-.22.23-.21z" fill="#f2f0f2"/><path d="m10.27 23.27c.06-.02.09.02.08.09-.53.64-.12-.08-.08-.09z" fill="#d6d2d9"/><path d="m13.89 22.35c.47 0-.21.3-.18.09 0-.01.17-.09.18-.09z" fill="#c7c2cc"/><path d="m9.32 24.86c.09-.01.09.08.08.15-.09.47-.25-.13-.08-.15z" fill="#dedbe0"/><path d="m10.83 23.39s.07 0 .08.03c-.41.56-.21 0-.08-.03z" fill="#dedbe0"/><path d="m8.61 25.1c.1-.06.1.28.05.31-.01 0-.12-.26-.05-.31z" fill="#cac5ce"/><path d="m9.42 23.27s.07 0 .08.03c.07.3-.61.2-.08-.03z" fill="#dedbe0"/><path d="m11.63 22.84c.22-.1.04.23-.05.18-.07-.04.01-.17.05-.18z" fill="#c7c2cc"/><path d="m10.22 20.71c.11-.06.11.24 0 .18-.04-.02-.04-.16 0-.18z" fill="#dedbe0"/><path d="m12.38 22.23c.18-.02-.02.2-.05.18-.07-.03.02-.18.05-.18z" fill="#c7c2cc"/><path d="m14.72 23.21s-.07-.04-.1-.06c.07-.29.17-.17.1.06z" fill="#c7c2cc"/><path d="m12.63 22.72c.19-.03-.02.25-.08.09 0 0 .07-.09.08-.09z" fill="#c7c2cc"/><path d="m8.36 25.1c.1-.03.1.16.05.18-.02 0-.13-.16-.05-.18z" fill="#dedbe0"/><path d="m14.04 22.23s.18 0 .18.03c0 .07-.28.03-.18-.03z" fill="#ebe9ec"/><path d="m10.17 25.29s.04.24 0 .24-.04-.24 0-.24z" fill="#81778d"/><path d="m9.12 20.77s.04.18 0 .18-.04-.18 0-.18z" fill="#c7c2cc"/><path d="m13.94 21.19h.05l.03.03-.03.03-.03.03-.03.03-.03-.03v-.06l.03-.03z" fill="#c3bdc8"/><path d="m10.17 21.01s.04.18 0 .18-.04-.18 0-.18z" fill="#f2f0f2"/><path d="m9.22 25.29s.04.18 0 .18-.04-.18 0-.18z" fill="#c3bdc8"/><path d="m14.54 20.58h.05l.03.03-.03.03-.03.03-.03.03-.03-.03v-.06l.03-.03z" fill="#81778d"/><path d="m9.39 16c-.06.08-.17.26-.13.37.1-.1.12-.22.13-.37.38-.49-.04.72-.3 1.07.45.12-.12.08-.18.4.24-.08 1.14-.76 1.23-.89.05-.07-.05-.18-.05-.18.02-.04.2.14.33-.82.24.9-.2 1.81.3.61l-.03.4c.27-.8.47-1.69.3-.06.2-.04.09-.52.35-.37-.63 1.4.02.25.23-.4.17.2-.2.72.15.31-.37.94-2.61 3.39-.9.61l-1.46 1.77-.08-.03c.53-.78.37-.97-.05-.06-.07.16-.04.34-.05.37-.28.59-.25-.68.8-1.71-.42.41-.92.47-1.41.64-.27-.28-.06-.73-.05-1.13 0-.05-.1-.02-.1-.03.08-1.62.28-1.27.38.37.1-1.31.23-1.68.35-.55-.06-.38.26-1 .23-.31z" fill="#f2f0f2"/><path d="m11.96 17.71s-.1.02-.1-.03c0-.06.51-.76.78-.46.45-.49-1.37.07-1.31.43.66-.49.28-.13.28-.09 0 .02.17.03.08.15-.94.74-2.21 1.98-1.26.67.23.3.61-1.13 1.73-1.74-1.3.37.21-.33.65-.31-1.78 1.26-.53.77.35-.09 0 .03 0 .11.03.12.45-.25-.19.24-.18.27.01.05.33-.01-.05.24-.06.38 1.09-.9.7-.31.35.11-.07.05-.3.31 1.4.05-.22.06-1.41.82z" fill="#f2f0f2"/><path d="m12.33 20.03c.12.04.2 1.72-.05.61-.05.39-.62.17-.4-.18-.43.42-.08-.55.15-.12.16-.09.28-.31.3-.31z" fill="#201d1c"/><path d="m9.75 16.37s-.16.07-.08.18c.1-.08.07-.18.08-.18.4-.5.14.67-.45.52.12-.49.95-1.98.45-.52z" fill="#faf9fa"/><path d="m8.99 20.58c-.12-.66-.2-.07-.25-.34-.03-.15.06-.24.05-.4 0-.14-.03-.29-.05-.43.29.11.31.42.35.7 0 .03.16.19.05.49-.02.05-.13-.08-.15-.03z"/><path d="m11.96 17.71s.29-.09-.23.43c-.54.54-1.16.69-.25-.12.09-.08.36-.23.48-.31z" fill="#c7c2cc"/><path d="m13.54 17.16c.48 0-.48.22.25.31l-.88.21c.2-.21.35-.51.63-.52z" fill="#f2f0f2"/><path d="m10.17 17.59.08.03c-.61 1.09-.92.91-.08-.03z" fill="#f2f0f2"/><path d="m12.51 17.71s-.01.31-.5.4c.18-.42.45-.36.5-.4z" fill="#f2f0f2"/><path d="m10.07 18.51.08.03c-.58.96-.81.89-.08-.03z" fill="#d6d2d9"/><path d="m10.52 17.84.08.03c-.47.81-.65.72-.08-.03z" fill="#f2f0f2"/><path d="m9.32 18.81-.15.55c-.16-.16.11-.35.15-.55z" fill="#dedbe0"/><path d="m12.51 17.71c.11-.11.27-.36.45-.34-.11.22-.29.24-.45.34z" fill="#f2f0f2"/><path d="m9.57 18.51c.27-.13-.03.38-.05.37-.07-.05.02-.35.05-.37z" fill="#faf9fa"/><path d="m10.98 17.47c.17.09-.64.95-.03.03.01-.02.02-.03.03-.03z" fill="#f2f0f2"/><path d="m10.07 18.2s.07 0 .08.03c-.49.72-.21 0-.08-.03z" fill="#c3bdc8"/><path d="m14.14 17.04c.25-.02.13.16-.18.15-.03-.07.17-.15.18-.15z" fill="#f2f0f2"/><path d="m9.22 19.73c.1-.03.07.36-.05.31-.04-.02.04-.3.05-.31z" fill="#dedbe0"/><path d="m13.99 20.16c.12-.02.15.16.05.18-.12.02-.15-.16-.05-.18z" fill="#ebe9ec"/><path d="m12.89 20.16c.17-.01.02.35-.05.18-.02-.05.04-.18.05-.18z" fill="#ebe9ec"/><path d="m9.22 20.28c.16 0 .04.58.03.09 0-.01-.09-.09-.03-.09z" fill="#dedbe0"/><path d="m16.3 19.91c.14 0 .06.2-.03.15s0-.15.03-.15z" fill="#c3bdc8"/><path d="m11.73 18.26s.07 0 .08.03c.05.21-.35.07-.08-.03z" fill="#c3bdc8"/><path d="m13.94 16.13s.12.08.13.09c.03.19-.26-.03-.13-.09z" fill="#d6d2d9"/><path d="m13.16 16.25s0-.25.15-.15c-.02.06-.15.14-.15.15z" fill="#f2f0f2"/><path d="m14.44 18.81s.13.08.13.09c-.04.1-.24 0-.13-.09z" fill="#ebe9ec"/><path d="m13.04 20.16c.1-.03.1.16.05.18-.02 0-.13-.16-.05-.18z" fill="#dedbe0"/><path d="m15.95 19c.13-.08.15.11.05.12 0 0-.1-.09-.05-.12z" fill="#f2f0f2"/><path d="m11.63 16.49c.08.01-.05.25-.08.15-.02-.06.07-.15.08-.15z" fill="#c3bdc8"/><path d="m14.74 18.32h.05l.03.03v.06l-.03.03-.03-.03-.03-.03-.03-.03.03-.03z" fill="#938a9d"/><path d="m14.14 16.8s.13 0 .13.03c0 .07-.22.02-.13-.03z" fill="#f2f0f2"/><path d="m14.34 16.86s.13 0 .13.03c0 .07-.22.02-.13-.03z" fill="#c3bdc8"/><path d="m15.9 17.35.03.03v.06l-.03.03h-.05l-.03-.03.03-.03.03-.03.03-.03z" fill="#faf9fa"/><path d="m9.75 16.37s.03.1-.08.18c-.09-.11.07-.17.08-.18z" fill="#685e77"/><path d="m3.16 22.9c.12-.24-.11-.08-.3 0-.09-.36-1.18.14-1.53.49-.12.12-.25.33-.38.49-.09-.17 0-.21.1-.37.02-.03-.05-.09-.05-.09.03-.04.73-.42-.23-.03-.25-.14 1.1-.45 1.16-.49.32-.21-.57-.1-.95 0-.44.11-.67.37-.7.37-.7-.06 1.03-.5 1.03-.58-.13-.17-.79.2-1.11.27.26-.39.36-.26.75-.34l-.65-.09c1.1 0 2.16.07 3.27 0 .23-.02.34-.06.4-.06.33-.03.65-.09.98-.06v.12c-.61.03-1.22.06-1.78.37z" fill="#9b92a4"/><path d="m2.36 21.01c.03.05.16.41.13.49-.03.01-.29-.68-.43-.27-.05.14.68.9-.28.03-.35.25-.72.42-1.13.37-.95-.14.43-.25.63-.31.22-.07.24-.3.55-.18.09-.05.08-.29.13-.43.1-.05.37.24.4.31z" fill="#938a9d"/><path d="m2.31 25.47c-.14.18-.09.18-.1.18-.22.11-.38.15-.58-.06-.06.07-.08.14-.18.12-.02-.18.08-.29.15-.43.26.02-.17.56.28.06l.18.06c.06 0 .08-.07.1-.12.17-.14.16-.02.15.18z" fill="#81778d"/><path d="m8.99 20.58c.05.27.04.73.08.73l.2-.61c.25.53-.02.64-.03.67-.26.94-.55.21-.78 1.1-.12-.04.12-.99.13-1.16.03-.72-.31-1.57.23-.24.06-.16.1-.34.18-.49z" fill="#faf9fa"/><path d="m3.11 23.82c-.14-.13-.05.06-.2.12 0-.07.04-.3-.03-.37-.6.61-.64.92-.78 1.19-.07.14-.37-.15-.05.64l-.18-.06c-.45.5-.02-.04-.28-.06.04-.09.2-.29.2-.34 0-.25-.22.15-.2-.06.12-.18.78-1.27.8-1.34.02-.05 0-.1-.05-.09.1-.07.16-.23.3-.18-.09.11-.4.59-.23.67l.85-.92c.04.31-.1.53-.18.79z" fill="#c5c0ca"/><path d="m3.26 24.43-.28 1.04c-.2-.89-.08.56-.2-.12-.05.22-.3.11-.38 0 .1-.33.29-1.35.23-.31.18-.15.25-.42.38-.61 0 0 .1-.06.1-.06.06-.01.11.03.15.06z" fill="#a199a9"/><path d="m6.68 22.6c-.17.11-.2-.04-.5.24v-.06c-.33-.47-.79-.06-1.41.12.47-.46 1.24-.59.58-.61.03-.17-.05-.16-.13-.24v-.12c.11.11.13-.04.18 0 .17.53.85.51 1.28.67z" fill="#c5c0ca"/><path d="m3.51 24.43c-.15.48-.09.76-.13.79-.25.2-.03-.72-.13-.79-.05-.04-.09-.07-.15-.06.15-.25.21-.54.35-.67.04.17.04.34.13.31.94-1.21.04.05-.08.43z" fill="#cac5ce"/><path d="m2.86 24.31c-.01.14-.09.19-.03.24 0 0 .11-.15.13-.18l.05.06c-.12.2-.19.46-.38.61.06-1.05-.13-.02-.23.31.07.16-.09.11-.1.12 0-.21.02-.32-.15-.18.1-.27.05-.75.7-.98z" fill="#dedbe0"/><path d="m3.11 23.82c-.02.06-.02.31-.15.55-.02.03-.12.18-.13.18-.06-.06.01-.1.03-.24.01-.2.05-.29.05-.37.15-.06.06-.25.2-.12z" fill="#c5c0ca"/><path d="m5.27 23.58c.29-.26.52-.72.9-.79v.06c-.16.15-.56 1.02-.35 1.1-.28.22.05.06-.1.27-.05.08-.35.34-.45.46.5-.68.34-1.02 0-.31-.2-.05.02-.33-.08-.37-.05-.02-.26.63-.28.7-.26 1.56.84-.8.18.76.41.09.23-.43.4-.79-.04 1.01.04.32.18-.12.02-.05.05-.07.05-.12-.14 1.59.23.62.48-.12-.64 1.36-.2-.14.13-.37.02-.01.08.07.4-.09-.2.83-.02.37.05.61.02.07-.14.61 0 .95.11.27.08.03.1 0h.1c.01.22.25.29.05.43-1.61 0-3.22-.03-4.82-.18 0 0-.04 0 .1-.18.01-.01.17.03.1-.12.08.11.33.22.38 0 .12.68 0-.77.2.12l.28-1.04c.1.07-.12.99.13.79.04-.03-.03-.32.13-.79.01.09-.03.38.03.43.11.09.03-.33.18-.27-.14 1.09.11.8.15-.12.93-1.12-.24.41.13 1.01.08-.63.16-1.11.53-1.59.03-.04.19-.11.05-.18.09-.13 1.03-1.27 1.16-.95-.69.37-1.57 1.87-1.28 2.78.07-1.09.1-.28.23-.4.1-.58.4-1.04.6-1.56z" fill="#4b415f"/><path d="m5.27 24.68c-.05.06-.08.13-.13.18-.09-.05.09-.41.13-.49.34-.72.5-.38 0 .31z" fill="#ebe9ec"/><path d="m6.35 24.49c.06.02-.07.74-.3.73z" fill="#c5c0ca"/><path d="m5.65 23.33c.07.04-.1.48-.13.52-.35.49-.09-.4.13-.52z" fill="#ebe9ec"/><path d="m4.39 24.37c.06 0-.04.25-.05.24-.07-.02 0-.25.05-.24z" fill="#877d92"/><path d="m1.05 23.51c-.2-.18-.43.61-.23.61.08 0 .12-.23.13-.24.13-.16.26-.37.38-.49.36-.34 1.44-.85 1.53-.49-.49.2-1.17 1-.5.55.05 0 .07.04.05.09-.03.08-.69 1.16-.8 1.34-.01.21.21-.19.2.06 0 .05-.16.25-.2.34-.07.13-.17.25-.15.43-.14-.02-.31-.18-.33-.18-.25-.08.03.34-.33-.27.44-1.09-.37.38-.2-.55-.5-.1 0-.22-.4-.43.39-.73-.43-.66 0-1.31.32-.08.97-.45 1.11-.27 0 .08-1.73.52-1.03.58.04 0 .26-.26.7-.37.38-.1 1.28-.21.95 0-.06.04-1.41.35-1.16.49.95-.39.25 0 .23.03 0 0 .07.06.05.09z" fill="#ebe9ec"/><path d="m3.16 22.9c-.18.1-.36.19-.5.37-.15-.05-.2.12-.3.18-.67.45.01-.35.5-.55.19-.08.42-.24.3 0z" fill="#877d92"/><path d="m1.83 23.82c.06-.02.14-.01.13.09-.98 2.07-.32-.02-.13-.09z" fill="#c5c0ca"/><path d="m1.05 23.51c-.09.16-.19.19-.1.37 0 .01-.05.24-.13.24-.2 0 .03-.79.23-.61z" fill="#c5c0ca"/><path d="m2.91 23.94c0 .07-.04.17-.05.37-.65.23-.61.71-.7.98-.02.06-.04.12-.1.12-.32-.79-.02-.5.05-.64.14-.27.17-.58.78-1.19.06.07.03.29.03.37z" fill="#ebe9ec"/><path d="m13.36 23.21c-.1 0-.14.18-.15.18-.03.02-.2.01-.2.15 0 .03.24.41.25.15.01.02.11-.03.15.03.08.14.23.73.25.76-.19.35.1 1.07-.3.64-.04.85.02.47.45.21h.1c.07 0 .11-.16.18-.12.06.03-.05.12.18.18.25.06.13-.03.2-.06 0 0-.02-.11.03-.12.17.03.79.23.8-.06.16.4.38-.05.45-.06.05 0 .15.12.43.06.13.37 2.1.1 2.44.24.04.02.03.08.03.12-.57.02-1.33-.09-1.31.12-.45 0-.9.05-1.36.06-.7-.2-4.89.23-5.15.06-.03-.02.04-.36.05-.37.02-.01-.02.18.4.18.24-.71.36-.02.4 0s.15-.2.2-.18c.04 0 .18.52.6.06.76.42.21-1.15.65-.06.05-.02-.06-.73-.08-.76-.15-.29-.2.23-.48-.7-.16.46-.53.7-.53.46.39-.2-.32-.37.58-.58.54-.85.61-.57.73-.61z" fill="#181b15"/><path d="m14.47 25.35c-.07.03.05.12-.2.06.04-.07.06-.18.08-.18s.07.12.13.12z" fill="#dedbe0"/><path d="m13.92 25.35h-.1c.22-.14.05 0 .1 0z" fill="#ebe9ec"/><path d="m13.36 24.19c-.17.08-.12.31.05.31.09 1.08-.24.12-.2-.34-.63-.09-.03-.32.15.03z" fill="#685e77"/><path d="m13.41 24.49c-.17 0-.22-.23-.05-.31 0 .01.05.26.05.31z" fill="#dedbe0"/><path d="m8.39 21.07c-.32.65.24 1.01-.4 1.47-.01 0-.04 0-.05 0v-.31c.04-.27-.06-.4-.1-.61 0-.02 0-.04 0-.06-.07-.33-.15-.63-.3-.92.03-.04.11-.43.13-.43.33.38.33.75.5 1.22-.06-1.1-.23-1.15.23-.37z" fill="#f2f0f2"/><path d="m10.95 21.44s-.24.22-.1.31c-.03.05-.07.08-.1.12-.01.01-.11-.02-.13 0-.35.46-1.32 1.48-1.41 1.53-.06.03-.09-.03-.08-.12.1-.14.08-.17-.05 0-.57.74-.26 1.34-.48 1.71-.21-2.2 1.35-2.23 1.46-3.42-.47.94-1.55 1.81-.98.95l-.08-.03c-.69 1.08-.23.44-.23.7 0 .07-.32.4-.4 1.28 0 .05.1-.02.1.12-.02.68-.24.28-.2-.24.02-.33.32-1.25-.25.09-.05.12-.19.19-.15.37-.05-.67.28-.86.6-1.37-.05-.13-.54.15-.58.76-.38-.68.77-1.26.93-1.56.46-.83-.1-.06-.13-.03-.05.05-.77.53-1.03.73-.28.22-.07-.03-.13-.06-.26-.16-1.01.74-.65.85.05.01.28-.87.53-.64-.51.7-.03.93-.2 1.25 0-.02-.03-.21-.05-.34-.1-.12-.17.26.05.58.07.1.07.16.2.12.02.1.04.13.05.18-.14.08-.54-.58-.5.12-.04 0-.09 0-.1 0 .08-.41.15-.45.15-.92 0-.02 0-.04 0-.06 0-.26.07-.36-.05-.06 0 0 0-.03-.05.12-.11.4-.08.54-.15.92-.14-.34.02-.87 0-.95-.07-.24-.25.22-.05-.61-.33.16-.38.08-.4.09-.15-.71-.25-.08-.28-.06s-.02-.1-.23.06c-.21-.08.19-.95.35-1.1.3-.28.33-.13.5-.24.19-.27.68-.16.7-.64-.27.09-.27-.15-.4-.34-.09-.13-.54-.76-.38-.92l.95 1.28-.53-1.25.8.82s0 .04 0 .06c-.33-.3-.05.68.1.61v.31c-.99.72-.62.62.05 0 .64-.45.08-.82.4-1.47.02.03.15.21.2.24 0 .17-.24 1.12-.13 1.16.23-.89.51-.16.78-1.1.24.91.37.18.4.12.2-.35.35-.73.3-1.16.18.93.08.96.1 1.01.13.25.55-.78.48-1.37.1.38.16.63.18.89.57-.55-.72 1.69.28.21.05.02-.01.3-.03.37z" fill="#ebe9ec"/><path d="m9.14 23.27h-.05c.13-.17.15-.14.05 0z" fill="#9b92a4"/><path d="m7.03 24.49c0 .47-.07.51-.15.92-.02.03.01.27-.1 0 .07-.38.04-.51.15-.92z" fill="#564c68"/><path d="m7.68 23.33c.14.18-.34.66-.35.7-.01.05.09 1.02.1 1.07-.13.03-.13-.02-.2-.12.28-.1.07-.04 0-.24.17-.33-.31-.55.2-1.25-.25-.23-.48.66-.53.64-.36-.11.39-1.01.65-.85.05.03-.16.28.13.06z" fill="#a199a9"/><path d="m6.38 23.39c.1-.1.2-.18.3-.27-1.3.32.15-.34.65-.43-.38.5-.72.62-.7.67.02.04.54-.07.18.15-.46.28-.11-.21-.43-.12z" fill="#584e6a"/><path d="m7.94 22.54s.04 0 .05 0c-.67.62-1.04.72-.05 0z" fill="#766c83"/><path d="m7.84 21.62c.04.21.14.34.1.61-.15.07-.43-.91-.1-.61z" fill="#c5c0ca"/><path d="m7.23 24.74c.07.2.28.14 0 .24-.22-.32-.15-.7-.05-.58.03.12.04.32.05.34z" fill="#4b415f"/><path d="m8.36 22.48c.23.22-.17.33-.23.21-.07-.13.21-.02.23-.21z" fill="#625872"/><path d="m6.55 23.64c.23-.1.4.18-.05.12-.05-.02.02-.11.05-.12z" fill="#3d3455"/><path d="m10.85 21.74c-.14-.08.09-.28.1-.31-.01.09.02.12-.1.31z" fill="#685e77"/><path d="m9.22 21.87c.19-.03.01.34-.08.15 0 0 .07-.15.08-.15z" fill="#685e77"/><path d="m7.03 24.43-.05-.06c.12-.3.04-.2.05.06z" fill="#534a66"/><path d="m7.36 22.35s.1.01.05.12c-.07.15-.12-.07-.05-.12z" fill="#4b415f"/><path d="m7.03 24.43s0 .04 0 .06h-.1c.04-.15.05-.12.05-.12z" fill="#877d92"/><path d="m6.86 24.19s.04.18 0 .18-.04-.18 0-.18z" fill="#6c627b"/><path d="m6.38 23.39s.12.13-.03.12c-.05-.05-.05-.1.03-.12z" fill="#81778d"/><path d="m7.89 24.8c0 .13.17.1.05.76.52.08-.24.68-.45-.27-.01-.05-.03-.08-.05-.18 0-.05-.11-1.02-.1-1.07s.49-.52.35-.7c.26-.21.98-.69 1.03-.73.03-.03.58-.8.13.03-.16.3-1.31.88-.93 1.56.04-.62.53-.9.58-.76-.33.51-.65.71-.6 1.37z" fill="#584e6a"/><path d="m7.71 23.76s.06.19-.05.18c-.04 0 .04-.19.05-.18z" fill="#dedbe0"/><path d="m7.51 24.74s.04.18 0 .18-.04-.18 0-.18z" fill="#ebe9ec"/><path d="m14.47 24.55s-.39.13-.35.24c-.06-.05-.1-.04-.15-.06-.04-.57-.05-.09-.25-.12.02-.14-.05-.12-.05-.12-.02-.04-.17-.62-.25-.76-.04-.06-.14-.02-.15-.03-.11-.16-.15-.14-.15-.15s.1-.08.1-.15c0 0 .05-.18.15-.18.12-.04.23-.07.35-.09-.36-.41.57-.4.2-.12.29.6.35.18.45.37.05.1-.21.25-.2.31 0 .11.39.44.3.89z" fill="#554b67"/><path d="m13.97 24.74s-.29.08-.25-.12c.21.03.21-.45.25.12z" fill="#554b67"/><path d="m13.21 23.39c0 .07-.11.14-.1.15 0 .01.04 0 .15.15 0 .25-.25-.13-.25-.15 0-.14.17-.13.2-.15z" fill="#80768c"/><path d="m13.89 23.58c.12 0 .13.24.05.24-.05 0-.18-.24-.05-.24z" fill="#c7c2cc"/><path d="m5.22 22.05c.08.08.16.08.13.24.66.02-.11.15-.58.61-.1.03-.16.3-.2-.06 0 0 .12-.07.1-.09-.06-.1-1 .42-1.06.7-.12-.01-.15-.11-.2-.03.12.26.05.26.05.27-.15.13-.2.42-.35.67 0 0-.1.06-.1.06l-.05-.06c.13-.24.13-.49.15-.55.08-.26.22-.48.18-.79l-.85.92c-.17-.09.13-.56.23-.67.15-.17.32-.27.5-.37.57-.3 1.17-.34 1.78-.37v-.12c-.33-.03-.65.03-.98.06-.03-.1-.2-.21-.28-.24-.76-.38-.82-.13-.13.31-1.11.07-2.16 0-3.27 0-.14-.05-.09-.22-.1-.24.08.2.96-.56.73-.61-.13.09-.24.05-.28.06v-.12c.41.06.78-.11 1.13-.37.95.87.23.11.28-.03.14-.4.4.29.43.27.04-.08-.09-.43-.13-.49 0-.07.05-.06.05-.06.41-.06 1.07 1.23.7.09.08-.14 1.65 1.26.35 0-.25-.77.33.16.38.15s-.02-.2.1-.18c.06 0 .11.65.5.61.06-.08-.65-1.31-.2-1.16.03.01.01.99.15.49.48.53-.02.16.08.52.11.42.3.03.33.03s0 .11.43.55z" fill="#f2f0f2"/><path d="m.2 22.29s-.12.01-.13 0v-.12c.22-.04.51-.4.58-.43.03-.01.14.02.28-.06.23.05-.65.81-.73.61z" fill="#b1aab8"/><path d="m3.97 22.48c-.06 0-.17.05-.4.06-.7-.44-.63-.69.13-.31.07.04.25.15.28.24z" fill="#c5c0ca"/><path d="m4.57 22.84c-.19.06-.82.73-.88.73-.04 0 0-.12-.08-.12.05-.28.99-.8 1.06-.7.02.03-.1.08-.1.09z" fill="#6e647c"/><path d="m3.01 22.42c-.23-.02-.64-.2-.6-.27.1-.22.48.34.3-.15.01.02.23.17.3.43z" fill="#ebe9ec"/><path d="m3.01 22.42c-.07-.26-.29-.4-.3-.43-.52-.95.36.2.5.46-.09.1-.16-.03-.2-.03z" fill="#81778d"/><path d="m3.39 21.5c.05-.03.2.15.18.21-.05.12-.27-.15-.18-.21z" fill="#c7c2cc"/><path d="m2.69 21.32c.25.08.29.23.1.18-.01 0-.15-.15-.1-.18z" fill="#978ea0"/><path d="m3.99 20.77c.34.58.33.96.08.34-.02-.06-.18-.29-.08-.34z" fill="#f2f0f2"/><path d="m6.18 22.78c-.38.08-.62.53-.9.79.21-.55.09-.47-.2-.03-.49.72-.42 1.09.2.03-.2.52-.5.98-.6 1.56-.13.11-.16-.69-.23.4-.29-.91.6-2.41 1.28-2.78-.12-.32-1.07.81-1.16.95-.02.04-.15.03-.05.18-.37.48-.45.95-.53 1.59-.37-.6.8-2.13-.13-1.01-.04.93-.29 1.21-.15.12-.15-.06-.06.36-.18.27-.06-.04-.01-.33-.03-.43.12-.38 1.02-1.64.08-.43-.08.04-.09-.14-.13-.31 0-.01.07-.02-.05-.27.05-.08.08.02.2.03.08 0 .04.12.08.12.06 0 .69-.67.88-.73.04.36.1.09.2.06.62-.18 1.08-.59 1.41-.12z" fill="#dedbe0"/><path d="m4.52 23.88c-.1-.15.03-.15.05-.18.14.08-.02.15-.05.18z" fill="#a199a9"/><path d="m4.9 22.97s.16-.01.18.03c-1.37 1.38-.62.1-.18-.03z" fill="#665c76"/><path d="m5.27 23.58c-.62 1.06-.69.69-.2-.03.29-.44.42-.52.2.03z" fill="#665c76"/><path d="m6.33 23.94c-.33.23-.76 1.72-.13.37-.25.74-.62 1.71-.48.12-.1-.04-.16.1-.05.12-.14.44-.21 1.13-.18.12-.17.36.01.89-.4.79.67-1.56-.43.8-.18-.76.01-.07.23-.72.28-.7.1.04-.12.32.08.37-.04.08-.21.44-.13.49.05-.06.08-.12.13-.18.1-.11.4-.38.45-.46.15-.22-.18-.06.1-.27.21-.16.19-.04.23-.06.03-.02.13-.65.28.06z" fill="#c5c0ca"/><path d="m5.73 24.43s-.03.07-.05.12c-.11-.03-.05-.17.05-.12z" fill="#dedbe0"/><path d="m6.05 24.06c.08.01-.05.25-.08.15-.02-.06.07-.15.08-.15z" fill="#6c627b"/><path d="m6.48 21.62c-.03-.15-.09-.3-.15-.43.21.1.43.56.65.43.13.19.13.43.4.34-.02.48-.51.37-.7.64-.44-.16-1.11-.14-1.28-.67-.05-.04-.07.11-.18 0-.21-.21-.81-1.03-.83-1.34 1.07 1.44 1.08 1.92.5-.06l.7.85c-.08-1.22.63.51.1-.12l-.03.09c.19.21.77.88.48.21.43.4 1.34.93.33.06z" fill="#f2f0f2"/><path d="m4.8 20.95c.08-.04.29.65.05.18-.02-.04-.14-.14-.05-.18z" fill="#f2f0f2"/><path d="m6.6 21.19s.13.14.13.15c-.04.12-.23-.11-.13-.15z" fill="#f2f0f2"/><path d="m6 21.87s.45.35.6.24c.29.41-1.18-.24-.6-.24z" fill="#ebe9ec"/><path d="m6.33 21.19c.06.13.12.28.15.43l-.25-.4c0-.15.03-.07.1-.03z" fill="#4b415f"/><path d="m3.06 16.31-.05.09c0 .11.91.72.05-.09.66.01 1.07.64 1.13.61-.18-1.03.62.67.05-.85l.58.89c-.49.05.1.04.3.58-.02.07-.15.14-.2.12-.02 0 .13 0-.3-.12-.04-.01-.12-.2-.73-.18-.35-.29-1.77-1.61-.73-.46l-.35-.03c-.4-.55-.92-.87-.4-.24.04.23.15.26.03.49.68.31.91.21.03.37-.13.02-.23.02-.4.06.07-.16.4-.2.03-.37-.12-.05.03.11-.13.12-1.68-.76.2.11-1 0-.38-.17-.19-.35-.2-.37.02-.41.18-.28.35-.24.38.07.44.37.65.31.2-.06-.25-.69.3-.4.02-.22-.4-.04.08-.58.34.42.58.42.18-.06 0-.07.14-.1.15-.12.24.09.41.31.6.49z" fill="#f2f0f2"/><path d="m2.31 15.94c.4.48.16.48-.18.06-.47.54-.05.36-.08.58-.55-.29-.1.34-.3.4.02-.62-.46-.69-.65-.31-.17-.03-.33-.17-.35.24-.22-.33-.34-.24-.38-.43.48-.15.98-.3 1.43-.55.05-.03.1.01.13.06-.05-.43.18-.29.38-.06z" fill="#b1aab8"/><path d="m2.81 18.81c-.18.55-.13 1.18.15 1.1.04.16.14.16.1.27 0 .02-.38-.22-.2.18.05.12.16-.11.2-.09 0 .12-.01.25 0 .37l-.05.31c-.05.11.03.1-.03.18-.29-.28-.01-.5-.03-.58-.19-.13-.14-.24-.2-.52-.03-.17-.21-.42-.18-.92-.13.41-.28.64-.33 1.1v.31c0 .02-.18.15.15.37v.06s-.06-.01-.05.06c-.04-.06-.3-.36-.4-.31.15-.49.21-1.07.45-1.56.11-.23.6-.95.4-.34z" fill="#c5c0ca"/><path d="m4.62 17.59c-.42.18-.57.28-.9.55-.73.58-.56.56-.65 1.16-.02.11.02.26 0 .37-.31-.33.04-1.28.25-1.59.4-.57.76-.38 1.31-.49z" fill="#4b415f"/><path d="m2.46 17.47c.04.22-.2.01-.58.24-.2.12-.55.75-.83.79.18-.35.4-.55.6-.85.09-.17.13-.05.4-.12.17-.04.27-.04.4-.06z" fill="#6e647c"/><path d="m3.21 19.79.05 1.07c-.16-.06-.09-.53-.2-.58-.04-.02-.15.21-.2.09-.18-.4.19-.16.2-.18.04-.11-.06-.11-.1-.27.07-.02.09-.17.1-.24.02-.11-.02-.26 0-.37.07.15.1.33.15.49z" fill="#877d92"/><path d="m1.96 17.29c-.32.03-.69.14-1 0 1.2.11-.67-.76 1 0z" fill="#b5afbc"/><path d="m7.99 19.3c-.11.85-.08-.25-.08-.55-.39.73-.37 1.42-.23.7h.1l.08.82c-.2-.78-.32.23-.38-.52-.05-.69.66-1.29.15-1.04l-.25.64s-.08.02-.05-.21c.02-.11.46-1.02-.03-.27-.17.1.05-.38.25-.61.5-.57 2.7-.99.68.03l.2.06c-.31.34-.39.46-.45.95z" fill="#ebe9ec"/><path d="m7.79 17.47c.01.13-.03.24.05.37-.38.15-.32.13-.6.37-.19.16-.47.52-.15.03 0-.35-.4.54-.45.61l.03.09c.74-.97-.31.66-.05.73.13-.36.31-.68.48-1.01.03-.06-.05-.12-.05-.12.03-.06.14-.02.15-.03-.01.51.05.56-.1 1.1 0 .02-.17-.1-.1.31-.35.32.1-1.07-.2-.52-.01.03-.15.58-.15.61-.05.56.08.17.13.21.15.14-.15.28-.2.24-.29-.22-.11-1.95.53-2.63 0-.01.21-.01.25-.09-.19-.18-.22.07-.25.09-.08.06-.11.08-.2.12-.02-.22.14-.35.3-.43l.48.12-.08-.18h.2z" fill="#dedbe0"/><path d="m8.39 16.55c-.01.37-.16.78-.15 1.16-.17.06-.28.05-.3.06 0-.16 0-.33 0-.49 0-.21 0-.52 0-.55-.04-.54-.25-1-.03-1.22.36 1.01.17 1 .35-.31.06 0 .13 1.1.13 1.34z" fill="#f2f0f2"/><path d="m9.95 20.34c.05.43-.11.81-.3 1.16-.24-.06-.11-.97-.1-1.31.52-.46.21-.87.4.15z" fill="#201d1c"/><path d="m7.23 14.78c.05.55.34.84.5 1.34.08.25.08.58.2.61v.55l-.15.12c-.01-.14-.07-.91-.1-.95-.1-.13-.19.17-.25-.27 0-.01.1-.08.05-.27-.08-.33-.25-.44-.35-1.13z" fill="#c5c0ca"/><path d="m8.64 19.18c-.03.14-.03.23-.05.37s-.04.29-.08.43c-.17 0 .14-1.87-.18-.85-.38-.17.81-1.4.75-.95 0 .06-.25.08-.45 1.01z" fill="#ebe9ec"/><path d="m7.23 18.2c.15.12.07.12-.05.31 0 .02-.12-.03-.15.03 0 0 .08.06.05.12-.17.33-.35.65-.48 1.01-.26-.07.79-1.7.05-.73l-.03-.09c.06-.07.46-.96.45-.61-.32.49-.04.13.15-.03z" fill="#665c76"/><path d="m8.59 17.65s-.22.02-.35.06c0-.38.14-.79.15-1.16l.05-.06s.1-.02.1.03c-.01.4-.22.85.05 1.13z" fill="#c5c0ca"/><path d="m8.74 19.42c.02.14.04.29.05.43l-.2-.31c.02-.14.02-.22.05-.37.16-.25.07.01.1.24z" fill="#a199a9"/><path d="m7.94 17.29v.49s.03 0-.1.06c-.08-.12-.04-.24-.05-.37 0-.02 0-.04 0-.06z" fill="#c5c0ca"/><path d="m4.92 17.65c-.11.2.07.13.15.24-.14.1-.41.11-.53.18-.53.33-.88 1.73-.63 1.28-.05.15-.12 1.27-.2.61s.21-1.42.6-1.86c-.05-.19-.63.67-.65.73-.22.51-.21 1.29-.3.92-.03-.1.07-.45.1-.58.16-.83.46-.89.45-.95-.01-.1-.12.03-.15.03 0 0-.04-.1-.05-.12.34-.27.49-.37.9-.55v-.06c.44.12.28.12.3.12z" fill="#ebe9ec"/><path d="m4.62 17.53v.06c-.55.11-.91-.08-1.31.49-.47.28.09-.21-.08-.31-.27.38-.64.69-.88 1.1-.47.27-.34.8-.35.85-.04.23-.06 1.42-.43 1.1-.06-.05 0-.25-.03-.27-.05-.05-.39.18-.3-1.07.29-.27.29-.09.38-.12.08-.03.24-1.31 1.03-1.47-.22.18-.39.45-.6.64-.01.32.68-.72.3 0 .1.2.41-.52.75-.85-.03-.08-.3.06-.35.09-.41.01-1.8.97-1.76 1.59-.84.98-.33.22-.25.03.12-.29.22-.72.3-.89.27-.05.63-.67.83-.79.38-.23.61-.02.58-.24.88-.16.66-.06-.03-.37.13-.23.01-.26-.03-.49.08.1.55.61.6.46-.08-.07-.13-.12-.2-.21l.35.03c-1.04-1.15.38.17.73.46.61-.01.69.17.73.18z" fill="#c5c0ca"/><path d="m2.76 17.77s-.01.05-.1.12c-.79.16-.95 1.43-1.03 1.47-.09.04-.09-.15-.38.12.85-1.41.51-1-.25-.12-.04-.62 1.35-1.58 1.76-1.59z" fill="#81778d"/><path d="m2.36 18.87c-.06.11-.25.65-.35.85 0-.05-.12-.58.35-.85z" fill="#8e8498"/><path d="m2.66 17.9c.09-.07.09-.12.1-.12.05-.03.32-.17.35-.09-.34.33-.65 1.05-.75.85.38-.72-.32.32-.3 0 .21-.19.38-.46.6-.64z" fill="#6e647c"/><path d="m2.81 16.86c.07.09.12.14.2.21-.06.15-.52-.36-.6-.46-.52-.63 0-.31.4.24z" fill="#9b92a4"/><path d="m3.29 17.29c.48-.15.56.57-.13.09.04 0 .11-.09.13-.09z" fill="#c5c0ca"/><path d="m1.76 16.98c-.22.06-.27-.23-.65-.31.2-.39.68-.32.65.31z" fill="#ebe9ec"/><path d="m3.06 16.31c.85.81-.05.2-.05.09z" fill="#938a9d"/><path d="m2.76 20.03c-.23.15.22.7-.15.52.04.8-.05-.26-.2.34-.33-.22-.15-.34-.15-.37.11-.06.11-.25 0-.31.05-.46.2-.69.33-1.1-.03.49.14.75.18.92z" fill="#a199a9"/><path d="m2.26 20.52c0-.1 0-.21 0-.31.11.06.11.25 0 .31z" fill="#605671"/><path d="m3.72 18.14s.04.12.05.12c-.36.34-.38.47-.45.98-.03.18-.05.55-.05.73.02-.08-.03-.12-.05-.18-.05-.16-.08-.34-.15-.49.09-.6-.08-.58.65-1.16z" fill="#ebe9ec"/><path d="m9.39 16c0 .15-.03.27-.13.37-.05-.11.07-.29.13-.37z" fill="#685e77"/><path d="m7.99 19.3c.32-.68.18.17.28.18.06-.12.06-.32.08-.37.31-1.02 0 .86.18.85.04-.14.06-.28.08-.43l.2.31c.01.16-.08.25-.05.4.05.27.13-.32.25.34-.07.15-.11.33-.18.49-.54-1.32-.19-.47-.23.24-.05-.04-.18-.21-.2-.24-.45-.78-.29-.73-.23.37-.17-.48-.18-.84-.5-1.22-.02 0-.1.39-.13.43-.17.22-.51-.46-.55-.73-.07-.41.09-.28.1-.31.12.75.21.24.3-.24l.25-.64c.5-.25-.2.35-.15 1.04.05.75.18-.26.38.52l-.08-.82h-.1c-.15.72-.16.02.23-.7 0 .3-.04 1.4.08.55z"/><path d="m8.82 20.52s.04.24 0 .24-.04-.24 0-.24z" fill="#dedbe0"/><path d="m7.08 17.84s.06-.27.25-.09c-.04.08-.24.08-.25.09z" fill="#4b415f"/><path d="m5.12 16.92c.14.12.5.82.55 1.1-.24.15-.45.3-.6.58.02.25.33-.51 0 .34 0 0-.02 0-.1.18-.05.13-.17.83-.25.4-.07-.4.52-1.49.15-.98-.35.47-.19.99-.4.92-.06.76.18.93-.05.64-.05-.11-.02-.27-.05-.37-.03-1.23.99-1.69 1-1.8-.18-.59-.79-1.48-.25-1.01z" fill="#ebe9ec"/><path d="m3.72 19.97c-.33-.07-.14.48-.23.55-.1.08-.22-.25-.23-.55 0-.18.02-.55.05-.73l.15-.06c-.03.13-.13.48-.1.58.09.38.08-.41.3-.92.03-.06.6-.92.65-.73-.39.45-.68 1.21-.6 1.86z" fill="#877d92"/><path d="m5.73 18.69c-.1.33-.48.83-.5 1.07-.03.34.14.64.15.34.23 0 .18-.46.35-.73.11.12-.06.15.03.31.27-.72.87-.84.65-1.04-.5.45.33-.34-.53.15l.75-.7c.12-.05.15-.07.25-.12.09-.04.12-.07.2-.12-.64.68-.82 2.4-.53 2.63.05.04.35-.11.2-.24-.04-.04-.18.35-.13-.21 0-.03.14-.58.15-.61.3-.55-.15.84.2.52.05.28.38.95.55.73.16.28.24.59.3.92l-.8-.82.53 1.25-.95-1.28c-.17.15.28.78.38.92-.23.13-.45-.33-.65-.43-.61-1.39-.63-.15.08.49.06.05.07-.06.08-.06 1.01.87.1.34-.33-.06.29.66-.29 0-.48-.21l.03-.09c.53.63-.18-1.1-.1.12l-.7-.85c.58 1.98.57 1.5-.5.06.02.31.62 1.14.83 1.34v.12c-.43-.44-.4-.55-.43-.55-.02 0-.22.39-.33-.03-.09-.35.4 0-.08-.52-.14.5-.12-.48-.15-.49-.44-.15.26 1.08.2 1.16-.39.04-.44-.6-.5-.61-.12-.02-.05.17-.1.18-.04.01-.63-.93-.38-.15 1.3 1.26-.27-.14-.35 0 .37 1.13-.3-.15-.7-.09 0 0 0-.04 0-.06.15-.59.24.46.2-.34.37.18-.08-.36.15-.52.06.28.01.39.2.52.01.08-.27.3.03.58.06-.09-.02-.08.03-.18 0 0 .09.02.1-.03.03-.31-.05-.26-.05-.27-.01-.12 0-.25 0-.37.11.05.04.52.2.58l-.05-1.07c.02.07.07.1.05.18 0 .3.12.63.23.55.09-.07-.11-.62.23-.55.08.66.16-.46.2-.61.07-.31.08 1.15.15.64 0-.01-.08-.05-.05-.24.15-.94.1-.16.15 0 .03.09.19.26.25.34.23.28 0 .11.05-.64.21.08.06-.44.4-.92.37-.51-.23.58-.15.98.08.43.2-.26.25-.4.08.39-.25.99.1 1.25v-1.44c.33-.84.02-.08 0-.34.15-.28.36-.43.6-.58.07-.04.05-.06.05-.06.13-.07 1.14-.41 1.16-.34-.19.17-1.16.42-1.21.67-.03.18.14.01.15.06.02.12-.13.09-.15.18-.03.16.05.14.05.15z" fill="#4b415f"/><path d="m6.33 21.19c-.07-.04-.1-.12-.1.03l.25.4s-.02.11-.08.06c-.7-.64-.68-1.88-.08-.49z" fill="#f2f0f2"/><path d="m6.81 20.64s.14.22.13.27c-.02.1-.24-.22-.13-.27z" fill="#a199a9"/><path d="m3.01 20.95.05-.31s.08-.04.05.27c0 .05-.1.02-.1.03z" fill="#a199a9"/><path d="m6.63 18.08-.75.7c.86-.49.02.3.53-.15.22.2-.39.32-.65 1.04-.09-.15.08-.19-.03-.31-.17-.18-.37.52-.35.73 0 .31-.18 0-.15-.34.02-.24.4-.74.5-1.07.72-.96.85-.59.9-.61z" fill="#dedbe0"/><path d="m4.97 19.12c.08-.19.1-.17.1-.18v1.44c-.35-.26-.02-.87-.1-1.25z" fill="#c5c0ca"/><path d="m5.73 19.36c-.17.28-.12.74-.35.73-.01-.21.18-.91.35-.73z" fill="#a199a9"/><path d="m6.15 19.3c.02.13-.26.91-.3.92-.28 0 .22-.79.3-.92z" fill="#c5c0ca"/><path d="m5.6 20.16c-.06.59.08.55.08.58-.03.4-.44-.25-.08-.58z" fill="#dedbe0"/><path d="m3.84 20.34s.07.24.08.27c.01.41-.19-.26-.08-.27z" fill="#9b92a4"/><path d="m6.15 20.16s.13.2.05.24c-.09.05-.1-.21-.05-.24z" fill="#9b92a4"/><path d="m5.5 18.45h.05l.03.03-.03.03-.03.03-.03.03-.03-.03v-.06l.03-.03z" fill="#c7c2cc"/><path d="m5.5 18.75h.05l.03.03-.03.03-.03.03-.03.03-.03-.03v-.06l.03-.03z" fill="#c7c2cc"/><path d="m4.62 15.76s0-.04.05.12c-.16.13.12.39-.1.37l-.08-.31c0 .11.03.2.08.31.13.28.24.23.25.24.11.13.23.25.35.37l-.05.06c-.54-.47.07.42.25 1.01-.02.11-1.03.57-1 1.8 0-.03-.1.14-.15-.52.73-1.41-.11-.49-.3.15-.25.44.1-.95.63-1.28.12-.07.38-.09.53-.18.25-.17.15-.11.05-.37-.2-.54-.79-.53-.3-.58l-.58-.89c.57 1.53-.23-.17-.05.85-.06.03-.47-.6-1.13-.61-.19-.18-.36-.4-.6-.49 0-.02.01-.3-.05-.4.06-.16.19.28.23.34.02-1.23.55 1.49.33-1.01l.15.27c-.01.24-.02.47.2.55 0 .01-.1.19.08.24.15-.03-.23-1.71.08-1.01 0 .02 0 .19.05.34.18.46.14.22.3-.24v.06c.32 1.39.15.19.2-.18.14-1.1.16.42.25.64.05.13.32.57.28.21l.08.12z" fill="#5f5570"/><path d="m4.02 14.78c-.05.37.12 1.58-.2.18.14-.07-.03-.47.03-.49.15-.04-.01.35.18.31z" fill="#877d92"/><path d="m3.31 15.58c-.22-.08-.22-.31-.2-.55.06-.91.16.35.2.55z" fill="#a199a9"/><path d="m3.82 14.9c-.17.46-.13.7-.3.24.28.01.16-.87.3-.24z" fill="#877d92"/><path d="m5.07 17.9c-.08-.11-.26-.05-.15-.24.05.01.18-.05.2-.12.1.26.2.2-.05.37z" fill="#cac5ce"/><path d="m4.37 19.73c.03.1 0 .26.05.37-.06-.07-.22-.25-.25-.34-.05-.16 0-.94-.15 0-.03.2.05.23.05.24-.07.51-.08-.95-.15-.64.19-.65 1.04-1.57.3-.15.05.66.14.49.15.52z" fill="#c5c0ca"/><path d="m3.84 15.7.2.79c-.06.03-.37-.56-.2-.79z" fill="#f2f0f2"/><path d="m3.24 15.94c.62.51.01.29-.03.15-.01-.04 0-.12.03-.15z" fill="#f2f0f2"/><path d="m3.69 16.06c.28.41.29.68.08.27-.03-.05-.15-.26-.08-.27z" fill="#ebe9ec"/><path d="m4.57 16.25c-.05-.1-.08-.19-.08-.31z" fill="#ebe9ec"/><path d="m3.39 15.88c.14-.04.18.33.03.09-.03-.04-.08-.07-.03-.09z" fill="#f2f0f2"/><path d="m3.59 15.88.03.03.03.03.03.03-.03.03h-.05l-.03-.03v-.06l.03-.03z" fill="#c7c2cc"/><path d="m3.46 19.18-.15.06c.07-.51.1-.64.45-.98.03 0 .14-.13.15-.03 0 .06-.29.11-.45.95z" fill="#5f5570"/><path d="m7.43 16.19c.06.45.15.14.25.27.03.03.09.81.1.95v.06h-.2c-.14-.01-.27 0-.4.06-.16.07-.32.21-.3.43-.1.05-.13.07-.25.12-.05.02-.19-.35-.9.61 0 0-.08.01-.05-.15.02-.09.17-.07.15-.18 0-.05-.18.12-.15-.06.04-.25 1.01-.5 1.21-.67-.02-.07-1.02.26-1.16.34l-.15-.58c.73.39-.21-.33-.4-.52-.12-.12-.24-.24-.35-.37.22.19-.22-.83-.08-.92.1.15.29 1.14.3.49.77 1.65.03-.38.2-.43.19.14.53 1.02.65 1.04.11.02.07-.12.08-.12.08-.03.03-.15.13-.12.08.02.21.39.25.43.8.73-.24-.49-.38-1.04.03.03.13-.14.58.61.03 0-.07-.31-.13-.61.01.02.13.11.23.43-.08-1.09.04.24.6.43l.08-.09c-.72-1.08-.82-1.41.1-.4z" fill="#f2f0f2"/><path d="m7.58 17.47.08.18-.48-.12c.13-.06.26-.07.4-.06z" fill="#81778d"/><path d="m5.73 17.96s.02.02-.05.06c-.05-.28-.41-.98-.55-1.1l.05-.06c.19.19 1.13.91.4.52z" fill="#81778d"/><path d="m6.76 16.74.58.4c-.03.12-.58-.24-.58-.4z" fill="#81778d"/><path d="m1.1 13.07v.18l-.1.24c-.06.13-.34.25-.1.34-.18.05-.34.94-.43.95-.02 0-.27-.31-.28-.34 0-.04.08-.56.1-.82.01-.16.23-.6-.15-.12-.29-.23-.07-.15-.05-.18.42-.59 1.28-.57 1.18-.43-.31.07-.79.39-.18.18z" fill="#f2f0f2"/><path d="m2.11 11.06.03.43c-.44-.43-1.77.88-1.36.18-.09-.03-.26.12-.33.18-.54-.26-.17-.12-.08-.18.03-.02.03-.15.1-.18.26-.13 1.17-.29 1.31-.37.18-.1-.2-.34.33-.06z" fill="#b1aab8"/><path d="m2.26 12.52.05.12c-.32.06-.85.31-1.21.43-.61.21-.14-.11.18-.18.1-.14-.76-.16-1.18.43.11-.28.2-.4.4-.49.11-.05 1.52-.28 1.76-.31z" fill="#81778d"/><path d="m.3 13.62c-.06-.03-.1-.08-.15-.12.39-.48.16-.04.15.12z" fill="#c7c2cc"/><path d="m7.74 13.74.1.12c-.01.06-.05.31-.05.37-.03.69.38.9.18 1.16-.13.17-.29-.38-.23.73-.16-.5-.45-.79-.5-1.34-.01-.13.03-.24-.05-.37.17-.71.05.21.15.46.64.94-.04-.13.05-.85.12-.99.14-.23.23.58.03-.32.03-.54.13-.85z"/><path d="m5.78 12.4c.21 0 .46-.05.65.09 0 .28-1.15-.17-.55.21-.37.03-1.57 1.3-.8.82-.3.4-.59.55-.8 1.04.31.69.33 1.1.35 1.19l-.08-.12c.04.36-.22-.08-.28-.21-.09-.22-.11-1.75-.25-.64-.19.05-.03-.35-.18-.31-.06.02.12.42-.03.49 0-.02 0-.04 0-.06-.14-.62-.02.26-.3.24-.05-.14-.04-.32-.05-.34-.31-.7.07.97-.08 1.01-.17-.05-.07-.23-.08-.24-.04-.2-.15-1.46-.2-.55l-.15-.27c.23 2.49-.31-.23-.33 1.01-.03-.06-.16-.5-.23-.34.06.1.06.37.05.4 0 .03-.16.05-.15.12-.19-.23-.43-.37-.38.06-.03-.05-.08-.09-.13-.06-.01-.1-.14-.17-.15-.18 0-.46 0-1.13.55-1.19-.03-.03-.25-.17-.25-.18 0-.06.58-.96.63-.95.08.02-.11.27.03.31-.14.35-.05.35-.05.37-.08.3-.4.74-.1.76-.16-.21.13-.2.15-.24-.01-.73.87-1.32.4-1.22.77-.62.42-.01-.2.92.76.65.62-.27.25 0 .1-.45.22-.23.53-.58.02.01-.19.63-.05.49.18-.19-.17-.24.33-.18-.33.5.83-.64 1.06-1.1.26-.52.18-.26-.48-.24v-.12c.38.05.88-.17 1-.18.04 0-.03.13.15.12.02 0 .04-.12.18-.12z" fill="#c5c0ca"/><path d="m3.87 14.05c.05-.08.87-.95 1.06-1.1-.23.46-1.38 1.6-1.06 1.1z" fill="#766c83"/><path d="m2.03 14.84c0 .06.07.14.08.15.07.77-.38.78-.08-.15z" fill="#ebe9ec"/><path d="m4.39 13.8c.08.07-.16.35-.25.43-.49.44-.18-.02.25-.43z" fill="#796f86"/><path d="m2.46 10.81c0 .1.18.46.05.55-.44-.06.64 1.05.78 1.1.06.02.07-.07.18-.06-.03.19-.36.12-.7.12-.17 0-.34-.02-.5 0-.23.02-1.64.25-1.76.31.09-.19-.44-.31-.45-.46 0-.04.38-.5.4-.52.06-.06.24-.21.33-.18-.41.69.91-.61 1.36-.18l-.03-.43h.05c.37.24.13-.08.1-.37.11.03.11.06.2.12z" fill="#faf9fa"/><path d="m2.76 12.52c.84.14.03.14-.3.18 0 0 .02-.09-.15-.06l-.05-.12c.16-.02.33 0 .5 0z" fill="#c5c0ca"/><path d="m2.51 11.36.1.06c.06.45.4.5.58.85.27-.06.37.15.6 0 .04.28-.24.13-.33.12-.11 0-.12.08-.18.06-.14-.05-1.22-1.15-.78-1.1z" fill="#b5afbc"/><path d="m1.58 11.73c.07-.1.51.25.1.18 0 0-.14-.13-.1-.18z" fill="#c7c2cc"/><path d="m7.28 10.81c-.32.2.36.77.05 1.22.07-.25-.57-.85-.65-1.13-.29-.92.47.61.53.58.02-.2-.12-.85-.28-.85-.05-.25-.14-.51.03-.49.06.25.2.47.33.67z" fill="#9b92a4"/><path d="m5.52 11.97c.18.21.35.17.25.43-.13 0-.15.12-.18.12-.18.01-.11-.13-.15-.12-.12.01-.62.23-1 .18v.12c.66-.02.74-.27.48.24-.19.15-1 1.02-1.06 1.1-.5-.06-.14 0-.33.18-.14.15.07-.48.05-.49-.31.35-.43.13-.53.58.36-.27.51.65-.25 0 .62-.93.97-1.54.2-.92.47-.1-.41.49-.4 1.22-.02.04-.31.04-.15.24-.3-.02.02-.47.1-.76.52-.77.35-1.12.05-.37-.14-.03.06-.28-.03-.31-.05-.01-.64.89-.63.95 0 .02.22.15.25.18-.56.06-.55.73-.55 1.19-.09-.15-.08-.49-.13-.49-.03 0-.18.64-.35-.12-.54.26-.06-.3-.08-.34-.04-.06-.34.04-.15-.27.01.44.08-.12.13-.12.02 0 .05.18.1.18.04 0 .52-.77.28-.85.05-.07.1-.12.15-.18.15.1.74-.54.8-.79 0 0-.01-.07.05-.06.33-.04 1.14-.05.3-.18.34 0 .67.07.7-.12.09 0 .36.16.33-.12-.23.15-.33-.06-.6 0-.18-.36-.52-.41-.58-.85-.2-1.47.95.96.2-.79.05.04.09.07.15.06.48 1.11.14-.35.48.18.25-.43.24.15.55.67.07 0-.18-.47-.03-.79.05.25.16.78.33.92.52.43-.12-.6 0-1.22.1.18.36 1.33.55 1.22.09-.05-.14-.33-.05-.37.04-.02.49.84.73.67z" fill="#ebe9ec"/><path d="m2.81 10.63c.75 1.76-.4-.67-.2.79l-.1-.06c.13-.09-.05-.45-.05-.55 0-.23-.06-.45.03-.61.06.17.2.33.33.43z" fill="#5f5570"/><path d="m.95 14.54c.22-.21.34-.57.5-.79.24.08-.23.86-.28.85-.05 0-.08-.18-.1-.18-.05 0-.12.56-.13.12z" fill="#c5c0ca"/><path d="m2.41 12.77c-.06.25-.65.89-.8.79.2-.26.55-.63.8-.79z" fill="#81778d"/><path d="m2.21 13.62-.05-.06c.24-.3.58-1.06.63-.61 2.06-.46.18-.14-.58.67z" fill="#6e647c"/><path d="m2.21 13.62c-.1.11-.01.33-.25.15.11.67-.33.69-.35.73-.01.03.35.03-.25.31.04-.09.23-.7.25-.73.07-.11.5-.45.55-.52z" fill="#c5c0ca"/><path d="m4.34 13.07s.11-.02.13.03c-1.52 1.21-.56 0-.13-.03z" fill="#6e647c"/><path d="m2.56 14.11s-.09-.01.05-.37c.3-.75.47-.4-.05.37z" fill="#a199a9"/><path d="m4.14 13.5s.11-.01.13.03c-.8.79-.3.02-.13-.03z" fill="#81778d"/><path d="m4.04 12.64c.25-.03.11.2-.23.09.13-.01.21-.09.23-.09z" fill="#81778d"/><path d="m4.9 11.91c.05-.02.13.08.13.09 0 .1-.2-.06-.13-.09z" fill="#b5afbc"/><path d="m3.97 10.75s.06-.13.08-.12c.12.05.69 1.81-.08.12z" fill="#f2f0f2"/><path d="m7.79 13.07c-.43.53-.19.49.2.12-.07.12-.21.41-.25.55-.09.32-.1.53-.13.85-.09-.81-.1-1.58-.23-.58-.09.72.59 1.8-.05.85-.1-.25.02-1.17-.15-.46-.03.12-.09.23-.05.37-.04-.29-.1-.57 0-.85.01-.04.45-.37-.05-.18-.16.06-.23.25-.3.15l.75-.98c.02-.33-1.75 1.13-1.43 1.25.3-.32.45-.75.68-.4-.5.39-.57.81-.68.95-.02.02-.3-.15-.38.27-.12.64.19-.2.25-.06l-.2.67c.06.09.13.15.2.21.14.54 1.17 1.77.38 1.04-.04-.03-.17-.41-.25-.43-.1-.03-.04.1-.13.12-.21-.57-.59-1.22-.5-1.83 0 0 .04-.14.05-.18.1-.13.17-.27.3-.37-.6 1.52-.17 1.19.15-.06.03-.13.05-.25.15-.34-.04-.35-.51.41-.6.76 0 0-.07-.02-.05.12-.37-.6-.04-.72-.35-.55.1-.26.28-.35.35-.61.05-.06.08-.12.15-.18.7-.31-.24.46-.13.92.31-.42.52-.92.93-1.22.42-.01.8-.27 1.21-.37.02 0 0 .09.3-.09.08.19-.25.36-.35.49l.2.03z" fill="#ebe9ec"/><path d="m6.58 12.89c-.12-.03-.14.12-.15.12-.41.3-.62.8-.93 1.22-.11-.46.82-1.22.13-.92.26-.21.58-.64.95-.43z" fill="#5f5570"/><path d="m7.84 13.87-.1-.12c.04-.14.18-.43.25-.55.05-.08.09-.11.15-.18.01.23-.2.34-.3.85z" fill="#5d536e"/><path d="m10.4 12.09c.43-.47.25-.64-.08-.06-.13-.23-.28 0-.35 0-.19-.01.19-.45-.28 0-.38.37-1.35 1.39-1.38 1.1-.33.25-.05.81-.25.73-.03-.01.07-.41-.08-.15-.1.17-.05.57-.2.52 0-.05.04-.31.05-.37.1-.52.31-.63.3-.85.38-.43.9-.57 1.26-1.01l-.08-.03c-.18.22-.41.29-.63.43-.41 0-.12-.22-.23-.31-.54.56.14-.64-.4-.92l.03 1.19c-.41.04-.43.2-.45.21-.07.03-.66.12-1.06.31-.38-.21-.7.22-.95.43-.07.06-.1.13-.15.18-.02.02-.32.17-.45.4s-.04.25-.05.27c-.15.4-.25.55-.2 1.04-.61-.67.62-1.97 1.11-2.5-.59-.38.56.07.55-.21-.19-.14-.44-.09-.65-.09.09-.26-.07-.22-.25-.43-.3-.35.19-.2-.13-.37-.06-.03-.1.1-.15.06-.46-.3-.57-.82.25-.12l-.25-.61.63.55s-.12.07.08.24c.39.31.73.59 1.23.49.18-.04.14-.17.15-.18.31-.45-.37-1.02-.05-1.22.14.22.31.39.45.61-.03.5.21.45.05 0-.44-1.04-.3-1.44.13-.24-.27-1.34.25-.31.45.24-.02-.33-.03-.64-.03-.98.41 1.18-.05-1.09.38.55-.04-.69-.02-1.12.15-.18.37-.59.17.35.18.4 0 .03.19.09.2.12.01.05-.65.69-.48.82.41-.49.76-.98.75-1.59.35.95.21-.35.43-.15.03.47-.2.55.08 1.19l.08-.89c.1 1.73.52-1.81.43.46.74-1.11.46-.67.35.31.34-.93.17-.4.3-.31.03.02.3-.69.35-.67l-.13.58.2-.12-.35.49c.86-.85.62-.32-.05.24.27-.11-.72.98-.83 1.07-.01.01-.03-.18-.1-.12-.26.22-.48.52-.7.79-.07-.37.56-.76.83-1.34z" fill="#f2f0f2"/><path d="m7.74 11.42h.05c.16.45-.08.5-.05 0z" fill="#b5afbc"/><path d="m8.69 12.4c-.29.18-.67.39-.9.67l-.2-.03c.11-.13.43-.3.35-.49-.29.18-.28.09-.3.09v-.06s.04-.17.45-.21l-.03-1.19c.54.27-.14 1.47.4.92.11.08-.19.3.23.31z" fill="#c5c0ca"/><path d="m8.14 13.01c-.06.07-.1.1-.15.18-.39.37-.63.4-.2-.12.23-.29.61-.49.9-.67.21-.14.45-.21.63-.43l.08.03c-.36.44-.88.58-1.26 1.01z" fill="#5f5570"/><path d="m7.63 12.58v.06c-.41.09-.79.35-1.21.37 0 0 .03-.15.15-.12.39-.19.99-.28 1.06-.31z" fill="#81778d"/><path d="m5.47 13.5c-.07.26-.25.35-.35.61-.01 0-.08 0-.15.06 0-.02-.08-.05.05-.27.13-.23.43-.38.45-.4z" fill="#4e4462"/><path d="m11.18 11.24.08.09c-.35.58-.4.47-.08-.09z" fill="#b1aab8"/><path d="m7.33 12.03s.03.15-.15.18c-.04-.27.15-.17.15-.18z" fill="#81778d"/><path d="m7.23 14.78s-.1 0-.1 0c-.04-.13.02-.25.05-.37.08.12.04.24.05.37z" fill="#4e4462"/><path d="m5.88 12.71c-.49.54-1.71 1.83-1.11 2.5 0 .05.02.32.08.31.18-.49-.01-.68.28-1.4.31-.17-.02-.05.35.55v.06c-.08.61.29 1.26.5 1.83 0 0 .04.14-.08.12s-.46-.9-.65-1.04c-.17.05.57 2.08-.2.43 0 .65-.2-.34-.3-.49-.14.09.29 1.11.08.92-.08-.19-.1-.41-.15-.61-.04-.16-.05-.12-.05-.12-.03-.09-.04-.51-.35-1.19.21-.49.51-.64.8-1.04-.77.48.44-.79.8-.82z" fill="#4e4462"/><path d="m5.12 14.11c-.29.73-.09.91-.28 1.4-.06.01-.07-.25-.08-.31-.05-.49.05-.63.2-1.04.07-.07.14-.05.15-.06z" fill="#ebe9ec"/><path d="m4.82 16.49s-.12.03-.25-.24c.22.02-.06-.24.1-.37.05.2.07.42.15.61z" fill="#f2f0f2"/><path d="m5.25 14.6-.05.98c-.19-.33-.11-.66.05-.98z" fill="#c5c0ca"/><path d="m5.47 14.72v-.06c-.02-.14.05-.12.05-.12-.01.04-.05.17-.05.18z" fill="#796f86"/><path d="m5.98 14.11c-.32 1.25-.75 1.58-.15.06.05-.03.09-.08.15-.06z" fill="#564c68"/><path d="m5.98 14.11c-.06-.01-.1.03-.15.06-.13.09-.2.24-.3.37.1-.35.56-1.12.6-.76-.1.09-.12.2-.15.34z" fill="#796f86"/><path d="m7.13 13.93-.05-.18c.5-.19.06.14.05.18z" fill="#a79faf"/><path d="m7.08 13.74.05.18c-.1.29-.04.56 0 .85.1.69.27.8.35 1.13.05.19-.05.26-.05.27-.92-1.01-.82-.69-.1.4l-.08.09c-.56-.19-.68-1.52-.6-.43-.09-.32-.21-.41-.23-.43-.09-.54-.13-.38 0-.85.28.53.17.06.2-.24 0-.01.16-.07.08-.18l-.08.18c-.24.26.15-.75-.05-.58-.11.31-.13.53-.05.85-.03.07-.09-.07-.1-.03-.03-.06-.02-.32-.13-.31-.2.46-.09.76.13 1.16.05.3.15.6.13.61-.45-.75-.54-.58-.58-.61-.07-.07-.14-.13-.2-.21l.2-.67c-.06-.14-.37.7-.25.06.08-.42.36-.25.38-.27.11-.14.18-.55.68-.95-.22-.35-.38.08-.68.4-.32-.12 1.45-1.58 1.43-1.25l-.75.98c.07.1.14-.09.3-.15z" fill="#4e4462"/><path d="m6.43 14.97c-.13.47-.09.32 0 .85-.22-.4-.33-.7-.13-1.16.11-.02.09.24.13.31z" fill="#f2f0f2"/><path d="m6.63 14.72c-.03.31.08.77-.2.24.01-.04.07.1.1.03-.08-.33-.06-.55.05-.85.2-.17-.19.84.05.58z" fill="#f2f0f2"/><path d="m6.91 14.66c.11-.06.11.24 0 .18-.04-.02-.04-.16 0-.18z" fill="#c7c2cc"/><path d="m6.63 14.72.08-.18c.09.12-.07.17-.08.18z" fill="#c5c0ca"/><path d="m6.96 14.9c.06.06.03.27-.05.12-.03-.06.04-.13.05-.12z" fill="#ebe9ec"/></svg>