<?xml version="1.0" encoding="UTF-8"?>
<svg id="Layer_1" data-name="Layer 1" xmlns="http://www.w3.org/2000/svg" viewBox="0 0 1214.24 439.75">
  <defs>
    <style>
      .cls-1 {
        fill: none;
      }

      .cls-1, .cls-2 {
        stroke: #141414;
        stroke-miterlimit: 10;
        stroke-width: 1.var(--s1);
      }

      .cls-2 {
        fill: #728a5f;
      }
    </style>
  </defs>
  <path class="cls-1" d="m470.61,137.17c1.71-1.92,3.9-4.52,6.15-7.56-29.66-3.29-37.21-4.78-39.33-13.22-.9-3.57-.07-7.38,2.48-11.34,4.64-7.21,16.79-16.1,33.32-24.68-12.9-7.36-31.32-11.53-43.52-11.34l-.83.02c-2.13.04-4.21.09-6.12-.04-13.75,8.43-24.76,16.96-33.11,24.31-33.26,29.23-62.28,68.32-52.46,79.91,3.69,4.36,13.58,7.06,26.45,7.22,32.75.41,81.45-14.61,106.99-43.29Z"/>
  <path class="cls-1" d="m173.61,36.6c1.03,7.61,1.96,16.62,2.81,27.13,1.85,22.84,3.02,51.91,3.3,82.09,12.06-1.43,24.22-3.25,36.25-5.4,70.66-12.65,85.78-27.63,88.5-35.44.88-2.52,2.21-7.66,1.31-13.77-2.05-13.83-14.71-26.02-37.63-36.22-18.52-8.25-38.86-12.86-49.34-14.87l-.21-.04c-.72-.14-1.92-.37-3.4-.63-14.2-2.49-28.26-3.23-41.59-2.84Z"/>
  <path class="cls-2" d="m1201.26,42.2c-5.35-.04-13.81.11-25.16.45-25.11.75-65.54,2.47-120.23,5.11,1.84-5.24,3.24-9.48,4.18-12.67,1.57-5.34,3.36-11.39-1.79-13.73-5.34-2.43-8.66,3.2-11.86,8.63-2.47,4.19-5.84,10.42-10.04,18.57-16.74,2.16-32.41,4.22-43.78,6.34-15.27,2.84-22.99,5.54-22.81,12.4.12,4.71,4.77,7.73,7.53,9.11,2.45,1.22,8.64,3.71,13.34.38,2.2-1.56,3.07-3.74,3.45-5.12,1.85-1,9.45-3.48,38.89-3.26l-3.8,36.77c-3.28,1.09-6.1,2.97-8.07,5.42-1.87,2.34-2.75,5-2.46,7.5.3,2.59,1.83,5.04,4.32,6.9,2.11,1.58,4.69,2.61,7.48,3.04-.08,3.67-.04,7.18.11,10.56-20.28-3.7-40.67-7.15-60.92-10.26-20.34-3.12-40.95-5.98-61.41-8.53,36.77-10.89,58.6-25.28,61.82-40.92,1.61-7.82-1.5-15.26-8.77-20.94-14.24-11.13-44.21-14.93-73.93-.66l-2.33,1.12-.24,2.57c-.61,6.5-.99,13.11-1.14,19.64-.19,8.82.04,17.73.7,26.57-23.92,4.27-27.18,9.51-27.09,14.12.15,8,13.5,11.29,27.75,13.23-.41,14.13,1.73,32.97,5.26,44.95l.04.13c2.25,6.9,5.52,10.62,9.28,10.62.34,0,.68-.03,1.03-.09,3.31-.58,5.35-3.63,6.08-9.08l.09-.64-.1-.64c-2-13.27-3.38-28.65-3.81-42.18,21.87,3.14,44.19,6.67,66.41,10.51,17.37,3,33.25,5.95,47.27,8.55,6.05,1.12,11.66,2.16,16.9,3.12,3.21,12.89,8.97,22.39,17.27,28.35,7.4,5.3,16.68,7.96,27.76,7.96,9.51,0,20.34-1.95,32.45-5.86,18.98-6.13,34.73-15.14,36.67-16.6l3.3-2.51-1.38-3.8c-1.84-5.05-6.78-3.5-10.06-2.47-6.49,2.04-23.72,7.47-48.73,10.46-18.27,2.18-25.41-.21-31-4.79-2.26-1.85-4.11-4.23-5.57-7.09,27.88,4.58,39.8,4.61,42.75-3,2.63-6.78-5.43-13.81-6.36-14.59-9.75-8.19-24.42-4.41-31.45-1.86-2.64-.52-5.29-1.01-7.94-1.51l-.07-17.24c2.39-.38,5.01-.76,7.86-1.17,8.36-1.21,18.77-2.72,30.5-5.33,7.03-1.56,20.13-4.47,31.14-7.18,6.16-1.52,10.99-2.8,14.36-3.82,4.92-1.49,10.49-3.18,9.56-8.64-.94-5.51-6.49-5.12-11.87-4.73-4.18.3-10.57.93-19.42,1.81-5.97.59-13.11,1.3-21.53,2.1-11.31,1.07-21.13,1.4-29.78,1.68-3.18.1-6.11.2-8.82.32l.54-32.16c16.92-1.02,34.07-2.21,51.08-3.55,21.98-1.73,47.71-4.02,67.17-5.96,11.29-1.13,20.21-2.11,26.51-2.92,3.55-.46,6.19-.85,8.07-1.2,2.27-.42,7.59-1.41,7.26-6.58-.36-5.59-5.68-5.63-12.41-5.68Zm-246.21,31.73c.05.36.52,8.85-51.13,26.5-.42-3.85-1.02-9.33-1.75-15.9l-.04-.34c-1.37-12.43-1.55-14.74-.71-16,3.58-5.35,16.75-6.13,28.22-4.52,13.57,1.9,24.99,7.16,25.4,10.26Z"/>
  <path class="cls-2" d="m852.88,40.28c.01-3.33.03-8.37-4.91-8.64l-2.07-.08-1.5,1.35c-1.78,1.61-1.85,2.88-2.21,9.96-.37,7.35-1.03,20.27-3.53,36.22l-.42,2.53s-.01.08-.02.15c-4.44,26.67-14.06,61.1-35.72,92.15-18.08,25.91-26.84,28.16-30.44,27.19-12.18-3.27-14.7-47.27-15.18-60.68-.64-17.74.99-33.44,2.18-44.91.65-6.23,1.14-11.06,1.09-14.74,3.59-.09,7.15-.18,10.64-.27,9.39-.23,18.26-.44,26.26-.77l2.55-.1,1.36-2.16c3.07-4.88,1.69-8.57.6-10.33-4.78-7.72-18.9-10.21-86.21-3.5-5.16.52-9.86.98-13.88,1.34l2.39-45.51-4-.9c-2.32-.52-4.57-.33-6.52.56-6.74,3.06-6.97,11.73-7.33,24.85l-.08,2.69c-.18,6.27-.46,12.69-.81,19.14-.12.01-.25.02-.37.03-93.21,8.24-107.79,18.71-109.76,27.87-1.18,5.46,2.37,10.56,10.56,15.17l2.96,1.67,2.58-2.21c19.56-16.79,61.25-20.21,93.73-22.27-.92,25.83,1.37,52,3.59,77.35,1.49,16.97,3.03,34.51,3.51,51.33l.05,1.63,1.02,1.27c.31.39.61.78.9,1.17,1.63,2.17,4.45,5.92,9.53,5.92.98,0,2.05-.14,3.2-.46l3.78-1.03-.21-3.91c-.93-17.2-2.53-34.84-4.08-51.9-2.48-27.42-5.05-55.74-4.96-83.26,12.68-1.49,26.97-2.31,41.31-2.85-.5.84-1,1.72-1.51,2.65-.46.84-.77,1.74-.93,2.67-2.28,13.81-3.31,27.85-3.04,41.72.27,14.42,2.97,86.72,29.53,94.41,22.36,6.47,51.82-32.05,74.25-74.34,1.37,34.38,3.03,72.86,4.26,90.72.23,3.29.5,6.72.81,10.2.38,4.26,4.03,7.54,8.26,7.54.18,0,.36,0,.54-.02,22.81-1.52,36.94-2.47,45.36-3.03q12.7-.86,13.93-1.86l1.82-1.53v-1.55c.75-3.48-2.07-6.66-3.08-7.81-10.07-11.38-26.87-11.5-27.04-11.5-9.29,0-16.84,3.47-22.11,6.98-13.72-82.9-11.73-154.67-10.87-185.42.13-4.67.23-8.35.24-10.88Z"/>
  <path class="cls-2" d="m7.62,197.54l3.9,1.36c.64.23,1.31.38,1.99.47,1.25.16,2.54.07,3.66-.24,3.43-.68,50.24-9.08,139.22-25,2.34,75.59,4.77,135.4,7.23,177.82,1.5,25.88,3.05,45.91,4.6,59.54,2.36,20.69,4.27,27.59,10.97,27.71h.12c1.93,0,3.76-.82,5.04-2.25,2.78-3.11,2.25-7.21,1.09-16.18-.93-7.24-2.22-17.14-1.68-27.44,2.94-56.02-.59-142-2.48-188.19-.6-14.66-1.12-27.41-1.05-30.23l.26-7.97c13.71-1.44,43.17-5.12,72.19-12.66,47.16-12.23,72.23-29.33,74.52-50.81.69-6.47-.85-11.86-2.09-16.2-11.9-41.67-63.64-57.46-83.12-63.41-24.86-7.59-49.36-8.81-71.92-6.52-.22-.84-.44-1.64-.67-2.41-2.41-8.15-5.45-12.26-10.14-13.74-3.95-1.25-9.05-.67-12.99,1.46-2.97,1.6-4.95,3.91-5.73,6.66-1.41,4.99,1.58,9.5,3.89,12.18-25.08,5.56-46.43,14.59-61.27,22.06-2.66,1.2-4.46,2.23-5.11,2.96l-2.21,2.52,1.8,5.82,2.54,1.07c2.62,1.11,4.39.21,7.31-1.28.65-.33,1.31-.66,1.98-1,9.57-4.03,33.81-12.26,64.19-15.66,2.17,11.42,2.74,33.33,2.77,82.84,0,8.23.01,17.18.04,26.93l-.3,1.52c-68.17,12.71-144.86,27.01-147.05,27.37-1.08.18-2.12.54-3.09,1.07-2.33,1.26-4.07,3.4-4.94,6.07-1.83,5.68,1.09,11.83,6.52,13.72ZM218.81,40.12c10.48,2.01,30.83,6.62,49.34,14.87,22.92,10.21,35.58,22.39,37.63,36.22.91,6.11-.43,11.25-1.31,13.77-2.72,7.81-17.84,22.8-88.5,35.44-12.03,2.15-24.2,3.97-36.25,5.4-.28-30.18-1.45-59.24-3.3-82.09-.85-10.51-1.78-19.52-2.81-27.13,13.33-.39,27.39.35,41.59,2.84,1.48.26,2.68.49,3.4.63l.21.04Z"/>
  <path class="cls-2" d="m619.5,163.7c-11.46,4.72-23.84,7.92-27.35,8.79-33.17,8.2-59.92,4.18-69.99,2.67-4.69-.71-6.28-.94-8.16.45l-1.66,1.26-.29,1.99c-.13.89-.18,3.16,2.16,4.92,4.08,3.07,28.26,11.75,58.53,11.75,17.55,0,37.14-2.92,56.06-11.54,17-7.75,36.88-19.8,35.04-33.17-2.55-18.55-43.03-24.91-109.38-33.18-16.96-2.11-31.73-3.51-44.39-4.6,2.14-9.25,1.39-17.98-2.28-25.9,1.12-.44,2.25-.87,3.37-1.31,37.17-14.43,49.82-16.37,54.08-16.18-.55.95-1.29,2.03-1.74,2.68-1.82,2.66-4.57,6.67-1.19,10.04,3.6,3.59,9.12.44,14-2.79,4.48-2.96,9.08-6.76,12.29-10.16,1.92-2.03,7.76-8.21,5.41-14.07-3.1-7.76-15.76-7.03-38.05-2.97-21.33,3.89-42.45,10.41-60.8,17.91-10.14-9.45-23.79-16.42-37.55-19.18,9.43-4,19.65-7.7,30.68-10.92,3.47-1.01,5.57-1.63,6.72-4.48l1.11-2.77-3.21-5.5-3.33-.19s-.09,0-.14,0c-6.95,0-101.96,21.52-150.6,87.83-8.79,11.99-35.56,48.47-17.37,70.81,8.05,9.89,24.48,15.23,46.04,15.23,4.16,0,8.51-.2,13.03-.6,26-2.32,53.89-11.14,74.6-23.59,16.74-10.06,32.81-24.61,42.98-38.91,1.35-1.9,2.57-3.78,3.71-5.66,10.83,1.21,23.4,2.68,38.31,4.57,73.23,9.31,91.1,14.92,94.78,17.66-.81,1.16-3.93,4.38-15.4,9.1Zm-282.32,9.54c-9.81-11.6,19.21-50.68,52.46-79.91,8.36-7.34,19.36-15.88,33.11-24.31,1.91.13,4,.08,6.12.04l.83-.02c12.2-.19,30.62,3.98,43.52,11.34-16.53,8.58-28.68,17.47-33.32,24.68-2.54,3.95-3.38,7.77-2.48,11.34,2.12,8.44,9.67,9.93,39.33,13.22-2.25,3.04-4.44,5.64-6.15,7.56-25.54,28.68-74.23,43.7-106.99,43.29-12.87-.16-22.76-2.86-26.45-7.22Zm149.75-62.13c-11.31-1.01-20.81-2.1-24.31-3.63,2.97-2.9,12.75-7.35,24.93-12.33,1.72,5.04,1.15,10.55-.62,15.96Z"/>
  <path class="cls-1" d="m486.93,111.1c1.77-5.4,2.34-10.92.62-15.96-12.18,4.98-21.96,9.43-24.93,12.33,3.49,1.53,12.99,2.62,24.31,3.63Z"/>
  <path class="cls-1" d="m901.42,68.19c-.84,1.26-.66,3.57.71,16l.04.34c.72,6.57,1.32,12.05,1.75,15.9,51.66-17.65,51.18-26.13,51.13-26.5-.41-3.1-11.83-8.36-25.4-10.26-11.47-1.61-24.64-.83-28.22,4.52Z"/>
</svg>
