<?xml version="1.0" encoding="UTF-8"?>
<svg id="Layer_1" data-name="Layer 1" xmlns="https://www.w3.org/2000/svg" viewBox="0 0 1196.64 432.89">
  <defs>
    <style>
      .cls-1 {
        stroke: #cd4627;
      }

      .cls-1, .cls-2 {
        fill: none;
      }

      .cls-1, .cls-2, .cls-3 {
        stroke-miterlimit: 10;
        stroke-width: 1.09px;
      }

      .cls-2, .cls-3 {
        stroke: #141414;
      }

      .cls-3 {
        fill: #cd4627;
      }
    </style>
  </defs>
  <path class="cls-2" d="m264.13,53.69c-18.27-8.14-38.35-12.69-48.69-14.67l-.23-.04c-.71-.14-1.89-.36-3.34-.62-13.15-2.31-27.03-3.26-41.34-2.83,1.03,7.57,1.97,16.64,2.81,27.04,1.83,22.6,2.98,51.35,3.26,81.17,11.98-1.42,24.07-3.22,36.04-5.36,27.26-4.88,46.15-10.12,59.21-15.16.13-.05.25-.1.38-.15.91-.35,1.79-.7,2.64-1.05.14-.06.27-.11.4-.17.54-.22,1.07-.45,1.59-.67,16.4-7.08,21.7-13.59,23.2-17.9.65-1.88,1.57-5.22,1.6-9.34.01-1.37-.07-2.83-.3-4.35-2.04-13.72-14.57-25.8-37.24-35.9Z"/>
  <path class="cls-2" d="m480.36,108.5c1.62-5.38,1.81-10.21.56-14.43-7.59,3.08-19.1,7.98-23.6,11.3,4.68,1.4,14.87,2.42,23.04,3.13Z"/>
  <path class="cls-1" d="m900.06,117.38c18.5,2.35,37.1,4.96,55.48,7.78,19.77,3.04,39.8,6.4,59.63,10.01-.1-2.92-.12-5.94-.05-9.07-2.72-.44-5.23-1.46-7.3-3-2.49-1.87-4.03-4.33-4.33-6.93-.29-2.52.58-5.19,2.46-7.54,1.94-2.42,4.71-4.28,7.93-5.37l3.71-35.91c-28.5-.2-36.07,2.17-37.96,3.15-.39,1.39-1.28,3.53-3.45,5.07-4.71,3.35-10.9.87-13.34-.36-1.7-.85-4.12-2.33-5.76-4.45.32,2.26.25,4.59-.24,6.95-2.26,10.97-14.25,26.31-56.78,39.67Z"/>
  <path class="cls-2" d="m889.96,82.93c.63,5.74,1.17,10.64,1.57,14.32,1.38-.47,2.71-.94,4.01-1.4.26-.09.51-.18.76-.27,1.13-.4,2.23-.8,3.3-1.19.15-.05.3-.11.45-.16,5.11-1.87,9.58-3.62,13.46-5.24.04-.02.07-.03.11-.05.88-.37,1.73-.73,2.56-1.09.13-.05.26-.11.38-.16.65-.28,1.27-.56,1.89-.83.28-.12.57-.25.84-.38.28-.13.55-.25.83-.38,4.21-1.93,7.82-3.79,10.79-5.56,8.61-5.13,9.01-7.8,9.01-7.83-.58-2.38-10.96-7.31-24.1-9.14-.85-.12-1.69-.22-2.52-.31-.28-.03-.55-.05-.83-.08-.55-.05-1.09-.11-1.63-.15-.32-.02-.63-.04-.95-.06-.49-.03-.97-.06-1.45-.08-.32-.01-.64-.02-.96-.03-.45-.01-.91-.02-1.35-.03-.47,0-.94,0-1.41,0-.13,0-.26,0-.38,0-.61.01-1.22.04-1.81.07-.15,0-.3.02-.45.03-.45.03-.9.07-1.34.11-.16.02-.33.03-.49.05-.56.06-1.1.13-1.63.2,0,0,0,0,0,0-.53.08-1.04.17-1.54.27-.13.03-.27.05-.4.08-.39.08-.76.17-1.12.26-.11.03-.22.05-.33.08-.45.12-.89.25-1.3.39-.06.02-.12.05-.18.07-.35.12-.68.25-1,.38-.1.04-.2.09-.3.13-.31.14-.6.28-.87.43-.05.03-.11.06-.16.08-.32.18-.61.37-.88.56-.06.05-.12.1-.18.14-.2.16-.39.32-.57.49-.06.06-.12.12-.18.18-.21.22-.4.44-.55.67-.2.3-.31.84-.32,1.77-.03,2.04.38,5.95,1.19,13.28l.04.33Z"/>
  <path class="cls-2" d="m441.89,124.23c-5.29-1.4-10.36-3.83-11.81-9.58-.08-.34-.15-.69-.21-1.04-.02-.11-.03-.21-.05-.32-.04-.3-.07-.6-.08-.9-.01-.23-.01-.45-.01-.68,0-.07,0-.13,0-.2.08-5.12,3.36-10.26,8.52-15.19.12-.11.25-.23.37-.34.26-.25.52-.49.8-.74.35-.31.71-.63,1.08-.95.05-.04.09-.08.14-.12,5.53-4.76,13.59-10.08,25.11-15.93-.42-.23-.86-.45-1.29-.68-12.61-6.63-29.64-10.42-41.21-10.24h-.81c-2.13.06-4.32.08-6.19-.03-11.8,7.22-22.82,15.32-32.79,24.07-32.94,28.95-61.6,67.77-51.76,79.41,3.72,4.4,13.6,7.12,26.41,7.28,32.42.35,80.54-14.46,105.79-42.82h0c.98-1.11,3.19-3.59,5.73-6.95-12-1.33-19.87-2.29-25.48-3.51-.75-.16-1.51-.34-2.27-.54Z"/>
  <path class="cls-3" d="m1183.66,41.14c-5.27-.04-13.61.1-24.8.44-24.71.74-64.46,2.43-118.22,5.03,1.77-5.05,3.12-9.14,4.03-12.24,1.57-5.33,3.36-11.38-1.87-13.75-5.42-2.46-8.73,3.16-11.93,8.58-2.43,4.12-5.74,10.24-9.85,18.22-16.46,2.13-31.87,4.16-43.06,6.24-12.35,2.3-21.92,4.63-22.6,11.4-1.58-3.32-4.11-6.39-7.54-9.07-14.3-11.17-44.32-15.03-74.01-.77l-2.85,1.37-.3,3.15c-.6,6.44-.98,12.97-1.12,19.43-.19,8.4.02,16.89.62,25.31-18.97,3.46-26.77,7.87-26.63,14.84.13,6.96,8.37,11.21,27.32,13.95-.29,13.92,1.83,32.05,5.25,43.67l.05.16c3.52,10.78,8.63,11.59,11.38,11.11,3.78-.66,6.09-3.98,6.88-9.87l.11-.79-.12-.79c-1.9-12.61-3.23-27.17-3.7-40.15,21.14,3.04,42.68,6.46,64.14,10.17,17.14,2.96,32.8,5.87,46.62,8.43,5.92,1.1,11.53,2.14,16.81,3.1,3.21,12.17,8.89,21.23,16.91,26.99,7.32,5.25,16.51,7.88,27.47,7.88,9.39,0,20.09-1.93,32.03-5.79,18.73-6.05,34.28-14.94,36.2-16.39l3.36-2.55-1.41-3.88c-1.87-5.15-6.85-3.58-10.15-2.55-6.39,2.01-23.36,7.36-48,10.3-17.95,2.14-24.94-.2-30.41-4.68-1.85-1.51-3.43-3.39-4.74-5.61,28.12,4.56,39.15,4.27,42.27-3.79,2.8-7.24-4.99-14.27-6.58-15.6-9.9-8.31-24.55-4.71-31.78-2.13-2.51-.49-5.03-.98-7.55-1.46l-.07-15.74c2.31-.37,4.84-.73,7.59-1.13,8.24-1.2,18.5-2.68,30.08-5.26,6.93-1.54,19.84-4.41,30.69-7.08,6.07-1.49,10.83-2.76,14.16-3.77,4.68-1.42,10.5-3.18,9.55-8.73-.96-5.6-6.77-5.19-11.9-4.82-4.12.29-10.42.92-19.15,1.79-5.89.58-12.92,1.28-21.22,2.07-11.14,1.06-20.81,1.37-29.34,1.65-3.05.1-5.88.19-8.49.31l.52-31.33c16.62-1,33.47-2.17,50.17-3.49,21.66-1.71,47.03-3.96,66.2-5.87,11.13-1.11,19.92-2.08,26.14-2.88,3.5-.45,6.1-.84,7.96-1.18,2.29-.42,7.64-1.42,7.31-6.68-.36-5.68-5.95-5.73-12.42-5.78Zm-294.61,26.41c.16-.23.35-.46.55-.67.06-.06.12-.12.18-.18.17-.17.36-.33.57-.49.06-.05.12-.1.18-.14.27-.2.56-.38.88-.56.05-.03.11-.06.16-.08.27-.15.56-.29.87-.43.1-.04.2-.09.3-.13.32-.13.65-.26,1-.38.06-.02.12-.05.18-.07.41-.14.85-.27,1.3-.39.11-.03.22-.06.33-.08.36-.09.74-.18,1.12-.26.13-.03.26-.06.4-.08.5-.1,1.01-.19,1.54-.27,0,0,0,0,0,0,.53-.08,1.07-.14,1.63-.2.16-.02.32-.03.49-.05.44-.04.89-.08,1.34-.11.15,0,.3-.02.45-.03.59-.03,1.19-.06,1.81-.07.13,0,.26,0,.38,0,.46,0,.93,0,1.41,0,.44,0,.9.01,1.35.03.32,0,.64.02.96.03.48.02.96.05,1.45.08.32.02.63.04.95.06.54.04,1.08.09,1.63.15.28.03.55.05.83.08.83.09,1.67.19,2.52.31,13.14,1.84,23.52,6.76,24.1,9.14,0,.03-.4,2.7-9.01,7.83-2.97,1.77-6.58,3.63-10.79,5.56-.28.13-.54.25-.83.38-.27.12-.56.25-.84.38-.62.27-1.24.55-1.89.83-.13.05-.25.11-.38.16-.83.36-1.67.72-2.56,1.09-.04.02-.07.03-.11.05-3.89,1.62-8.35,3.37-13.46,5.24-.15.05-.3.11-.45.16-1.07.39-2.17.79-3.3,1.19-.25.09-.5.18-.76.27-1.3.46-2.63.93-4.01,1.4-.4-3.68-.94-8.58-1.57-14.32l-.04-.33c-.81-7.33-1.22-11.24-1.19-13.28.01-.93.12-1.47.32-1.77Zm67.79,10.16c.49-2.36.56-4.69.24-6.95,1.63,2.12,4.05,3.6,5.76,4.45,2.44,1.22,8.63,3.7,13.34.36,2.17-1.54,3.06-3.68,3.45-5.07,1.9-.98,9.46-3.35,37.96-3.15l-3.71,35.91c-3.22,1.09-5.99,2.95-7.93,5.37-1.88,2.34-2.76,5.02-2.46,7.54.3,2.6,1.84,5.07,4.33,6.93,2.07,1.55,4.58,2.56,7.3,3-.06,3.13-.05,6.16.05,9.07-19.83-3.61-39.86-6.97-59.63-10.01-18.38-2.82-36.98-5.43-55.48-7.78,42.53-13.36,54.52-28.7,56.78-39.67Z"/>
  <path class="cls-3" d="m872.58,225.22c-8.75,0-15.97,3.06-21.19,6.35-13.3-81.12-11.34-151.25-10.51-181.39.13-4.6.23-8.24.24-10.74,0-3.15.03-9.01-5.6-9.32l-2.37-.1-1.72,1.55c-2,1.8-2.08,3.28-2.44,10.37-.37,7.33-1.07,20.92-3.78,37.47l-.14.85c-5.85,35.04-17.64,65.46-35.05,90.42-18.19,26.08-26.44,27.21-29.14,26.49-2.9-.78-12.51-7.34-14.37-59.06-.63-17.43.98-32.87,2.14-44.15.6-5.75,1.07-10.29,1.11-13.74,0-.03,0-.07,0-.1,3.27-.08,6.5-.16,9.68-.24,9.26-.23,18-.44,25.89-.76l2.94-.12,1.56-2.49c3.25-5.18,1.77-9.13.6-11.03-6.18-9.97-31.43-9.24-85.72-3.82-4.7.47-9,.9-12.76,1.24l2.35-44.61-4.6-1.03c-2.46-.55-4.85-.34-6.94.6-7.09,3.23-7.33,11.96-7.69,25.19l-.08,2.67c-.17,5.95-.43,12.04-.76,18.15-91.85,8.14-106.46,18.3-108.57,28.07-1.24,5.76,2.39,11.08,10.79,15.82l3.41,1.92,2.97-2.55c18.91-16.23,59.26-19.67,91.03-21.7-.83,25.23,1.41,50.73,3.58,75.46,1.47,16.71,2.98,33.99,3.45,50.53l.05,1.88,1.18,1.46c.3.38.59.76.87,1.13,1.7,2.27,4.63,6.16,9.98,6.16,1.04,0,2.18-.15,3.42-.49l4.34-1.19-.24-4.5c-.92-16.96-2.49-34.36-4.02-51.18-2.43-26.77-4.93-54.41-4.88-81.27,12.23-1.41,25.7-2.17,38.5-2.67-.25.44-.51.9-.77,1.37-.5.91-.84,1.89-1,2.89-2.26,13.65-3.27,27.54-3.01,41.26.04,2.3.52,23.04,4.07,44.33,4.96,29.73,13.33,45.91,25.61,49.47,22.03,6.38,50.63-30.15,72.72-71.08,1.33,33.13,2.91,69.4,4.08,86.5.22,3.25.49,6.64.8,10.08.42,4.61,4.37,8.16,8.94,8.16.19,0,.39,0,.59-.02,22.48-1.5,36.4-2.43,44.71-2.99q12.78-.86,14.18-2.02l2.08-1.75v-1.79c.79-3.78-2.16-7.12-3.24-8.34-10.14-11.46-27.03-11.61-27.25-11.61Z"/>
  <path class="cls-3" d="m177.18,171.13c.02-.6.1-3.34.21-7.1,13.4-1.4,42.59-5.03,71.34-12.49,46.36-12.03,71-28.8,73.25-49.85.67-6.33-.84-11.62-2.05-15.87-11.69-40.92-62.58-56.46-81.74-62.31h0c-22.16-6.77-46.02-8.9-70.99-6.36-2.52-9.83-5.63-14.44-10.54-15.99-3.83-1.21-8.78-.65-12.6,1.42-2.87,1.55-4.78,3.76-5.52,6.41-1.41,5.01,1.81,9.56,4.07,12.11-15.88,3.48-37.23,9.89-60.53,21.68l4.71,10.12c4.84-2.06,29.88-12.15,64.48-16.01,2.88,13.12,2.89,36.5,2.93,81.96,0,8.11.01,16.94.04,26.56l-.34,1.69c-67.26,12.54-142.98,26.66-145.11,27.01-1.03.17-2.03.51-2.96,1.02-2.23,1.21-3.91,3.26-4.74,5.84-1.76,5.46,1.05,11.38,6.26,13.2l3.84,1.34c.62.22,1.26.37,1.91.45,1.21.15,2.45.06,3.52-.23,3.34-.66,49.59-8.96,137.52-24.69,2.3,74.63,4.7,133.68,7.13,175.55,1.48,25.5,3,45.24,4.53,58.67,2.3,20.22,4.15,26.97,10.55,27.08.04,0,.07,0,.11,0,1.82,0,3.56-.77,4.77-2.13,2.66-2.97,2.14-6.98,1.01-15.75-.92-7.14-2.19-16.92-1.65-27.09,2.89-55.19-.58-139.92-2.44-185.44-.62-15.2-1.16-28.32-1.01-30.18l.04-.62Zm122.89-67.85c-1.5,4.31-6.8,10.82-23.2,17.9-.52.22-1.05.45-1.59.67-.13.06-.26.11-.4.17-.85.35-1.73.7-2.64,1.05-.13.05-.25.1-.38.15-13.06,5.04-31.95,10.28-59.21,15.16-11.96,2.14-24.06,3.94-36.04,5.36-.27-29.82-1.42-58.57-3.26-81.17-.84-10.4-1.79-19.47-2.81-27.04,14.32-.43,28.2.52,41.34,2.83,1.44.25,2.62.48,3.34.62l.23.04c10.34,1.99,30.42,6.54,48.69,14.67,22.67,10.1,35.2,22.18,37.24,35.9.23,1.52.31,2.98.3,4.35-.03,4.12-.95,7.46-1.6,9.34Zm-63.52-74.43h0s0,0,0,0Z"/>
  <path class="cls-3" d="m546.28,114.89c-16.92-2.11-31.5-3.48-44.13-4.56,1.85-8.53,1.16-16.51-2.04-23.82,1.2-.47,2.43-.94,3.69-1.43,33.22-12.9,46.39-15.59,51.55-15.87-.34.52-.68,1.01-.92,1.37-1.7,2.49-4.87,7.12-1.07,10.91,3.97,3.96,9.73.71,14.81-2.65,5.14-3.39,21.59-15.21,17.74-24.83-3.26-8.16-16-7.49-38.39-3.42-19.27,3.51-40.71,9.9-60.77,18.1-10.35-9.36-24.25-15.94-37.77-18.34,15.12-6.54,26.88-9.97,31.85-11.42,3.4-.99,5.28-1.54,6.33-4.14l1.02-2.52-2.93-5.01-3.03-.17s-.09,0-.14,0c-6.83,0-100.2,21.17-148.03,86.37-8.62,11.74-34.83,47.48-17.14,69.23,7.84,9.64,23.9,14.84,45,14.84,4.09,0,8.37-.2,12.82-.59,25.56-2.28,52.97-10.95,73.33-23.19,14.65-8.8,33.81-24.46,45.3-42.83,9.42,1.05,22.71,2.58,38.61,4.6,68.5,8.71,87.58,14.08,92.37,16.84-3.66,4.1-20.23,11.44-41.2,16.63-32.54,8.04-58.79,4.1-68.67,2.62-4.74-.71-6.51-.98-8.64.6l-1.9,1.44-.34,2.29c-.31,2.13.6,4.22,2.44,5.6,6.41,4.81,62.63,23.59,113.75.29,24.73-11.28,36.5-22.56,34.99-33.53-2.65-19.23-42.95-25.22-108.5-33.39Zm-82.37,20.34h0c-25.26,28.36-73.38,43.17-105.79,42.82-12.82-.16-22.69-2.89-26.41-7.28-9.85-11.64,18.81-50.46,51.76-79.41,9.97-8.76,20.99-16.85,32.79-24.07,1.87.12,4.06.09,6.19.04h.81c11.57-.2,28.6,3.59,41.21,10.22.43.23.87.45,1.29.68-11.52,5.85-19.57,11.16-25.11,15.93-.05.04-.09.08-.14.12-.37.32-.73.64-1.08.95-.27.25-.53.49-.8.74-.12.11-.25.23-.37.34-5.16,4.93-8.44,10.07-8.52,15.19,0,.07,0,.13,0,.2,0,.23,0,.45.01.68.02.31.05.61.08.9.01.11.03.21.05.32.06.35.12.7.21,1.04,1.45,5.76,6.52,8.18,11.81,9.58.76.2,1.52.38,2.27.54,5.6,1.22,13.47,2.19,25.48,3.51-2.54,3.36-4.75,5.84-5.73,6.95Zm16.45-26.73c-8.17-.71-18.36-1.73-23.04-3.13,4.5-3.32,16.01-8.21,23.6-11.3,1.25,4.22,1.06,9.05-.56,14.43Z"/>
</svg>