<?xml version="1.0" encoding="utf-8"?>
<!-- Generator: Adobe Illustrator 27.10.0, SVG Export Plug-In . SVG Version: 6.00 Build 0)  -->
<svg version="1.1" id="Layer_1" xmlns="http://www.w3.org/2000/svg" xmlns:xlink="http://www.w3.org/1999/xlink" x="0px" y="0px"
	 viewBox="0 0 1214.2 439.8" style="enable-background:new 0 0 1214.2 439.8;" xml:space="preserve">
<style type="text/css">
	.st0{fill:#866471;stroke:#141414;stroke-width:1.1;stroke-miterlimit:10;}
</style>
<g>
	<path class="st0" d="M1201.3,42.2c-5.3,0-13.8,0.1-25.2,0.5c-25.1,0.8-65.5,2.5-120.2,5.1c1.8-5.2,3.2-9.5,4.2-12.7
		c1.6-5.3,3.4-11.4-1.8-13.7c-5.3-2.4-8.7,3.2-11.9,8.6c-2.5,4.2-5.8,10.4-10,18.6c-16.7,2.2-32.4,4.2-43.8,6.3
		c-15.3,2.8-23,5.5-22.8,12.4c0.1,4.7,4.8,7.7,7.5,9.1c2.5,1.2,8.6,3.7,13.3,0.4c2.2-1.6,3.1-3.7,3.5-5.1c1.8-1,9.5-3.5,38.9-3.3
		l-3.8,36.8c-3.3,1.1-6.1,3-8.1,5.4c-1.9,2.3-2.8,5-2.5,7.5c0.3,2.6,1.8,5,4.3,6.9c2.1,1.6,4.7,2.6,7.5,3c-0.1,3.7,0,7.2,0.1,10.6
		c-20.3-3.7-40.7-7.1-60.9-10.2c-20.3-3.1-40.9-6-61.4-8.5c36.8-10.9,58.6-25.3,61.8-40.9c1.6-7.8-1.5-15.3-8.8-20.9
		c-14.2-11.1-44.2-14.9-73.9-0.7l-2.3,1.1l-0.2,2.6c-0.6,6.5-1,13.1-1.1,19.6c-0.2,8.8,0,17.7,0.7,26.6
		c-23.9,4.3-27.2,9.5-27.1,14.1c0.2,8,13.5,11.3,27.8,13.2c-0.4,14.1,1.7,33,5.3,44.9l0,0.1c2.2,6.9,5.5,10.6,9.3,10.6
		c0.3,0,0.7,0,1-0.1c3.3-0.6,5.3-3.6,6.1-9.1l0.1-0.6l-0.1-0.6c-2-13.3-3.4-28.6-3.8-42.2c21.9,3.1,44.2,6.7,66.4,10.5
		c17.4,3,33.3,5.9,47.3,8.6c6,1.1,11.7,2.2,16.9,3.1c3.2,12.9,9,22.4,17.3,28.3c7.4,5.3,16.7,8,27.8,8c9.5,0,20.3-1.9,32.4-5.9
		c19-6.1,34.7-15.1,36.7-16.6l3.3-2.5l-1.4-3.8c-1.8-5.1-6.8-3.5-10.1-2.5c-6.5,2-23.7,7.5-48.7,10.5c-18.3,2.2-25.4-0.2-31-4.8
		c-2.3-1.9-4.1-4.2-5.6-7.1c27.9,4.6,39.8,4.6,42.8-3c2.6-6.8-5.4-13.8-6.4-14.6c-9.8-8.2-24.4-4.4-31.4-1.9c-2.6-0.5-5.3-1-7.9-1.5
		l-0.1-17.2c2.4-0.4,5-0.8,7.9-1.2c8.4-1.2,18.8-2.7,30.5-5.3c7-1.6,20.1-4.5,31.1-7.2c6.2-1.5,11-2.8,14.4-3.8
		c4.9-1.5,10.5-3.2,9.6-8.6c-0.9-5.5-6.5-5.1-11.9-4.7c-4.2,0.3-10.6,0.9-19.4,1.8c-6,0.6-13.1,1.3-21.5,2.1
		c-11.3,1.1-21.1,1.4-29.8,1.7c-3.2,0.1-6.1,0.2-8.8,0.3l0.5-32.2c16.9-1,34.1-2.2,51.1-3.6c22-1.7,47.7-4,67.2-6
		c11.3-1.1,20.2-2.1,26.5-2.9c3.6-0.5,6.2-0.8,8.1-1.2c2.3-0.4,7.6-1.4,7.3-6.6C1213.4,42.3,1208.1,42.3,1201.3,42.2L1201.3,42.2z
		 M955,73.9c0,0.4,0.5,8.8-51.1,26.5c-0.4-3.8-1-9.3-1.8-15.9l0-0.3c-1.4-12.4-1.5-14.7-0.7-16c3.6-5.3,16.8-6.1,28.2-4.5
		C943.2,65.6,954.6,70.8,955,73.9L955,73.9z"/>
	<path class="st0" d="M885.6,229.6c-9.3,0-16.8,3.5-22.1,7c-13.7-82.9-11.7-154.7-10.9-185.4c0.1-4.7,0.2-8.3,0.2-10.9
		c0-3.3,0-8.4-4.9-8.6l-2.1-0.1l-1.5,1.4c-1.8,1.6-1.8,2.9-2.2,10c-0.4,7.3-1,20.3-3.5,36.2l-0.4,2.6c0,0,0,0.1,0,0.1
		c-4.4,26.7-14.1,61.1-35.7,92.1c-18.1,25.9-26.8,28.2-30.4,27.2c-12.2-3.3-14.7-47.3-15.2-60.7c-0.6-17.7,1-33.4,2.2-44.9
		c0.7-6.2,1.1-11.1,1.1-14.8c3.6-0.1,7.2-0.2,10.6-0.3c9.4-0.2,18.3-0.4,26.3-0.8l2.5-0.1l1.4-2.2c3.1-4.9,1.7-8.6,0.6-10.3
		c-4.8-7.7-18.9-10.2-86.2-3.5c-5.2,0.5-9.8,1-13.9,1.3l2.4-45.5l-4-0.9c-2.4-0.5-4.5-0.3-6.5,0.6c-6.7,3.1-7,11.7-7.3,24.9
		l-0.1,2.7c-0.2,6.3-0.5,12.7-0.8,19.1c-0.1,0-0.2,0-0.4,0C591.5,74.1,577,84.5,575,93.7c-1.2,5.5,2.4,10.6,10.6,15.2l3,1.7l2.6-2.2
		c19.6-16.8,61.2-20.2,93.7-22.3c-0.9,25.8,1.4,52,3.6,77.4c1.5,17,3,34.5,3.5,51.3l0,1.6l1,1.3c0.3,0.4,0.6,0.8,0.9,1.2
		c1.6,2.2,4.5,5.9,9.5,5.9c1,0,2-0.1,3.2-0.5l3.8-1l-0.2-3.9c-0.9-17.2-2.5-34.8-4.1-51.9c-2.5-27.4-5-55.7-5-83.3
		c12.7-1.5,27-2.3,41.3-2.8c-0.5,0.8-1,1.7-1.5,2.7c-0.5,0.8-0.8,1.7-0.9,2.7c-2.3,13.8-3.3,27.8-3,41.7c0.3,14.4,3,86.7,29.5,94.4
		c22.4,6.5,51.8-32.1,74.2-74.3c1.4,34.4,3,72.9,4.3,90.7c0.2,3.3,0.5,6.7,0.8,10.2c0.4,4.3,4,7.5,8.3,7.5c0.2,0,0.4,0,0.5,0
		c22.8-1.5,36.9-2.5,45.4-3c8.5-0.6,13.1-1.2,13.9-1.9l1.8-1.5v-1.6c0.8-3.5-2.1-6.7-3.1-7.8C902.6,229.7,885.8,229.6,885.6,229.6
		L885.6,229.6z"/>
	<path class="st0" d="M252.7,154.3c47.2-12.2,72.2-29.3,74.5-50.8c0.7-6.5-0.9-11.9-2.1-16.2c-11.9-41.7-63.6-57.5-83.1-63.4
		c-24.9-7.6-49.4-8.8-71.9-6.5c-0.2-0.8-0.4-1.6-0.7-2.4C167,6.8,164,2.7,159.3,1.2c-3.9-1.2-9.1-0.7-13,1.5c-3,1.6-4.9,3.9-5.7,6.7
		c-1.4,5,1.6,9.5,3.9,12.2C119.4,27.1,98,36.1,83.2,43.6c-2.7,1.2-4.5,2.2-5.1,3L75.8,49l1.8,5.8l2.5,1.1c2.6,1.1,4.4,0.2,7.3-1.3
		c0.7-0.3,1.3-0.7,2-1c9.6-4,33.8-12.3,64.2-15.7c2.2,11.4,2.7,33.3,2.8,82.8c0,8.2,0,17.2,0,26.9l-0.3,1.5
		c-63.2,11.8-144.8,27-147.1,27.4C8,176.8,7,177.2,6,177.7c-2.3,1.3-4.1,3.4-4.9,6.1c-1.8,5.7,1.1,11.8,6.5,13.7l3.9,1.4
		c0.6,0.2,1.3,0.4,2,0.5c1.2,0.2,2.5,0.1,3.7-0.2c3.5-0.7,50.3-9.1,139.2-25c2.3,75.6,4.8,135.4,7.2,177.8
		c1.5,25.9,3.1,45.9,4.6,59.5c2.4,20.7,4.3,27.6,11,27.7c0,0,0.1,0,0.1,0c1.9,0,3.8-0.8,5-2.2c2.8-3.1,2.2-7.2,1.1-16.2
		c-0.9-7.2-2.2-17.1-1.7-27.4c2.9-56-0.6-142-2.5-188.2c-0.6-14.1-1.1-26.4-1.1-29.8l0.3-8.4C194.2,165.5,223.7,161.8,252.7,154.3
		L252.7,154.3z M215.2,39.4c1.6,0.3,2.8,0.5,3.6,0.7c10.5,2,30.8,6.6,49.3,14.9c22.9,10.2,35.6,22.4,37.6,36.2
		c0.9,6.1-0.4,11.2-1.3,13.8c-2.7,7.8-17.8,22.8-88.5,35.4c-12,2.1-24.2,4-36.2,5.4c-0.3-30.2-1.4-59.2-3.3-82.1
		c-0.9-10.5-1.8-19.5-2.8-27.1C186.9,36.2,201,36.9,215.2,39.4L215.2,39.4z"/>
	<path class="st0" d="M554.4,117.6c-17-2.1-31.7-3.5-44.4-4.6c2.1-9.2,1.4-18-2.3-25.9c1.1-0.4,2.2-0.8,3.3-1.3l0.1-0.1
		c37.2-14.4,49.8-16.4,54-16.2c-0.5,0.9-1.3,2-1.7,2.7c-1.8,2.7-4.6,6.7-1.2,10c3.6,3.6,9.1,0.4,14-2.8c4.5-3,9.1-6.8,12.3-10.2
		c1.9-2,7.8-8.2,5.4-14.1c-3.1-7.8-15.8-7-38-3c-21.3,3.9-42.5,10.4-60.8,17.9c-10.1-9.5-23.8-16.4-37.5-19.2
		c9.4-4,19.6-7.7,30.7-10.9c3.5-1,5.6-1.6,6.7-4.5l1.1-2.8l-3.2-5.5l-3.3-0.2c0,0-0.1,0-0.1,0c-7,0-102,21.5-150.6,87.8
		c-8.8,12-35.6,48.5-17.4,70.8c8,9.9,24.5,15.2,46,15.2c4.2,0,8.5-0.2,13-0.6c26-2.3,53.9-11.1,74.6-23.6
		c16.7-10.1,32.8-24.6,43-38.9c1.4-1.9,2.6-3.8,3.7-5.7c10.8,1.2,23.4,2.7,38.3,4.6c73.2,9.3,91.1,14.9,94.8,17.6
		c-0.8,1.2-3.9,4.4-15.4,9.1c-11.5,4.7-23.8,7.9-27.3,8.8c-33.2,8.2-59.9,4.2-70,2.7c-4.7-0.7-6.3-0.9-8.2,0.4l-1.7,1.3l-0.3,2
		c-0.1,0.9-0.2,3.2,2.2,4.9c4.1,3.1,28.3,11.8,58.5,11.8c17.5,0,37.2-2.9,56-11.5c17-7.8,36.9-19.8,35-33.2
		C661.3,132.3,620.8,125.9,554.4,117.6L554.4,117.6z M363.6,180.4c-12.9-0.2-22.8-2.9-26.5-7.2c-9.8-11.6,19.2-50.7,52.5-79.9
		C398,86,409,77.4,422.7,69c1.9,0.1,4,0.1,6.1,0l0.8,0c12.2-0.2,30.6,4,43.5,11.3c-16.5,8.6-28.7,17.5-33.3,24.7
		c-2.5,3.9-3.4,7.8-2.5,11.3c2.1,8.4,9.7,9.9,39.3,13.2c-2.2,3-4.4,5.6-6.1,7.6c-25.2,28.3-72.9,43.3-105.6,43.3
		C364.5,180.5,364,180.5,363.6,180.4L363.6,180.4z M486.9,111.1c-11.3-1-20.8-2.1-24.3-3.6c3-2.9,12.8-7.4,24.9-12.3
		C489.3,100.2,488.7,105.7,486.9,111.1z"/>
</g>
</svg>
