<?xml version="1.0" encoding="utf-8"?>
<!-- Generator: Adobe Illustrator 28.0.0, SVG Export Plug-In . SVG Version: 6.00 Build 0)  -->
<svg version="1.1" id="Layer_1" xmlns="http://www.w3.org/2000/svg" xmlns:xlink="http://www.w3.org/1999/xlink" x="0px" y="0px"
	 viewBox="0 0 502 434" style="enable-background:new 0 0 502 434;" xml:space="preserve">
<style type="text/css">
	.st0{fill:#21202F;}
	.st1{fill:#E69D5B;}
	.st2{fill:#EDEDED;stroke:#AAAABA;stroke-miterlimit:10;}
	.st3{fill:#F3CDA6;}
	.st4{fill:#E08B4A;}
	.st5{fill:#F3F3F3;}
	.st6{fill:#D7D6D5;stroke:#B2B2B2;stroke-miterlimit:10;}
	.st7{fill:#D3D3DD;}
	.st8{fill:#F3F3F3;stroke:#B2B2B2;stroke-miterlimit:10;}
	.st9{fill:#D7D6D5;}
	.st10{fill:#213147;}
	.st11{fill:#77B150;}
	.st12{fill:#642F24;}
	.st13{fill:#804C42;}
	.st14{fill:#347B3B;}
	.st15{fill:#B5592D;}
	.st16{fill:#F9BA55;}
	.st17{fill:#301A2D;}
	.st18{fill:#CA6C3A;}
	.st19{fill:#D31A1A;}
	.st20{fill:#9B9A98;}
	.st21{fill:#E14656;}
</style>
<path class="st0" d="M64.8,231.2c13-15.2,20.8-31.4,23.5-46.3c24-32,61.2-46.4,95.7-27.6c-13.6,11.5-52.9,24.2-70.8,22.8
	c-3.2,12-10.2,9.7-20.6,11c-2.5,11.3,0.2,15.3,11.5,15.9c14.8,45.4,62.5,64.2,103.3,36.3c12.3-7.8,20.3-17,24.9-23.4
	c22.2-26.4,48.6-17.4,48.7,19.8c3.9,0,7,0,10.9,0c-9.6-18.2-4.3-32.4,2.2-5.1c5.8,13.6,21.5,17.9,31.9,27.3
	c58.2-26.4,77-31.3,79-27.8c-1,7.6-6.1,15.2,4.4,23.9c-25.2,46.5-69.3,42.1-106.4,8.5c-30-23.2-34.7-43.3-49.5-42.7
	c-8.4,0.3-20.7,7.3-35,42.1c23.9-5.8,89.3-7.1,107.7,16.9c9.4,15.4,8.9,43-12.3,35.8c17.4,11.4,13.8,30,38.3,4.6
	c11.7,7-33.5,34.2-35,2.4c-23.4,6.1-33,15.9-26.4-17.2c24.1,6.3,20,7.2-4.3,4.3c-6.5-19.5-34.2-25.3-51.5-9
	c-4.8,1.8-8.9-2.2-9.2,4.7c6.4,0.4,4.3,8.4,2.2,12.3c-0.2,23.3-15,8.6-26.4-1c1.8-7.3-4.6-15.5-10.6-19.9c5.7-0.3,5.1-4.2,4.7-8
	c33.6-65.9-67.1,26.4-92-58.4c-10-54.2-43.4,0.9-24.9,30.4C74.2,253,69.5,242.1,64.8,231.2z M220.2,282.7
	c23.9,1.8,33.8,5.8,53.7,3.1c3.1,0,19.4-1.6,22.4,5.8c0,2.4-3.3,4.5-7.1,3.9c24.9,26.4,34.7-22.2,8-22.2
	c-25.4,2.3-46.2,4.1-89.8,6.2c-9.9,0.5,5.8,25.4,9.9,24.5C219.3,303.5,220.8,298.3,220.2,282.7z"/>
<path class="st1" d="M417.8,273.7c16.9,27.6,15.1,39.3,10.2,44.9c-5.5,6.3-14.7,4.3-23.6,12.7c-9.3,8.7-8.1,19.1-10.5,27.7
	c-5.8,21.2-33.4,32.4-58.5,42.5c-62.5,25.3-123.8,13.7-131,12.3C147.5,400.6,74.5,367.3,91.2,334c-18.8,4-29.3-11.4-18.3-30.9
	c-4.8-5.1-5.9-11.2-3.9-17.8c6.2-12.4,23.8-10.2,32.4-20.1c30.6,19-20.3,4.7-23.9,24.5c12.8,0,13.6,7.5,1.8,9.6
	c-11.9,18.8,1.6,36.3,15.8,21.4c14.3,8.3,21.5,7.8,31.3-6.6c9.2,9,24,3.5,20-9c4.3,15.8,19,40.4,33.7,16.3c6.5-3.5,21.7-3.9,8.6,1.9
	c-12.5,13.9-38.8,20.2-42.7-2.9c-8.4,6.5-21.2-7.1-20.2,3.2c-1.4,16.6-32.9,3.7-25.6,12c50.6-11.4,176.4-44.2,245.2-17.8
	c22.7,5.5,41.2,10.4,53.5,13.8c-27-3.6-46.6-6.2-32.3-16.9c3.6,9.1,26.8,29.5,29.9,5.7c8.7,9.1,24.7,7.1,28.9-2.6
	c8.7-14.1-31.1-16.6-1.6-20.5c-19.6,1.3-50.5-1.8-73.9,3.5c12.9-15.8,92.6,3.9,70.9-16.4l0,0c-0.3-0.3-0.6-0.6-1-0.9l0,0
	c-7-5.8-17.3-5.9-26.4-7.2C384.5,267.4,410.9,270.1,417.8,273.7z M424.4,301.6c2.3-1,0.2-2-0.8-3.3
	C421.3,299.4,423.3,300.4,424.4,301.6z"/>
<path class="st2" d="M82.7,196.9c-5.1,33.7-26.7,37.8-2.5,3.5c-24.2-6-36.7-18.8-26.9-48.3c27.5,84.6,19.9-188.6,277.1-94.8
	c-29.6-7-100.8-19.9-148.2-0.4c6.2,4,14,4.8,5.4,10.2c-6.9-13.5-49.7-0.6-32.2,8.5c-2.2,5.3-8.1-1.3-13.9-2.5
	C116,90.1,67,139.9,110.2,163.5c-5.2,6.9-29.1,18.3-11.4,20.3c-16.6,6.9-28.6,5.8-45.8-8.7C57.9,189.7,69.2,193.8,82.7,196.9z
	 M67.3,183.9c11.8,3,22.5-11,22.9-29.2C84.2,166.3,79.2,177.2,67.3,183.9z"/>
<path class="st0" d="M339.4,70.7c-267-82.7-253.5,161.6-274.6,82c3.7,16.3,21.9,6.4,21.7-6.4c41.3-132.3,289-131,337,5.6
	C389.2,127.9,402.3,88.4,339.4,70.7z"/>
<path class="st3" d="M85.4,134.3c-8.6-18,39.1-64.8,89.7-86.1c113.6-45.2,237.1,28.5,247,90.9c-7.9,15.3-55.7-9.7-146.6-13.9
	C159.4,119.7,94.7,153.6,85.4,134.3z"/>
<path class="st4" d="M86.9,335.8c-8.3,24,67.3,77.2,150.7,81.5c70.3,3.6,137.8-27.9,174.4-81.7C150.6,303.7,93.1,317.9,86.9,335.8z"
	/>
<path class="st0" d="M435.2,201.1c3.2,4.3-6.5,18.3,3.5,25c-4.9,9.5-0.9,29-13.6,35.6c9.4-21.1,0.4-77.9-14.9-34.5
	c0.3-23.1,17.1-16.4,14.5-36.9c-41.1-9.8-45.5-43.7-99-37.2c-0.1,1.9-0.2,2.6-0.2,3.4c-10.9,0-35.2,18.3-35.3,26
	c-48,48.6,6.6-55,81.4-31.5c28,7,50.7,58.9,77.5,23.3c3.2,16.9-25,14.7-18.7,28C432,197.1,433.2,194.8,435.2,201.1z M344.5,152
	c-0.3,1.3,1.1,0.7,2,0.8C346.8,151.5,345.4,152.1,344.5,152z"/>
<path class="st5" d="M83.9,270.1c-5.8,3.4-12,6.3-14.9,12.9c-6.9-3.3,3.6-13.1,10.4-13.8c-17.9-9.7-13.9-22.2-14.5-38
	c10.1,1.1-2.5,25.7,14,32.6c-18.7-27.5,15.9-85.5,21.1-31.6c-8.5-17.7-15.1,26.2-18.3,4.5C75.3,244.2,80.1,260.7,83.9,270.1z
	 M83.5,233c-0.4-0.1-0.3,0-0.2,0.3C83.3,233.3,83.5,233,83.5,233z"/>
<path class="st6" d="M443,180.3c-6.9,9.8-45.2-21.9-29.3-28c2.3,14.7,35,28.2,20.5,10.1c-5,11.1-13.9-20-13.2-21.1
	c3.1-7.3,11.1,20.6,29.5,8.8c5.3,6.7-3.1,12.8-10.5,12.4c-5.4-3.9,0.9,5.9,9.6,5.8C444.3,173.1,429,178.1,443,180.3z"/>
<path class="st5" d="M425,261.8c13.7-6.5,6.1-23.1,14.1-33.7C447.8,236.5,421.3,285.5,425,261.8z"/>
<path class="st7" d="M75.9,142.8c9.4,8.8-17.6,29.3-20.4,7.8C63.3,159.1,70.5,150.8,75.9,142.8z"/>
<path class="st5" d="M435.2,201.1c-3.3-9-2-0.7-5.7,1c-1-12.5,17.1-12.3,22.7-27.9C454.3,188,443.4,193,435.2,201.1z"/>
<path class="st8" d="M443,180.3c-21.1-7.8,21.9-4.2-4-17.8C455.6,155.6,453.1,171.4,443,180.3z"/>
<path class="st9" d="M449,174.4c0.4-1.7,0.8-3.4,1.2-5.1C452,171.7,452.2,177.2,449,174.4z"/>
<path class="st3" d="M371.5,151.1c-18.8-11.8-70.6,13.2-63.9,1.8c-16,2.1-39.8-31.2-41.6-19.6c6.8,41-43.4-5-63.4-6.5
	c-2.9,10.6,17.4,40,7.6,35.3l0.1,0.1c-0.4-0.3-0.8-0.7-1.2-1l0.1,0c-16.5-11.3-39.9-19.8-58.1-8.8c-8.2-4.6-16.7-14.2-26.1-19
	c-6.4,5.6-0.5,16.4,1,23.4c-59.3,2.6,27-40.7,22.1-38.8c37.6-10.8,118.3,7.1,162-7.9C323.1,112.8,396.4,127.1,371.5,151.1z"/>
<path class="st10" d="M212.6,164.1c6.4,6.5,10.7,11.7,13.8,15.7c5.6,7.3,6.5,12.2,10.4,12.8c12.2-2.1,11.6-20.1,40.4-9.7
	c39.4-51.3,107.4-53.6,135.8,3.8c16.9-10.7,28.8,11.5,10.8,20.2c-6.1,7.6-12.9,28.8-12.2,38.9c-11.8,7.1-23.8,11.3-21.8-1
	c31.3-61.7-35.3-71-100.8-45.6c7.9,14.6,26.2,59.1-8,40.6c-6.8-34.4-35.9-43.1-41.5-10.4c1.9,11.2-11.4,26.4-26.6,21.7
	c3.9-15.4,20.6-28.8,12.9-50.6c3.8-31.9-57-48.4-77.9-37c-4,9.2-18.9,15.6-28.3,16.9c-20.2,29.5,7.3,58.3,20.4,80.6
	c-22.1-11.5-33.2-29.8-35.9-53.9c-10.9-0.6-14.4-4.7-11.5-15.9c10.4-1.3,17.5,1,20.6-11c9.4-12.7,26.6-16.2,37.5-27.4
	c17.7,0.7,40.7,2,59.4,9.5c0,0-0.1-0.1-0.1-0.1C211,162.8,211.8,163.4,212.6,164.1z M278,197.6c1.2,3.3,2.8,1.1,4.9-0.2
	C282,194.3,280,196.8,278,197.6z"/>
<path class="st11" d="M300.1,273.4c26.7,5.1,2.7,41.4-7.2,14.5c-25.7,5.7-49-0.4-72.2,0.2c19.8,6.2-4.2,19.4-5.9,17
	c-15-11.1-14.5-35.2,10.9-31.9C255,284.7,271,278.8,300.1,273.4z"/>
<path class="st12" d="M398.9,194.5c11.7,44.2-32.1,70.7-72.9,67.5c-13.8-9.8,66.4,12.1,46.3-56.6
	C382.6,205.3,391.4,201.6,398.9,194.5z"/>
<path class="st13" d="M344,257.1c-27.9,16.2-23.7-5.4-47-14c-13-9.1-15.6-42.9-0.9-51.8c13.1-8,33.4,2.5,31.8,18.5
	C307.2,223.9,319,258.4,344,257.1z"/>
<path class="st14" d="M355.6,300.7c17.3-5.7,35.2-2.1,52.7-3.6c-10.8,6.2-21.7,12.4-33.3,19c7.8,21.3,10.7,15.1,26.2,11.5
	c-2.6,22.9-27.2-4.6-28.5-11c-5.1,5.8-8.3,9.2-15.8,9.1c-13.2-1.8-29.6,26-36.6-5.3C304.3,308.5,340.6,295.6,355.6,300.7z
	 M348.8,308.6c-41.4,4-9,45.3,0.4,0.4C349.1,308.9,349,308.7,348.8,308.6z M351,320.3c12-7.9,25.3-11.4,38.3-16.3
	C370.5,297.3,357.7,302.7,351,320.3z"/>
<path class="st15" d="M315,276.8c-16-15.6-78.3-6.8-103.6-11.7c69.4-111,60.1,30.6,163.6,8.3C402.1,278.9,327.9,280.9,315,276.8z
	 M293.4,262.7c-43.8-52.9-33.2-55.6-72.1,1.4C245.6,274.7,269.5,271,293.4,262.7z"/>
<path class="st12" d="M225.8,200.4c14.8,52.5-67.7,88.1-97.2,44.4c-6.3-10.2-22.8-40.3-3.2-42c22.9,2.9,13.7,6.6-4.2,2.4
	c-9.4,41.9,35.4,63,68.3,49.8c30.2-12.1,44.7-74.3,7.3-56.9C209.1,181.9,215.1,181.3,225.8,200.4z"/>
<path class="st15" d="M356.8,325.7c59.7,18.1-9.5,25.6-33.1,21.2c4.8-19.5-23.6-5.6-29.1-12.2C323.2,308.9,321.3,366.4,356.8,325.7z
	"/>
<path class="st16" d="M210,266c-16.6,34.2-1.8,49.2-66.9,32.9C113.6,257.5,160.5,255.2,210,266z"/>
<path class="st9" d="M83.9,270.1c-3.9-9.4-8.6-25.9-2.3-33.3c3.2,21.7,9.8-22.2,18.3-4.5C89.3,187.7,123.9,267,83.9,270.1z"/>
<path class="st16" d="M315,276.8c14.2,4.1,29.5-2.4,44.9,4.3c9.5,17.9-12,21.9-25.8,19.6C368.4,288.5,313.8,304.1,315,276.8z"/>
<path class="st14" d="M198.1,321.8c-15.6-4.8-16.9,12.5-30.2,13.9c15.3-13.9,24.6-34.4-7-24.6c-25.2-15.9,16.7-8.2,30.1-11.2
	C196.8,304,208.1,317.6,198.1,321.8z"/>
<path class="st1" d="M148,118c-1.2,4-78.9,35.3-20,42.2c-7.6,4.8-18.4-3.1-27.2-3.7C76,137.8,130.9,107,148,118z"/>
<path class="st17" d="M229.8,317.8c2.3,12.7-3.8,27.4,6.2,37.8l0,0c14.2,14.5,38.4,11.2,51-4.9C283.2,388.2,200.2,372.3,229.8,317.8
	z"/>
<path class="st4" d="M386.1,272.9c-28.3,4.5-15.7-7.9,1.9-8c9.6,1.3,13.5-11.5,16.2-18.9C424.4,245.4,400.4,275.1,386.1,272.9z"/>
<path class="st6" d="M100.8,156.5c29.8,4.4,21.1,9.5,1.9,26.7c-22.8,0.3-0.3-12.2,7.5-20.3C106.9,160.6,103.8,158.5,100.8,156.5z"/>
<path class="st14" d="M326,262c37.1-0.4,50.9-5.5,71.9-36C393.7,256.1,352.8,274.9,326,262z"/>
<path class="st10" d="M230.6,297.6c-0.8-5.3-10.6-7.4-8.9-11.5c23.9,10.6,55.8-4.1,72.2,6.6C275.5,285.7,252.1,301.3,230.6,297.6z"
	/>
<path class="st15" d="M200.1,276.4c-16-3.5-50.3,11.3-56.3-3.5C154.5,275.9,224,254.5,200.1,276.4z"/>
<path class="st15" d="M224.9,335.8c-26.6-16.7-64.8,27.8-74.8-2.6C174.7,358.3,198.5,306.7,224.9,335.8z"/>
<path class="st4" d="M191,299.9c-14.7-1.5-36.5,6.2-47.9-1C153.3,299.2,209.4,284.4,191,299.9z"/>
<path class="st4" d="M143.8,273c1.1,16.1-46.5-6.3-40.9-18.1C115.6,265.8,127.8,269,143.8,273z"/>
<path class="st3" d="M128.9,268.5c-12.5-2.1-30.6-10.7-24.1-24.8C112.8,251.4,122.9,259.2,128.9,268.5z"/>
<path class="st17" d="M320,200.2c-21.5-15.5-28.6-2.1-30.3,20C280.2,196.2,304.2,170,320,200.2z"/>
<path class="st10" d="M82.7,196.2c-13.4-3.1-24.7-7.2-29.7-21.8c13,7.4,12.4,13.5,31.1,12.7C88.9,191.2,91,197.5,82.7,196.2z"/>
<path class="st14" d="M297.1,273.2c-28.2,7.6-43,10.1-71.4,0C251,277.3,271.7,275.6,297.1,273.2z"/>
<path class="st12" d="M289.7,220.2c3-10.1,1-22.8,11.3-28.9c-14.1,24.8-6.1,38.8,8,58.6C296.7,244.9,292.2,232,289.7,220.2z"/>
<path class="st12" d="M287,350.6c-11.1,13.9-33.1,20-46.9,7.9c16.3,4.9,51.3,1.4,49.6-23.3C292.3,324.9,288.9,346.3,287,350.6z"/>
<path class="st8" d="M124.8,133.5c8.4,5.3,17.2,11.3,24.1,18.5C133.7,155.6,126.5,149,124.8,133.5z"/>
<path class="st14" d="M155.9,264c19.7,1.5,39.1-2.6,54.8-15.1C208.2,263.9,171.7,270.3,155.9,264z"/>
<path class="st6" d="M124.8,133.5c2,13.9,4.6,16.4,15.6,20.3C125.7,168.5,117.4,144.8,124.8,133.5z"/>
<path class="st4" d="M321.9,293.9c8.2,0,16.3,0,24.8,0C344.3,301.6,318.2,306,321.9,293.9z"/>
<path class="st14" d="M295.8,294.7c8.1,6.5,13.1,3,17.8-7.7C317.3,314.3,281,297.8,295.8,294.7z"/>
<path class="st12" d="M207.9,325.7c-7.7,0.7-15.2,3.6-22.7,5.2C192.9,326.2,200.9,314.7,207.9,325.7z"/>
<path class="st3" d="M396.8,258.8c0.2,4.5-3.9,7.4-8.8,6.1C390.9,262.8,393.8,260.7,396.8,258.8z"/>
<path class="st18" d="M393.3,261.1c-2.6,1.4-4.9,5.4-7.3,2C388.3,262,389.9,258.2,393.3,261.1z"/>
<path class="st17" d="M228,304.9c1.3,3.8,2.9,5.9-2.3,3.7C226.3,306.7,226.7,302.1,228,304.9z"/>
<path class="st17" d="M291,334.7c-0.7-3,2-1.8,4-2C295.2,335.5,293,334.6,291,334.7z"/>
<path class="st14" d="M324.1,261c0.6,0.3,1.2,0.6,1.8,0.9C325.3,261.6,324.7,261.3,324.1,261z"/>
<path class="st14" d="M300.1,273.4c-0.4-0.1-0.9-0.1-1.3-0.2C299.2,273.3,299.7,273.3,300.1,273.4z"/>
<path class="st17" d="M296.2,331.8c-0.4,0.3-0.9,0.6-1.3,0.9C295.4,332.4,295.8,332.1,296.2,331.8z"/>
<path class="st15" d="M126.9,389.6c-18.9-10.9-28.7-26.7-26.1-49c29.3,15.9,58.7,15.9,91.7,17.5c-15.7,12.5-59.4-5.5-85.9-5.1
	c46.6,77,247.7,47.7,289.9,8.2C332.3,435.6,202.5,404.9,126.9,389.6z"/>
<path class="st12" d="M193.5,361.9c-26-11.5-64.7-1.6-92.7-21.3c-8.1-8.5,7.6-1.7,12.4-1.8c33.4,18.1,97.1-7.3,114.8,19.3
	c-15.8-2.2-21.4,1.3-21.2,18C199.6,394.8,193.6,371,193.5,361.9z"/>
<path class="st11" d="M127.5,316c-10,16.5-17.4,17-31.9,7.6c-25.2,25-42.1-42.5,32.6-24.8c-3.1,2.9-21.7,15.9-14.8,21.6
	C117.1,319.1,126,304.9,127.5,316z"/>
<path class="st12" d="M148.8,395.3c79.9,16.5,164.8,25.1,237.2-19C374.7,431.1,166.2,424.8,148.8,395.3z"/>
<path class="st11" d="M401.2,327.6c-15.5,3.6-18.4,9.8-26.2-11.5c11.6-6.6,22.4-12.8,33.3-19c13,2.4,24.7-5.8,10.6,5.1
	c14.8,1.7,6,16.8,3.1,26.4C414.7,334.9,403.8,319.6,401.2,327.6z"/>
<path class="st4" d="M225.8,347.4c-38,0-75.5,1.5-112.6-8.6c11.1-7.2,31.7-20.5,37.9-1.1C165.9,361.5,219.3,305.8,225.8,347.4z"/>
<path class="st12" d="M286.9,359.1c14.3-29.3,72.3,2.5,94.8-19.2C448.7,344.2,315.1,364,286.9,359.1z M316.5,348.8
	c0.4,0.6,0.9,0.7,1.4,0.2C317.6,349,317.3,348.9,316.5,348.8z"/>
<path class="st19" d="M146.7,289.7c9.2,24.8-13.2,5.4-35.4,4.8c-8.9-0.1-21.3,2.4-36.3,14.6C67.7,270.3,113.7,253.5,146.7,289.7z"/>
<path class="st19" d="M359.2,295.6c13.5-9.1,33.1-19.5,49.4-25.9c8.7-0.2,26.7,11,24.7,27.3C411,294.2,381.2,293.7,359.2,295.6z"/>
<path class="st13" d="M295.7,360.9c33.5,6.7,135.8-38.5,89.2,18.8c-12.3-2.5,7.2-12.3,4.6-18.8C359.7,358.4,321.1,367.2,295.7,360.9
	z"/>
<path class="st11" d="M143.9,300.8c14.1,9.2,26.9,8.5,40.6,10.1c-13.9,35.5-28.5,26.8-36.6-5.1C146.5,304.2,145.3,302.4,143.9,300.8
	z"/>
<path class="st14" d="M143.9,300.8c12.6,11.2-3.5,29.6-16.4,15.3c-1.5-11.1-10.4,3.1-14.1,4.4C108,308.1,133.5,293,143.9,300.8z"/>
<path class="st12" d="M411,274.1c-15.9-2.6-44,24-51.2,7C378.6,278.1,392.5,267.2,411,274.1z"/>
<path class="st17" d="M142.8,299.6c-19.9-1.2-39-3.3-58.8-1.1C86,286.9,150.1,293.6,142.8,299.6z"/>
<path class="st12" d="M146.7,289.7c-7.2-6.1-37.7-8.9-32.1-18.7C124.8,280.7,152.4,271.4,146.7,289.7z"/>
<path class="st20" d="M406.9,264c0.8-1.4,1.6-2.9,2.4-4.3c3.7,4.9,7.2-2.3,10.9-0.2C428.9,271.7,418.8,268.9,406.9,264z"/>
<path class="st14" d="M421.9,328.6c3.5-7.2,4.5-15.1,5.8-23C437.5,311.7,433.8,328.6,421.9,328.6z"/>
<path class="st13" d="M143.8,393.4c1.3,2.7,3,5,5.2,7.1C131.1,395,118.1,378.8,143.8,393.4z"/>
<path class="st15" d="M149.2,330.6c-7.7-3.4-25.7,1.6-21.4-10.7C135.2,331.8,149.2,316.5,149.2,330.6z"/>
<path class="st17" d="M423,291.9c6.7-0.6,2.5-11.2,7-9C436.6,291.7,432.7,292.8,423,291.9z"/>
<path class="st17" d="M431.7,301.7c-1.1-1.4-3.2-2.5-0.8-3.7C431.9,299.4,434,300.5,431.7,301.7z"/>
<path class="st17" d="M427.9,297c0.5-3,1.4-1.9,3.1-0.3C430,296.8,428.9,297,427.9,297z"/>
<path class="st17" d="M430,282.9c0.4-0.7,0.6-2,1.4-1C430.9,282.2,430.5,282.6,430,282.9z"/>
<path class="st12" d="M110,272.2c-1,0.2-2,0.5-3,0.7C108,272.7,109,272.5,110,272.2z"/>
<path class="st17" d="M427,280.9c-0.3-0.3-0.7-0.7-1-1C426.4,280.2,426.7,280.6,427,280.9z"/>
<path class="st17" d="M424,278.8c-0.3-0.3-0.6-0.6-0.9-0.9C423.4,278.2,423.7,278.5,424,278.8z"/>
<path class="st12" d="M415,274.9c-0.4-0.2-0.8-0.3-1.2-0.5C414.2,274.5,414.6,274.7,415,274.9z"/>
<path class="st17" d="M426,279.9c-0.4-0.3-0.8-0.6-1.2-0.9C425.2,279.3,425.6,279.6,426,279.9z"/>
<path class="st17" d="M428,282c-0.3-0.4-0.7-0.7-1-1.1C427.3,281.3,427.7,281.6,428,282z"/>
<path class="st18" d="M190.7,43c78.6-27.1,149,11.3,162,18.7c-24.8,3.8-47.2-17.8-54.4-2.5c-10.4,1.8,39.4,12.6,36.8,31.5
	c-27.1,5.6-51-6.1-77.8,2.7c-3.9-8.2-9.5,1.5-16.3-3.7c-28.2,1.8-19.6-21.8-28.6-7.5c-13.9,1.5-33.2,4.8-54.9,12.4
	C113,110.1,90.1,132.5,88,130C84.9,126.3,122.8,66.4,190.7,43z"/>
<path class="st15" d="M333.9,87.6c-3-17.4-28.8-21.4-41.1-28.4c-0.7-3.7,1.2-12.3,8-11c39.3-1.5,72.4,31,99.2,51.5
	c0.7,3.2,16,39.9,17.9,41.7c-3.2,15.4-19.7,27.3-33.3,15.6c27.6-23.1-27.4-62.3-49.6-66.3C334.6,89.6,334.2,88.6,333.9,87.6z"/>
<path class="st4" d="M130.9,88.7c-0.1-1,2.2-3.8,3.6-4c24.8,9.4,36.3,6.3,81.2-8c13.4,14.7,37.8,14.9,49.4,12.8
	C323,97.9,422,109.4,380,131.6c-107,33.9-194.7,9.9-284.8,6.2C86.7,126.4,114.8,89.9,130.9,88.7z"/>
<path class="st18" d="M400,99.6c-19.4-16.9-35.4-25.9-55.2-40C359.3,56.7,404.9,89.4,400,99.6z"/>
<path class="st9" d="M67.3,183.2c11.9-6.7,16.9-17.6,22.9-29.2C89.9,172.2,79.1,186.2,67.3,183.2z"/>
<path class="st4" d="M400,99.6c10.4,1.3,12.7,32,22,39.4C415.2,150.1,402.6,102.1,400,99.6z"/>
<path class="st8" d="M232.2,188.2c-28.8-25.5,39.2-22.6,47.3-27.6c-4.8-9.7-9.2-18.5-13.5-27.3c1.9-11.7,25.6,21.7,41.6,19.5
	C286.5,168,257.3,172.3,232.2,188.2z"/>
<path class="st1" d="M377,115.2c16.8,10.7,23.3,54.1-5.6,35.9c25.3-21.4-42.1-36.6-53.5-39.6C336.1,105.2,359.4,118.7,377,115.2z"/>
<path class="st9" d="M232.2,188.2c41-24.6,108.7-42.6,22.9-1.9C249.5,192.6,234.2,199.9,232.2,188.2z"/>
<path class="st9" d="M424.1,263.9c-1.5-1.4-7-2.5-3.8-4.4c-19.2,5.5-4.7-5.6-6.2-16.8C402.4,212.7,439.3,248.9,424.1,263.9z"/>
<path class="st5" d="M428.6,252.3c-7.4-15.5-17.9-26.4-11.3-44.4C432.5,214.8,427.4,236.6,428.6,252.3z"/>
<path class="st8" d="M405,160c17.8,9.5,54.4,37.8,6.1,22.1C425.3,178.6,408.8,168,405,160z"/>
<path class="st6" d="M405,160c4.5,6.1,9,12.3,13.4,18.4C409.1,188,383.6,158.4,405,160z"/>
<path class="st12" d="M250.5,191.1c6-12.3,50.7-25.5,26.8-5.5C270.8,184.2,260.5,189,250.5,191.1z"/>
<path class="st20" d="M415.7,218.9c-5.7,13.7,0.2,23.8-4.7,37C408.8,241.9,401.8,233.9,415.7,218.9z"/>
<path class="st19" d="M252.8,192.3c6-4.1,12.6-6.8,19.9-8C275.5,196.6,260.3,192.1,252.8,192.3z"/>
<path class="st10" d="M344.5,152c0.9,0.1,2.3-0.5,2,0.8C345.6,152.7,344.2,153.3,344.5,152z"/>
<path class="st9" d="M83.5,233l-0.2,0.3C83.2,233,83.1,232.9,83.5,233z"/>
<path class="st8" d="M418,141.4c4.6-2.9,9.6,33.2,16.3,21c0.7,5.8,2.3,6.1,7.8,8C423.7,172.2,407.6,157.7,418,141.4z"/>
<path class="st10" d="M440,162.5c-0.2-0.2-0.7-0.2-0.9-0.1C433.3,162.2,442.2,160.4,440,162.5z"/>
<path class="st13" d="M420,144.5c0.3-1.1,0.7-2.1,1-3.2C421.7,142.9,422.9,144.7,420,144.5z"/>
<path class="st4" d="M377,115.2c-43.5-3.4-98.9-11.4-143.1-10.5c6.5-2.8,5-9.6,7-15.1C307.3,95.8,327.1,60,377,115.2z"/>
<path class="st6" d="M266,133.4c31,43.2-15,23.6-43,40.7c-10.2-8.3-12.9-21.2-18.1-32.7C208.6,153.9,274.7,175.2,266,133.4z
	 M225,157.7l-0.4,0.2C225,158,225.1,158.1,225,157.7z"/>
<path class="st8" d="M265.1,152.4c-24.9,11.4-65.3,2.9-62.6-25.5C225.2,133.5,241,146.5,265.1,152.4z"/>
<path class="st16" d="M233.9,106.6c78.3-6.9,144.3,15.2,144,16.4c-0.1,0.5-13.2-1.7-182.4-10C195.5,111.4,216.2,108.2,233.9,106.6z"
	/>
<path class="st0" d="M209,161.3c-19.2-6-40-7.9-57.8-8.8C169.2,141.2,192.7,150.3,209,161.3z"/>
<path class="st1" d="M233.9,106.6c-95.9,28.2-121,27.1-124.3,19.7c-3.2-7.2,13.4-21.5,23.7-28c27.4-17.5,65.3-15.6,99,5.1
	C232.8,104.5,233.4,105.5,233.9,106.6z"/>
<path class="st0" d="M212.6,164.1c-0.8-0.7-1.7-1.3-2.5-2C211,162.8,211.8,163.4,212.6,164.1z"/>
<path class="st0" d="M214.5,164.6c0.5,1-0.4,0.9-1.2,1.1C212.8,164.2,213.2,164.3,214.5,164.6z"/>
<path class="st9" d="M204,139.4c0.3,0.4,0.6,0.8,0.9,1.2C204.6,140.1,204.3,139.8,204,139.4z"/>
<path class="st0" d="M210.2,162.2c-0.4-0.3-0.8-0.7-1.2-1C209.4,161.5,209.8,161.9,210.2,162.2z"/>
<path class="st8" d="M114.6,195.2c-2.6-13.8,19.5-24.9,13.2-6.4c28.7,0,44.9-18.5,77.6-9.2C179.2,202.5,146.5,199.7,114.6,195.2z"/>
<path class="st6" d="M114.6,195.2c31.9,4.6,64.7,7.3,90.8-15.6c-27.4-15.8-75.5,28.6-76.5-2.2c23.5-16.7,55.9-14.1,80.2,0.1
	C196.6,206.6,133.5,212.9,114.6,195.2z"/>
<path class="st0" d="M125.7,203.1c68.5,13.3,126.8-43.9,22.3-39.7c20.9-11.3,81.7,5.2,77.9,37.1
	C202.3,159.3,210.8,224.1,125.7,203.1z"/>
<path class="st0" d="M398.9,194.5c-13.1,18.1-39.2,3.4-52.3,15.7c-0.9-16.6,36-5.8,49.6-18.1c-17.4-19.3-38.4-36.6-66.1-29.6
	C360.8,154.6,382.2,169.2,398.9,194.5z"/>
<path class="st17" d="M147.9,163.4c11.6-1,35.9-4.5,46,5.9C181.2,165.2,150.8,169.4,147.9,163.4z"/>
<path class="st0" d="M303.4,183.1c-7.5,2.6-10.1,10.1-14.4,16.1c7-17.6,18.9-31.7,38-35.8C320.1,171.2,305.8,172.3,303.4,183.1z"/>
<path class="st0" d="M114.2,197c16.3,6.4-3.5,7.1,3.6,27.1C111,219.2,112.1,205.2,114.2,197z"/>
<path class="st0" d="M278,197.6c2-0.8,4-3.3,4.9-0.2C280.8,198.7,279.2,200.9,278,197.6z"/>
<path class="st0" d="M326.9,163.2c1-0.2,2.2-1,3.1-0.8C329,162.5,327.7,163.5,326.9,163.2z"/>
<path class="st17" d="M346.5,210.2c38.4-27.4,38.8,50.1-2.5,46.9c-27.5-2.6-36.4-34.7-22.1-54C316.5,226.2,339.9,225.6,346.5,210.2z
	 M363.9,229.5c-6.8-7.1-13.8-5.5-20.8,5C350.1,235.6,356.1,233.5,363.9,229.5z"/>
<path class="st0" d="M340.6,217.8c-16.9,10.4-18-2.3-20.7-17.7c-10.5-10,18.9,1,24.8,4.1C331.2,200.2,323,218.3,340.6,217.8z"/>
<path class="st11" d="M349.2,309c-9.5,44.9-41.8,3.5-0.4-0.4C349,308.7,349.1,308.9,349.2,309z"/>
<path class="st10" d="M351,320.3c6.7-17.6,19.4-23,38.3-16.3C376.4,308.9,363,312.4,351,320.3z"/>
<path class="st11" d="M348.8,308.6c0.1,0.1,0.3,0.3,0.4,0.4C349.1,308.9,349,308.7,348.8,308.6z"/>
<path class="st16" d="M293.4,262.7c-23.9,8.3-47.9,12-72.1,1.4C260.2,207.1,249.6,209.7,293.4,262.7z"/>
<path class="st17" d="M184.6,205.8c60.4,17.8-73,102.1-43.7,2.4c1.7-6.1,13.6-1.6,19.2-2.9c8.4-0.8,5,8.6,11.8,11.6
	C184.9,227.8,201.9,210.5,184.6,205.8z M146.9,228.3c4.4,6,12.9,7.9,19.4,5.5C160.9,225.4,154.4,223.6,146.9,228.3z"/>
<path class="st13" d="M135.4,202.7c15.2,0.2,6.1,8.3,2.2,20.6c-11.9,43.7,55.8,27.8,61.3,2c0.1-2.2,0.1-10.9-17.3-21.8
	c2.6-6.1,19.9-17.4,32.7-6.6c17.8,19-5.1,54.9-24.9,58.2C123.9,282.4,86.8,185.5,135.4,202.7z"/>
<path class="st4" d="M323.7,346.9c-11.5-2.1-35.6,8.3-28.6-10.2C304.5,337.2,327.8,330.3,323.7,346.9z"/>
<path class="st0" d="M295.2,336.7c-1.2,5.2-0.1,17.7-8.2,13.9C288.6,346.5,289.9,328.4,295.2,336.7z"/>
<path class="st18" d="M102.8,252.7c1.7,11.8-6.1-1.3-1.2-6.5C102,248.6,102.4,250.7,102.8,252.7z"/>
<path class="st15" d="M301.9,359.7c-62,27.3-37.5,22.9-92.5-1.5c6.6,0,12.6,0,18.6,0C250,387,275.6,357.8,301.9,359.7z"/>
<path class="st12" d="M237,356.5c1,0.7,2,1.3,3,2C239,357.8,238,357.2,237,356.5z"/>
<path class="st12" d="M234,353.3c0.3,0.4,0.7,0.8,1,1.2C234.6,354.2,234.3,353.8,234,353.3z"/>
<path class="st12" d="M235,354.6c0.3,0.3,0.7,0.7,1,1C235.6,355.2,235.3,354.9,235,354.6z"/>
<path class="st12" d="M236,355.5c0.4,0.3,0.7,0.7,1.1,1C236.7,356.2,236.3,355.9,236,355.5z"/>
<path class="st18" d="M103,257.8c0.4,0.4,0.1,0.4-0.3,0.3C102.7,258.2,103,257.8,103,257.8z"/>
<path class="st6" d="M344.7,204.2c-89-21.7,0.4-59.7,32.3-15.5c-32.7-9.7-37.5-12.3-67.8-6.6c12.1,13.7,59.6,19.2,77.8,9.8
	c-6.3-9.5-8.2-11.9,3-4.9C403.8,201.4,355.6,198.7,344.7,204.2z"/>
<path class="st0" d="M304,184.1c0.3,0.4,0.6,0.8,0.9,1.2C304.7,184.9,304.3,184.5,304,184.1z"/>
<path class="st1" d="M285.9,365c263.5-18.2-136.4,97.4-179.3-12c27.8,7.2,68.7,2.8,87.3,13.4c-79.6-3.9-28.4,18,10.6,14.8
	C243.7,402.2,402.2,368.5,285.9,365z"/>
<path class="st13" d="M148.8,395.3c-1-0.5-1.9-1.1-2.9-1.6C146.9,394.2,147.8,394.8,148.8,395.3z"/>
<path class="st3" d="M285.9,365c143.7-1.5-104.6,57.5-77-3.4C243.7,360.8,244.6,397.9,285.9,365z"/>
<path class="st3" d="M197.1,380.4c-15.5-0.9-39.6,0.2-50.1-11C163.7,367.8,197.2,355,197.1,380.4z"/>
<path class="st15" d="M208.9,361.6c-0.7,4.9-1.4,9.7-2.1,14.6C207.5,371.3,208.2,366.5,208.9,361.6z"/>
<path class="st15" d="M206.6,376.7c-0.2,0.6-0.5,1.2-0.7,1.8C206.1,377.8,206.3,377.2,206.6,376.7z"/>
<path class="st15" d="M316.5,348.8c0.8,0.1,1.1,0.1,1.4,0.2C317.4,349.5,317,349.4,316.5,348.8z"/>
<path class="st0" d="M147.9,305.8c-0.3,0-0.6,0-1.2,0C146.9,304.2,147.2,305,147.9,305.8z"/>
<path class="st5" d="M225,157.7c0,0.4-0.1,0.4-0.4,0.2C224.6,157.9,225,157.7,225,157.7z"/>
<path class="st4" d="M232,103.5c0.4,0.3,0.8,0.7,1.2,1C232.7,104.2,232.3,103.9,232,103.5z"/>
<path class="st5" d="M184.6,205.8c6.4,14.5-19.8,15.8-18.5,0.8C172.3,205.7,178.4,204,184.6,205.8z"/>
<path class="st17" d="M339.9,167.2c-53.7,8.9,26.9-26.8,50.1,19.9C373.7,177.4,361,162.5,339.9,167.2z"/>
<path class="st5" d="M344.7,204.2c7.7,12.8-16.5,20.5-14.4,3.7C334.4,204,339.6,204.1,344.7,204.2z"/>
<path class="st5" d="M363.9,229.5c-7.8,4-13.8,6.1-20.8,5C350.1,224,357,222.3,363.9,229.5z"/>
<path class="st0" d="M340.7,217.8c0.7-0.4,1.5-0.8,2.2-1.2C342.1,217,341.4,217.4,340.7,217.8z"/>
<path class="st5" d="M146.9,228.3c7.6-4.7,14-2.9,19.4,5.5C159.7,236.3,151.3,234.4,146.9,228.3z"/>
<path class="st0" d="M171.9,216.8c9.8,1.8,14-1.2,13.5-9.5C202.8,209.4,182.8,228.4,171.9,216.8z"/>
<path class="st8" d="M339.9,167.2c100.5,17.2,6.4,49.1-30.7,15c30.3-5.7,35.1-3.1,67.8,6.6C366.8,176.2,354.9,171.2,339.9,167.2z"/>
<path class="st0" d="M403.2,209.8"/>
<path class="st21" d="M228,304.9c26.1-9.5,36-6.2,29.9,19.4c0.1,0,0.6-2.7,2.5-15.1c28.7,10.8,23.5,45.2,7.2,55
	c-17.2,10.8,9.3,12.8,11.9,16.3c-9.3,9.8-47.9,7.8-48.7-21.5C231.7,343,230.6,320.9,228,304.9z"/>
<path class="st19" d="M253.7,376c16.1-10.3,29.7-44.8,6.8-66.8c1.9,28.6-10.6,7.4-17.2-4.3c14.3,1.5,39.2-9.1,47.6,3.7
	C298.8,355.8,290.4,399.7,253.7,376z"/>
<path class="st10" d="M287,302.7c-9.3,0.7-60.1,5.7-61.1,2.4C240,295.6,266.6,288.7,287,302.7z"/>
<path class="st0" d="M264.4,294.6"/>
</svg>
