<svg viewBox="0 0 1776 156.64" xmlns="https://www.w3.org/2000/svg"><g fill="#343434"><path d="m36 121.35 40.28-33.73 56.43 64.62h47.78l-76.61-87.73 71.88-60.21h-56.08l-83.68 70.09v-70.09h-36v147.94h36z"/><path d="m376.57 4.31-77.57 101.43v46.51h-36v-47.63l-76.72-100.31h45.32l49.83 65.15 49.82-65.15z"/><path d="m424 115.93v-111h-36v147h36 36 62v-36z"/><path d="m556 3.93v148h152v-36h-116v-24h104v-36h-104v-16h116v-36h-116z"/><path d="m953 3.93v55h-91v-55h-36v148h36v-57h91v57h36v-148z"/><path d="m1099.49 1.12c-49.13 0-88.95 34.72-88.95 77.55s39.83 77.55 88.95 77.55 88.95-34.72 88.95-77.55-39.82-77.55-88.95-77.55zm.51 125.48c-31.48 0-57-21.46-57-47.94s25.52-47.94 57-47.94 57 21.46 57 47.94-25.52 47.94-57 47.94z"/><path d="m1359.33 134.35c-17.53 18.69-44.16 21.42-68.29 21.44-1.55 0-3.11 0-4.66 0-24.15-.08-48.21-1.22-67.55-17.4-4.24-3.54-7.74-7.61-7.74-7.61-1.98-2.37-5.68-6.87-8.4-13.79-1.23-3.13-2.7-7.88-3.12-13.91l36.75-.15c5.36 11.99 16.32 19.26 28.96 21.83 10.28 2.09 20.89 1.47 31.38 1.38 7.09-.07 14.34.09 21.06-2.18 7.34-2.48 18-10.98 13.3-19.81-4.5-8.44-15.71-9.86-24.21-10.77-12.95-1.39-26.17-.37-39.18-.82-7.87-.27-15.75-.94-23.47-2.54-9.24-1.92-16.21-3.91-22.5-9.07-11.97-9.81-16.52-28.29-12.31-43.71 3.35-12.29 11.54-19.6 15.07-22.67 16.58-14.42 37.37-14.49 59.05-14.57 15.85-.05 30.11.06 46 7.89 0 0 17.56 8.65 26.6 22.88 3.64 5.72 5.2 11.49 5.2 11.49 1.18 4.36 1.4 8.14 1.37 10.76-11.1-.06-22.2.04-33.29.29-.17-2.06-.7-5.25-2.48-8.57-4.25-7.89-12.56-10.81-20.28-13.4-2.27-.76-9.88-3.18-21.11-3.58-7.08-.25-18.35-.53-30.5 5.06-5.27 2.43-13.33 6.14-14.47 13.13-.61 3.76 1.06 6.84 1.34 7.38 3.35 6.46 12.16 8.72 19.7 8.58 20.16-.38 49.37-.92 70.67 6.17 18.85 6.27 37.95 19.72 37.57 41.75-.16 9.75-4.25 17.93-10.44 24.52z"/><path d="m1541.02 135.2c-17.53 18.69-44.16 21.42-68.29 21.44-1.55 0-3.11 0-4.66 0-24.15-.08-48.21-1.22-67.55-17.4-4.24-3.54-7.74-7.61-7.74-7.61-1.98-2.37-5.68-6.87-8.4-13.79-1.23-3.13-2.7-7.88-3.12-13.91l36.75-.15c5.36 11.99 16.32 19.26 28.96 21.83 10.28 2.09 20.89 1.47 31.38 1.38 7.09-.07 14.34.09 21.06-2.18 7.34-2.48 18-10.98 13.3-19.81-4.5-8.44-15.71-9.86-24.21-10.77-12.95-1.39-26.17-.37-39.18-.82-7.87-.27-15.75-.94-23.47-2.54-9.24-1.92-16.21-3.91-22.5-9.07-11.97-9.81-16.52-28.29-12.31-43.71 3.35-12.29 11.54-19.6 15.07-22.67 16.57-14.42 37.36-14.49 59.03-14.57 15.85-.05 30.11.06 46 7.89 0 0 17.56 8.65 26.6 22.88 3.64 5.72 5.2 11.49 5.2 11.49 1.18 4.36 1.4 8.14 1.37 10.76-11.1-.06-22.2.04-33.29.29-.17-2.06-.7-5.25-2.48-8.57-4.25-7.89-12.56-10.81-20.28-13.4-2.27-.76-9.88-3.18-21.11-3.58-7.08-.25-18.35-.53-30.5 5.06-5.27 2.43-13.33 6.14-14.47 13.13-.61 3.76 1.06 6.84 1.34 7.38 3.35 6.46 12.16 8.72 19.7 8.58 20.16-.38 49.37-.92 70.67 6.17 18.85 6.27 37.95 19.72 37.57 41.75-.16 9.75-4.25 17.93-10.44 24.52z"/><path d="m1609 116.93v-111h-36v147h36 36 62v-36z"/><path d="m1740 3.93h36v148h-36z"/></g></svg>