<?xml version="1.0" encoding="UTF-8"?>
<svg id="Layer_2" data-name="Layer 2" xmlns="http://www.w3.org/2000/svg" viewBox="0 0 536.64 183.42">
  <defs>
    <style>
      .cls-1 {
        stroke-width: 4.9 var(--s8);
      }

      .cls-1, .cls-2, .cls-3, .cls-4, .cls-5 {
        stroke: #000;
        stroke-miterlimit: 10;
      }

      .cls-2 {
        stroke-width: 3.83px;
      }

      .cls-3 {
        stroke-width: 4.0 var(--s8);
      }

      .cls-4 {
        stroke-width: 5.15px;
      }

      .cls-5 {
        stroke-width: 4.6px;
      }
    </style>
  </defs>
  <g id="Layer_1-2" data-name="Layer 1">
    <g>
      <path class="cls-5" d="m463.43,18.15c35.09-3.82,71.03-9.53,70.91-10.58-.09-.78-19.85.57-94.47,8.28,2.7-7.46,3.82-11.29,3.36-11.5-.48-.22-2.72,3.61-6.73,11.5-15.57,2.03-27.22,4.24-27.17,6.38.03,1.19,3.71,3.17,5.11,2.17.5-.36.59-1.01.63-1.21.37-1.62,4.87-3.01,20.95-2.71-.67,6.55-1.35,13.11-2.02,19.66-2.72.28-4.38,2.11-4.24,3.29.14,1.2,2.24,2.63,5.04,2.14-.52,10.39.77,20.95,7.44,25.76,12.55,9.06,38.01-6.64,37.96-6.79-.08-.23-8.21,3.19-22.18,4.87-8.02.96-11.82.61-14.8-1.84-2.94-2.43-3.99-5.99-4.41-8.25-.02-4.86-.04-9.71-.06-14.57,4.17-.8,10.4-2.04,17.96-3.73,6.1-1.37,21.42-4.8,21.28-5.64-.09-.5-5.63.22-19.63,1.56-7.97.76-14.49,1.32-18.81,1.68.1-6.06.2-12.13.3-18.19,6.17-.53,14.2-1.28,23.55-2.3Z"/>
      <path class="cls-3" d="m382.54,97.86c.37-2.03-2.74-4.19-4.97-5.1-4.27-1.72-10.31-.57-11.95,2.16-.26.44-.81,1.58-2,2-.3.11-.6.15-.89.16-.63.01-1.17-.44-1.29-1.06-3-15.85-5.1-33.98-5.13-54-.01-6.47.2-12.7.57-18.68,0-.07.01-.12.03-.19.14-.66,1-5.2-.11-13.21-.07-.52-.3-1.04-.72-1.34-.5-.36-1.24-.32-1.7.09-.8.7-.77,3.22-.94,4.22-.33,1.91-.66,3.81-1,5.72-.66,3.73-1.31,7.45-1.92,11.18-1.21,7.42-2.07,11.94-3.59,17.09-1.57,5.35-3.65,9.62-7.79,18.16-3.6,7.42-6.33,12.06-10.47,13.59-.72.27-2.58.95-4.69.34-.99-.29-2.54-1.01-4.32-3.52-3.02-4.26-3.44-9.07-3.53-10.2-.51-6.58.04-20.6,2.15-39,.15-1.34-1.62-2.01-2.36-.88-.1.15-.19.31-.27.47-.41.79-.63,1.66-.8,2.55-1.09,5.85-1.92,11.74-2.23,17.69-.42,7.97-.99,17.11,1.05,25.25.78,3.09,2.13,6.08,4.32,8.35,2.19,2.26,5.29,3.71,8.39,3.43,2.67-.24,5.12-1.73,7.05-3.65,3.36-3.34,5.8-7.88,8.02-12.06,2.36-4.44,4.39-9.08,6.05-13.85,1.27-3.65,2.34-7.38,3.18-11.16.42-1.89.79-3.79,1.1-5.71.15-.92.29-1.84.41-2.76.07-.5.01-2.59.36-2.89,1.2-1.04.83,3.93.84,4.57.06,3.61.3,7.23.13,10.83-.18,3.86.24,15.88,2.99,52.24.05.68.61,1.2,1.29,1.2h22.46c.22,0,.45-.05.64-.17,1.29-.75,1.55-1.52,1.62-1.9Z"/>
      <path class="cls-3" d="m334.8,24.8c-12.09.5-29.27.39-42.07,2.11-.26,19.5,2.72,39.46,3.77,58.88-1.94.54-2.57-.84-3.58-2.1-.52-18.35-3.88-37.55-2.87-56.36-15.74.99-33.81,2.35-42.68,10.02-17.53-9.94,36.79-13.91,42.61-14.49.25-4.23.37-7.63.44-9.89.16-5.48.12-8.99,1.91-9.81.53-.24,1.07-.18,1.44-.1-.35,6.69-.66,12.68-1.03,19.79,11.84-.84,47.01-5.98,42.07,1.95Z"/>
      <path class="cls-4" d="m137.84,69.96c-6.36-7.87,4.25-22.42,7.35-26.68,20.4-28.01,60.71-36.29,60.9-35.95.15.26-22.84,5.1-43.4,23.31-10.15,8.98-28.9,29.34-22.22,37.29,7.25,8.63,43.67,3,59.72-15.15,1.84-2.08,11.62-13.15,6.9-21.87-4.05-7.49-18.39-11.26-25.98-11.15-1.01.01-3.93.13-4-.33-.09-.6,4.77-1.93,7.12-2.33,9.42-1.62,22.47,4.39,27.06,13.54,6.08,12.1-8.77,27.66-20.83,34.96-17.54,10.62-45.25,13.49-52.63,4.36Z"/>
      <path class="cls-1" d="m70.94,61.41c.05.59.11,1.17.16,1.76,2.08-.4,4.73-1.09,7.79-1.93,0,0,0,0,0,0,0,0,5.34-1.42,10.22-2.81,19.85-5.65,43.35-12.34,46-26,.23-1.17.56-2.9,0-5-3.22-12.03-30.23-15.29-47-15-32.45.57-58.15,15-59,13-.16-.38.56-1.33,5-4,18.26-7.24,33.96-10.44,45-12,18.98-2.68,29.21-1.21,35,0,6.96,1.45,26.15,5.44,29,17,.13.52.71,3.05,0,6-5.19,21.44-71.39,33.57-71.34,34.53,0,0,0,.06.02.31.01.2.03.51.05.93.11,2.07.19,3.63.21,3.9,0,0,0,.04,0,.04-.11,2.83,8.05,59.33,9.04,91.94.27,8.99,3.52,16.76,2,16.86-3.05.2-9.93-54.19-16.22-109.77-.14-.46-.28-.92-.42-1.39-34.8,9.25-59.52,15.84-59.88,15.97-.03,0-.28.12-.62.1-.11,0-.22-.02-.33-.05-.51-.13-1.06-.28-1.67-.44-1.02-.27-1.66-1.43-1.4-2.55v-.03c.12-.5.41-.92.79-1.17.23-.15.44-.21.49-.22.68-.17,26.46-7.23,62.06-16.98.1-.86.2-1.72.3-2.57-3.24-38.16-6.54-51.24-9.39-53.76-.35-.31-2.39-1.96-2.11-3.41.28-1.46,2.87-2.48,4.54-2.1,1.48.34,3.89,2.15,7.41,23.64.44,2.66,2.48,15.18,4.29,35.19Z"/>
      <path class="cls-2" d="m443.62,56.93c-11.78-2.56-24.19-4.93-37.2-7.01-10.27-1.64-20.22-3-29.84-4.11v-2.14c51.48-13.62,22.72-36.53-3.48-23.86-.24,2.57-.41,5.29-.47,8.14-.1,4.58.08,8.85.43,12.76-15.96,2.54-14.71,6.45.22,8.24-.1,3.04-.06,6.42.25,10.08.41,4.86,1.19,9.2,2.09,12.91.86,2.09,1.53,3.09,2,3,.56-.1.84-1.75.84-4.95-.94-6.28-1.58-13.94-1.67-20.29,6.28.95,16.88,2.58,30.08,4.76,31.35,5.17,48.22,8.63,49.65,5.26.48-1.13-.92-2.83-1.97-3.63-3.62-2.76-9.84.29-10.93.85Zm-67.04-35.33c2.83-4.27,12.51-2.9,13.66-2.74,3.79.53,11.81,2.56,12.26,5.98.34,2.61-3.61,6.9-24.94,14-.09-.84-.46-4.26-.99-9.07-.66-5.99-.77-7,0-8.17Z"/>
      <path class="cls-3" d="m233.1,44.86c-25.84-3.24-39.97-2.49-40.48-5.93-.41-2.7,7.9-5.95,21.84-11.4,5.72-2.24,23.89-9.35,25.61-6.12.82,1.55-2.52,4.56-1.99,5.1.88.88,11.04-6.41,9.95-9.17-.93-2.34-9.62-.74-13.67,0-22.28,4.09-49.78,17.3-47.99,24.46.88,3.53,8.23,2.9,41.26,7.13,38.32,4.9,41.38,7.41,41.54,9.18.34,3.86-12.84,8.15-19.54,9.82-18.29,4.55-31.92.43-32,1-.11.76,24.08,10.07,46,0,2.07-.95,14.22-6.53,13.5-11.84-.93-6.82-22.64-9.55-44.01-12.23Z"/>
    </g>
  </g>
</svg>
