<?xml version="1.0" encoding="UTF-8"?><svg id="b" xmlns="http://www.w3.org/2000/svg" width="275.41234" height="136.65056" viewBox="0 0 275.41234 136.65056"><g id="c"><path d="M40.34327,46.70575h-4.39379l-7.37194-9.19207-1.97243,2.09687v7.09521h-4.02216v-22.12232h4.02216v11.15964l10.06451-11.15964h4.21606l-10.05937,10.62323,9.51696,11.36208v.137Z" stroke="#000" stroke-miterlimit="10" stroke-width=".24518"/><path d="M55.9994,46.70575h-3.25025v-8.67075l-8.18981-13.45156h4.04347l5.76934,10.23312,5.5721-10.23312h3.94485l-8.12334,13.45156v8.67075h.23364Z" stroke="#000" stroke-miterlimit="10" stroke-width=".24518"/><path d="M83.8959,46.70575h-16.06366v-22.12231h4.02216v19.10563h12.06648v3.01668s-.02498,0-.02499,0Z" stroke="#000" stroke-miterlimit="10" stroke-width=".24518"/><path d="M104.00877,46.70575h-15.0602v-22.12231h15.0831v3.01668h-11.06094v6.03336h10.0554v3.01668h-10.0554v7.03892h11.06094v3.01668h-.02289l-.00002-.00002Z" stroke="#000" stroke-miterlimit="10" stroke-width=".24518"/><path d="M245.81277,46.70575v-22.12231h4.02216v22.12231h-4.02216Z" stroke="#000" stroke-miterlimit="10" stroke-width=".24518"/><rect x=".45" y=".45" width="274.51234" height="135.75056" fill="none" stroke="#000" stroke-miterlimit="10" stroke-width=".9"/><path d="M150.2865,46.70575h-4.02216v-9.05004h-11.06094v9.05004h-4.02216v-22.12231h4.02216v10.0556h11.06094v-10.0556h4.02216v22.12231Z" stroke="#000" stroke-miterlimit="10" stroke-width=".24518"/><path d="M175.45441,35.30419c0,6.80262-3.9202,11.45961-10.77438,11.45961-6.87885,0-10.79903-4.65699-10.79903-11.45961,0-6.827,3.9202-11.45961,10.79903-11.45961,6.82953,0,10.77438,4.63261,10.77438,11.45961ZM171.60818,35.30419c0-5.48598-2.58881-8.77757-6.92815-8.77757-4.38864,0-6.97745,3.29159-6.97745,8.77757,0,5.4616,2.58881,8.77757,6.97745,8.77757,4.33932.02438,6.92815-3.31597,6.92815-8.77757Z" stroke="#000" stroke-miterlimit="10" stroke-width=".24518"/><path d="M195.92247,30.61679h-3.56549c-.26146-2.44469-1.68765-3.87859-4.18352-3.87859-2.02045,0-3.6368.91676-3.6368,2.91482,0,2.06858,1.28358,3.00884,4.63515,3.78456,4.754,1.0813,7.01215,3.07936,7.01215,6.62886,0,3.85508-3.47041,6.18223-7.65393,6.18223-4.94415,0-8.10555-2.30365-8.53342-6.58185h3.56549c.57048,2.60923,2.4483,3.99612,4.96793,3.99612,2.25815,0,4.04089-1.19884,4.04089-3.14988,0-2.20962-1.30734-3.36144-4.8253-4.16067-4.08842-.96377-6.82198-2.46819-6.82198-6.15873,0-3.76105,3.39909-6.0647,7.43999-6.0647,4.77776.0235,7.131,2.79728,7.55884,6.48783Z" stroke="#000" stroke-miterlimit="10" stroke-width=".24518"/><path d="M217.74242,30.61679h-3.56549c-.26146-2.44469-1.68765-3.87859-4.18352-3.87859-2.02045,0-3.6368.91676-3.6368,2.91482,0,2.06858,1.28358,3.00884,4.63515,3.78456,4.754,1.0813,7.01213,3.07936,7.01213,6.62886,0,3.85508-3.47041,6.18223-7.65393,6.18223-4.94415,0-8.10555-2.30365-8.53342-6.58184h3.56549c.57048,2.60923,2.4483,3.99612,4.96793,3.99612,2.25815,0,4.04089-1.19884,4.04089-3.14988,0-2.20962-1.30734-3.36144-4.8253-4.16067-4.08842-.96377-6.82198-2.46819-6.82198-6.15872,0-3.76105,3.39909-6.0647,7.43999-6.0647,4.77776,0,7.13098,2.77377,7.55884,6.48781h.00002Z" stroke="#000" stroke-miterlimit="10" stroke-width=".24518"/><path d="M240.76009,46.70575h-16.06366v-22.12231h4.02216v19.10563h12.06648v3.01668s-.02498,0-.02498,0Z" stroke="#000" stroke-miterlimit="10" stroke-width=".24518"/><rect x="164.36404" y="14.52784" width="23.12741" height="41.22795" fill="none" stroke="#000" stroke-miterlimit="10" stroke-width=".9"/></g></svg>