<?xml version="1.0" encoding="UTF-8"?><svg id="a" xmlns="http://www.w3.org/2000/svg" width="1115.40002" height="556.70001" viewBox="0 0 1115.40002 556.70001"><rect x="1" y="1" width="1113.40002" height="554.70001" fill="none" stroke="#000" stroke-miterlimit="10" stroke-width="2"/><path d="M170.10001,188.5h-19.3l-29.9-37.7-8,8.60001v29.10001h-14.4v-90.40002h14.5v46.00001l42.2-46h17.10001l-40.8,43.8,38.60001,46.59999h0Z" stroke="#000" stroke-miterlimit="10"/><path d="M233.60001,188.89999h-14.3v-35.39999l-32.09999-55h16.39999l23.39999,41.8,22.60001-41.8h16l-32.10001,55v35.39999h.10001Z" stroke="#000" stroke-miterlimit="10"/><path d="M345.89999,187.5h-62.70001v-90.4h14.5v78.50001h48.29999v11.89999h-.09998Z" stroke="#000" stroke-miterlimit="10"/><path d="M429.60001,188.3h-62.70001v-90.4h61.39999v11.4h-46.89999v28h43.29999v11.39999h-43.29999v28h48.29999v11.60001h-.09998Z" stroke="#000" stroke-miterlimit="10"/><path d="M613.5,188.5h-14.29999v-38.5h-46.59998v38.5h-14.5v-90.4h14.5v40.2h46.59998v-40.2h14.29999v90.4Z" stroke="#000" stroke-miterlimit="10"/><path d="M718.09998,142.3c0,27.89999-15.90002,47-43.70001,47-27.90002,0-43.79999-19.10001-43.79999-47,0-28,15.90002-47,43.79999-47,27.70001,0,43.70001,19,43.70001,47ZM702.5,142.3c0-22.5-10.5-36-28.09998-36-17.79999,0-28.29999,13.5-28.29999,36,0,22.39999,10.5,36,28.29999,36,17.59998.09999,28.09998-13.60001,28.09998-36Z" stroke="#000" stroke-miterlimit="10"/><path d="M802.29999,123.8h-15c-1.09998-10.4-7.09998-16.5-17.59998-16.5-8.5,0-15.29999,3.9-15.29999,12.4,0,8.8,5.40002,12.8,19.5,16.1,20,4.60001,29.5,13.10001,29.5,28.2,0,16.39999-14.59998,26.3-32.20001,26.3-20.79999,0-34.09998-9.8-35.90002-28h15c2.40002,11.10001,10.29999,17,20.90002,17,9.5,0,17-5.10001,17-13.39999,0-9.39999-5.5-14.3-20.29999-17.7-17.20001-4.10001-28.70001-10.5-28.70001-26.2,0-16,14.29999-25.8,31.29999-25.8,20.09998.09999,30,11.89999,31.79999,27.59999Z" stroke="#000" stroke-miterlimit="10"/><path d="M890.79999,123.6h-15c-1.09998-10.4-7.09998-16.5-17.59998-16.5-8.5,0-15.29999,3.9-15.29999,12.4,0,8.8,5.40002,12.8,19.5,16.10001,20,4.60001,29.5,13.10001,29.5,28.2,0,16.39999-14.59998,26.3-32.20001,26.3-20.79999,0-34.09998-9.8-35.90002-28h15c2.40002,11.10001,10.29999,17,20.90002,17,9.5,0,17-5.10001,17-13.39999,0-9.39999-5.5-14.3-20.29999-17.7-17.20001-4.10001-28.70001-10.5-28.70001-26.2,0-16,14.29999-25.8,31.29999-25.8,20.09998-.00002,30,11.79999,31.79999,27.59998Z" stroke="#000" stroke-miterlimit="10"/><path d="M981.70001,188.5h-62.70001v-90.4h14.5v78.50001h48.29999v11.89999h-.09998Z" stroke="#000" stroke-miterlimit="10"/><path d="M1002.5,188.5v-90.4h14.5v90.4h-14.5Z" stroke="#000" stroke-miterlimit="10"/><rect x="674.30002" y="55.31728" width="95.04999" height="170.69367" fill="none" stroke="#000" stroke-miterlimit="10" stroke-width="1.85562"/></svg>