<?xml version="1.0" encoding="UTF-8"?><svg id="a" xmlns="http://www.w3.org/2000/svg" width="1115.39099" height="556.72544" viewBox="0 0 1115.39099 556.72544"><path d="M170.1264,188.52715h-19.33057l-29.85059-37.73584-8.02148,8.64795v29.08789h-14.46484v-90.40869h14.46484v45.99023l42.21143-45.99023h17.09521l-40.76514,43.76318,38.66113,46.64551Z" stroke="#000" stroke-miterlimit="10"/><path d="M233.6347,188.88457h-14.3335v-35.37744l-32.08594-55.03125h16.4375l23.40674,41.79736,22.61816-41.79736h16.04297l-32.08594,55.03125v35.37744Z" stroke="#000" stroke-miterlimit="10"/><path d="M345.9306,187.53301h-62.72559v-90.40869h14.46484v78.48535h48.26074v11.92334Z" stroke="#000" stroke-miterlimit="10"/><path d="M429.55999,188.27276h-62.72559v-90.40869h61.41064v11.39941h-46.9458v28.03955h43.26367v11.39941h-43.26367v28.04004h48.26074v11.53027Z" stroke="#000" stroke-miterlimit="10"/><path d="M613.51654,188.45879h-14.3335v-38.52197h-46.55127v38.52197h-14.46484v-90.40869h14.46484v40.2251h46.55127v-40.2251h14.3335v90.40869Z" stroke="#000" stroke-miterlimit="10"/><path d="M718.05316,142.33819c0,27.90918-15.91113,47.03906-43.6582,47.03906-27.87793,0-43.78906-19.12988-43.78906-47.03906,0-28.03955,15.91113-47.03857,43.78906-47.03857,27.74707,0,43.6582,18.99902,43.6582,47.03857ZM702.53656,142.33819c0-22.53662-10.52051-36.03223-28.1416-36.03223-17.75195,0-28.27246,13.49561-28.27246,36.03223,0,22.40576,10.52051,36.03271,28.27246,36.03271,17.62109,0,28.1416-13.62695,28.1416-36.03271Z" stroke="#000" stroke-miterlimit="10"/><path d="M802.33929,123.79961h-14.99121c-1.05176-10.35107-7.10059-16.50928-17.62109-16.50928-8.54688,0-15.25391,3.93066-15.25391,12.44775,0,8.77881,5.3916,12.84033,19.46191,16.11621,19.98828,4.58594,29.45605,13.10254,29.45605,28.1709,0,16.37842-14.5957,26.33643-32.2168,26.33643-20.77734,0-34.05859-9.82715-35.89941-28.04004h14.99023c2.36719,11.13721,10.25781,17.03369,20.90918,17.03369,9.46777,0,16.96289-5.10986,16.96289-13.36475,0-9.43408-5.52246-14.28223-20.25098-17.68896-17.22656-4.06152-28.66699-10.48193-28.66699-26.20508,0-15.98535,14.33398-25.8125,31.29688-25.8125,20.12012,0,29.98242,11.79248,31.82324,27.51562Z" stroke="#000" stroke-miterlimit="10"/><path d="M890.83343,123.56084h-14.99121c-1.05176-10.35107-7.10059-16.50928-17.62109-16.50928-8.54688,0-15.25391,3.93066-15.25391,12.44775,0,8.77881,5.3916,12.84033,19.46191,16.11621,19.98828,4.58594,29.45605,13.10254,29.45605,28.1709,0,16.37842-14.5957,26.33643-32.2168,26.33643-20.77734,0-34.05859-9.82715-35.89941-28.04004h14.99023c2.36719,11.13721,10.25781,17.03369,20.90918,17.03369,9.46777,0,16.96289-5.10986,16.96289-13.36475,0-9.43408-5.52246-14.28223-20.25098-17.68896-17.22656-4.06152-28.66699-10.48193-28.66699-26.20508,0-15.98535,14.33398-25.8125,31.29688-25.8125,20.12012,0,29.98242,11.79248,31.82324,27.51562Z" stroke="#000" stroke-miterlimit="10"/><path d="M981.69281,188.47979h-62.72559v-90.40869h14.46582v78.48535h48.25977v11.92334Z" stroke="#000" stroke-miterlimit="10"/><path d="M1002.46624,188.52715v-90.40869h14.46582v90.40869h-14.46582Z" stroke="#000" stroke-miterlimit="10"/><rect x="1" y="1" width="1113.39099" height="554.72544" fill="none" stroke="#000" stroke-miterlimit="10" stroke-width="2"/><path d="M769.02172,77.06784v142.53125h-90.65125V77.06784h90.65125M775.58489,70.50473h-103.77759v155.65747h103.77759V70.50473h0Z" stroke-width="0"/></svg>