<?xml version="1.0" encoding="utf-8"?>
<!-- Generator: Adobe Illustrator 28.1.0, SVG Export Plug-In . SVG Version: 6.00 Build 0)  -->
<svg version="1.1" id="a" xmlns="http://www.w3.org/2000/svg" xmlns:xlink="http://www.w3.org/1999/xlink" x="0px" y="0px"
	 viewBox="0 0 275.4 136.7" style="enable-background:new 0 0 275.4 136.7;" xml:space="preserve">
<style type="text/css">
	.st0{stroke:var(--black);stroke-width:0.2452;stroke-miterlimit:10;}
	.st1{fill:none;stroke:var(--black);stroke-width:0.9;stroke-miterlimit:10;}
</style>
<g>
	<path class="st0" d="M40.3,46.7h-4.4l-7.4-9.2l-2,2.1v7.1h-4V24.6h4v11.2l10.1-11.2h4.2L30.8,35.2l9.5,11.4V46.7z"/>
	<path class="st0" d="M56,46.7h-3.3V38l-8.2-13.5h4l5.8,10.2l5.6-10.2h3.9L55.8,38v8.7C55.8,46.7,56,46.7,56,46.7z"/>
	<path class="st0" d="M83.9,46.7H67.8V24.6h4v19.1h12.1L83.9,46.7C83.9,46.7,83.9,46.7,83.9,46.7z"/>
	<path class="st0" d="M104,46.7H88.9V24.6H104v3H93v6H103v3H93v7H104L104,46.7L104,46.7L104,46.7z"/>
	<path class="st0" d="M245.8,46.7V24.6h4v22.1H245.8z"/>
	<g>
		<rect x="0.4" y="0.4" class="st1" width="274.5" height="135.8"/>
		<path class="st0" d="M150.3,46.7h-4v-9.1h-11.1v9.1h-4V24.6h4v10.1h11.1V24.6h4V46.7z"/>
		<path class="st0" d="M175.5,35.3c0,6.8-3.9,11.5-10.8,11.5c-6.9,0-10.8-4.7-10.8-11.5c0-6.8,3.9-11.5,10.8-11.5
			C171.5,23.8,175.5,28.5,175.5,35.3z M171.6,35.3c0-5.5-2.6-8.8-6.9-8.8c-4.4,0-7,3.3-7,8.8c0,5.5,2.6,8.8,7,8.8
			C169,44.1,171.6,40.8,171.6,35.3z"/>
		<path class="st0" d="M195.9,30.6h-3.6c-0.3-2.4-1.7-3.9-4.2-3.9c-2,0-3.6,0.9-3.6,2.9c0,2.1,1.3,3,4.6,3.8c4.8,1.1,7,3.1,7,6.6
			c0,3.9-3.5,6.2-7.7,6.2c-4.9,0-8.1-2.3-8.5-6.6h3.6c0.6,2.6,2.4,4,5,4c2.3,0,4-1.2,4-3.1c0-2.2-1.3-3.4-4.8-4.2
			c-4.1-1-6.8-2.5-6.8-6.2c0-3.8,3.4-6.1,7.4-6.1C193.1,24.2,195.5,26.9,195.9,30.6z"/>
		<path class="st0" d="M217.7,30.6h-3.6c-0.3-2.4-1.7-3.9-4.2-3.9c-2,0-3.6,0.9-3.6,2.9c0,2.1,1.3,3,4.6,3.8c4.8,1.1,7,3.1,7,6.6
			c0,3.9-3.5,6.2-7.7,6.2c-4.9,0-8.1-2.3-8.5-6.6h3.6c0.6,2.6,2.4,4,5,4c2.3,0,4-1.2,4-3.1c0-2.2-1.3-3.4-4.8-4.2
			c-4.1-1-6.8-2.5-6.8-6.2c0-3.8,3.4-6.1,7.4-6.1C215,24.1,217.3,26.9,217.7,30.6L217.7,30.6z"/>
		<path class="st0" d="M240.8,46.7h-16.1V24.6h4v19.1h12.1L240.8,46.7C240.8,46.7,240.8,46.7,240.8,46.7z"/>
		<rect x="164.4" y="14.5" class="st1" width="23.1" height="41.2"/>
	</g>
</g>
</svg>
