<?xml version="1.0" encoding="UTF-8"?>
<svg id="Layer_1" data-name="Layer 1" xmlns="http://www.w3.org/2000/svg" viewBox="0 0 1195.55 431.8">
  <defs>
    <style>
      .cls-1 {
        fill: none;
        stroke: #f5f5f4;
        stroke-miterlimit: 10;
        stroke-width: 1.24px;
      }

      .cls-2 {
        fill: #f5f5f4;
        stroke-width: 0px;
      }
    </style>
  </defs>
  <path class="cls-1" d="m176.06,143.2c12-1.42,24.09-3.22,36.04-5.36,69.77-12.49,84.72-27.35,87.43-35.1.87-2.5,2.2-7.61,1.3-13.69-2.04-13.72-14.57-25.8-37.24-35.9-18.28-8.14-38.35-12.69-48.69-14.67-.77-.15-2.01-.39-3.56-.66h0c-2.14-.37-4.3-.7-6.47-1-11.21-1.56-22.89-2.19-34.87-1.83,1.03,7.57,1.97,16.64,2.81,27.04,1.83,22.63,2.98,51.38,3.26,81.18Z"/>
  <path class="cls-1" d="m480.38,93.53c-1.9.77-4.04,1.66-6.26,2.6-1.11.47-2.24.96-3.36,1.46-.56.25-1.12.5-1.68.75-5.02,2.26-9.77,4.63-12.3,6.49,3.21.96,9.04,1.74,15.02,2.37,2.72.28,5.47.54,8.02.76,1.62-5.38,1.81-10.21.56-14.43Z"/>
  <path class="cls-1" d="m443.62,124.23c-6.03-1.32-12.42-3.55-14.08-10.12-.08-.34-.15-.69-.21-1.04-.02-.11-.03-.21-.05-.32-.04-.3-.07-.6-.08-.9-.01-.23-.01-.45-.01-.68,0-.07,0-.14,0-.2.08-5.12,3.36-10.25,8.51-15.18.14-.13.29-.27.43-.41.24-.23.48-.45.73-.68.36-.33.74-.66,1.13-.99.03-.03.06-.05.09-.08,5.54-4.77,13.59-10.08,25.12-15.94-.79-.44-1.59-.86-2.41-1.27-.33-.17-.67-.32-1.01-.48-.5-.24-.99-.48-1.5-.71-.52-.24-1.05-.46-1.58-.69-.33-.14-.66-.29-1-.43-.66-.27-1.33-.54-2.01-.8-.21-.08-.42-.17-.63-.25-.78-.3-1.58-.58-2.37-.86-.1-.04-.2-.07-.31-.11-.89-.31-1.79-.6-2.7-.89,0,0,0,0-.01,0-6.41-2-13.01-3.37-18.96-4.01-.01,0-.02,0-.03,0-.77-.08-1.52-.15-2.26-.21-.11,0-.23-.02-.35-.03-.63-.05-1.24-.08-1.84-.11-.23-.01-.47-.02-.69-.03-.48-.02-.94-.02-1.4-.03-.48,0-.97-.02-1.43,0h-.81c-2.13.06-4.32.09-6.19-.03-11.8,7.22-22.82,15.32-32.79,24.07-32.94,28.95-61.6,67.77-51.76,79.41,1.16,1.37,2.93,2.59,5.19,3.61,4.99,2.24,12.41,3.57,21.22,3.68.72,0,1.46,0,2.2,0,.52,0,1.04-.01,1.56-.02.51-.01,1.02-.03,1.53-.05.55-.02,1.09-.04,1.65-.07.51-.02,1.02-.06,1.53-.09.57-.03,1.14-.07,1.71-.11.51-.04,1.03-.08,1.55-.13.58-.05,1.17-.1,1.76-.16.52-.05,1.05-.11,1.57-.17.6-.07,1.2-.13,1.8-.21.53-.07,1.07-.14,1.61-.21.6-.08,1.2-.16,1.8-.25.55-.08,1.11-.17,1.66-.26.6-.09,1.2-.19,1.8-.29.57-.1,1.14-.2,1.71-.3.59-.11,1.19-.21,1.78-.33.59-.11,1.19-.24,1.79-.36.58-.12,1.16-.23,1.74-.36.62-.13,1.24-.27,1.86-.41.56-.13,1.13-.25,1.69-.39.65-.15,1.29-.31,1.94-.47.54-.13,1.09-.27,1.63-.41.67-.17,1.35-.36,2.02-.54.52-.14,1.04-.28,1.57-.43.7-.2,1.4-.4,2.1-.61.5-.15,1-.29,1.5-.44.73-.22,1.45-.45,2.18-.68.47-.15.94-.3,1.42-.45.75-.25,1.5-.5,2.25-.76.45-.15.9-.3,1.34-.46.77-.27,1.54-.55,2.31-.84.42-.16.84-.31,1.27-.47.8-.3,1.59-.61,2.38-.92.39-.15.79-.31,1.18-.46.81-.33,1.62-.67,2.43-1.01.37-.16.74-.31,1.11-.47.82-.35,1.64-.72,2.46-1.09.35-.16.7-.31,1.05-.47.84-.38,1.66-.78,2.49-1.17.32-.16.65-.31.97-.46.84-.41,1.67-.83,2.5-1.26.31-.16.62-.31.92-.47.84-.44,1.67-.89,2.5-1.34.29-.16.58-.31.86-.47.84-.46,1.67-.94,2.49-1.42.27-.16.54-.31.81-.47.83-.49,1.64-.99,2.46-1.49.26-.16.52-.31.78-.48.81-.51,1.62-1.04,2.42-1.57.25-.16.5-.32.74-.49.8-.54,1.59-1.09,2.38-1.64.23-.16.47-.32.7-.49.79-.56,1.56-1.14,2.32-1.72.22-.17.44-.33.66-.49.76-.58,1.51-1.18,2.25-1.78.21-.17.43-.34.64-.51.74-.61,1.46-1.23,2.18-1.86.2-.17.41-.34.6-.52.72-.63,1.41-1.28,2.1-1.93.19-.18.38-.35.57-.52.72-.69,1.43-1.4,2.12-2.1.14-.14.29-.28.43-.43.83-.86,1.64-1.73,2.42-2.61.25-.28.57-.64.95-1.08,1.16-1.32,2.87-3.35,4.78-5.87-8.25-.91-14.55-1.65-19.5-2.42-2.25-.35-4.22-.71-5.97-1.09Z"/>
  <polygon class="cls-2" points="794.05 173.33 794.05 173.33 794.05 173.33 794.05 173.33"/>
  <path class="cls-1" d="m889.42,82.39c.63,5.74,1.17,10.64,1.57,14.32,1.38-.47,2.71-.94,4.01-1.4.26-.09.51-.18.76-.27,1.13-.4,2.23-.8,3.3-1.19.15-.05.3-.11.45-.16,5.11-1.87,9.58-3.62,13.46-5.24.04-.02.07-.03.11-.05.88-.37,1.73-.73,2.56-1.09.13-.05.26-.11.38-.16.65-.28,1.27-.56,1.89-.83.28-.13.57-.25.84-.38.28-.13.55-.25.83-.38,4.21-1.93,7.82-3.79,10.79-5.56,8.61-5.13,9.01-7.8,9.01-7.83-.58-2.38-10.96-7.31-24.1-9.14-.85-.12-1.69-.22-2.53-.31-.26-.03-.51-.05-.77-.07-.57-.06-1.14-.11-1.7-.15-.3-.02-.59-.04-.89-.06-.51-.03-1.01-.06-1.51-.08-.31-.01-.61-.02-.91-.03-.47-.01-.95-.02-1.41-.03-.45,0-.9,0-1.34,0-.15,0-.3,0-.45,0-.6.01-1.19.04-1.76.07-.18.01-.36.02-.54.04-.42.03-.83.06-1.24.1-.19.02-.37.04-.56.05-.51.06-1.02.12-1.5.19-.07.01-.14.02-.21.03-.48.07-.95.16-1.41.25-.16.03-.31.06-.46.1-.36.08-.71.16-1.05.24-.13.03-.26.06-.39.1-.44.12-.86.25-1.27.38-.08.03-.16.06-.24.09-.32.11-.64.24-.94.36-.11.05-.22.1-.33.14-.29.13-.57.27-.84.41-.06.03-.13.06-.19.1-.31.18-.6.36-.87.56-.07.05-.13.1-.19.15-.2.15-.39.31-.56.48-.06.06-.13.12-.18.18-.21.22-.4.44-.55.67-.2.3-.31.84-.32,1.77-.03,2.04.38,5.95,1.19,13.28l.04.33Z"/>
  <path class="cls-1" d="m899.52,116.84c18.5,2.35,37.1,4.96,55.48,7.77,19.79,3.04,39.81,6.4,59.63,10.01-.1-2.92-.12-5.94-.05-9.07-2.72-.44-5.23-1.46-7.3-3-2.49-1.86-4.03-4.33-4.33-6.93-.29-2.52.58-5.19,2.46-7.54,1.94-2.42,4.71-4.27,7.93-5.37l3.72-35.91c-28.51-.19-36.07,2.17-37.96,3.15-.39,1.39-1.28,3.53-3.45,5.07-4.71,3.35-10.9.87-13.34-.36-1.7-.85-4.12-2.33-5.75-4.45.32,2.26.25,4.59-.24,6.95-2.26,10.97-14.25,26.3-56.78,39.67Z"/>
  <path class="cls-2" d="m1183.12,40.6c-5.26-.04-13.61.1-24.8.44-24.71.74-64.45,2.43-118.22,5.03,1.77-5.05,3.12-9.14,4.03-12.24,1.57-5.33,3.36-11.38-1.88-13.75-5.42-2.45-8.73,3.16-11.93,8.59-2.43,4.12-5.74,10.24-9.85,18.22-16.46,2.13-31.87,4.16-43.06,6.24-12.35,2.3-21.92,4.63-22.6,11.41-1.58-3.32-4.11-6.39-7.54-9.07-14.3-11.17-44.32-15.03-74.01-.77l-2.85,1.37-.3,3.15c-.6,6.44-.98,12.97-1.12,19.43-.19,8.4.02,16.89.62,25.31-18.97,3.46-26.77,7.87-26.63,14.84.13,6.96,8.37,11.21,27.32,13.95-.29,13.92,1.83,32.05,5.25,43.67l.05.16c3.52,10.78,8.63,11.59,11.37,11.11,3.78-.66,6.09-3.98,6.88-9.87l.11-.79-.12-.79c-1.9-12.62-3.23-27.17-3.7-40.15,21.14,3.04,42.68,6.46,64.14,10.17,17.13,2.96,32.79,5.87,46.6,8.43,5.93,1.1,11.55,2.14,16.84,3.11,3.21,12.17,8.89,21.23,16.91,26.99,7.32,5.25,16.51,7.88,27.47,7.88,9.39,0,20.08-1.93,32.03-5.78,18.71-6.04,34.28-14.94,36.2-16.4l3.36-2.55-1.41-3.88c-1.87-5.15-6.85-3.58-10.15-2.55-6.39,2.01-23.36,7.36-48,10.3-17.95,2.14-24.94-.2-30.41-4.68-1.85-1.51-3.43-3.39-4.74-5.62,28.12,4.56,39.15,4.27,42.27-3.79,2.8-7.24-4.99-14.27-6.58-15.6-9.9-8.32-24.55-4.71-31.79-2.13-2.51-.49-5.03-.98-7.55-1.46l-.07-15.74c2.31-.37,4.84-.73,7.59-1.13,8.24-1.2,18.5-2.68,30.08-5.26,6.93-1.54,19.84-4.41,30.69-7.08,6.07-1.49,10.83-2.76,14.16-3.77,4.68-1.42,10.5-3.18,9.55-8.73-.96-5.6-6.77-5.18-11.9-4.82-4.12.3-10.44.92-19.17,1.79-5.88.58-12.9,1.28-21.19,2.07-11.14,1.06-20.81,1.37-29.34,1.65-3.05.1-5.88.19-8.49.31l.52-31.33c16.62-1,33.47-2.17,50.17-3.49,21.66-1.71,47.03-3.96,66.2-5.87,11.13-1.11,19.92-2.08,26.14-2.88,3.5-.45,6.1-.84,7.96-1.18,2.29-.42,7.64-1.41,7.31-6.68-.36-5.68-5.95-5.73-12.42-5.78Zm-294.61,26.41c.16-.23.35-.46.55-.67.06-.06.12-.12.18-.18.17-.16.36-.32.56-.48.06-.05.13-.1.19-.15.27-.19.55-.38.87-.56.06-.03.13-.06.19-.1.26-.14.54-.28.84-.41.11-.05.22-.1.33-.14.3-.13.61-.25.94-.36.08-.03.16-.06.24-.09.4-.14.83-.26,1.27-.38.13-.03.26-.06.39-.1.34-.09.69-.17,1.05-.24.15-.03.31-.07.46-.1.46-.09.92-.17,1.41-.25.07-.01.14-.02.21-.03.49-.07.99-.13,1.5-.19.18-.02.37-.04.56-.05.4-.04.82-.07,1.24-.1.18-.01.36-.03.54-.04.58-.03,1.16-.06,1.76-.07.15,0,.3,0,.45,0,.44,0,.89,0,1.34,0,.46,0,.93.01,1.41.03.3,0,.6.01.91.03.5.02,1,.05,1.51.08.3.02.59.03.89.06.56.04,1.13.1,1.7.15.26.03.51.04.77.07.83.09,1.67.19,2.53.31,13.14,1.84,23.52,6.76,24.1,9.14,0,.03-.4,2.7-9.01,7.83-2.97,1.77-6.58,3.63-10.79,5.56-.28.13-.54.25-.83.38-.27.12-.56.25-.84.38-.62.27-1.24.55-1.89.83-.13.05-.25.11-.38.16-.83.36-1.67.72-2.56,1.09-.04.02-.07.03-.11.05-3.89,1.62-8.35,3.37-13.46,5.24-.15.05-.3.11-.45.16-1.07.39-2.17.79-3.3,1.19-.25.09-.5.18-.76.27-1.3.46-2.63.93-4.01,1.4-.4-3.68-.94-8.58-1.57-14.32l-.04-.33c-.81-7.33-1.22-11.24-1.19-13.28.01-.93.12-1.47.32-1.77Zm67.79,10.16c.49-2.36.56-4.69.24-6.95,1.63,2.12,4.05,3.6,5.75,4.45,2.44,1.22,8.63,3.7,13.34.36,2.17-1.54,3.06-3.68,3.45-5.07,1.9-.98,9.45-3.34,37.96-3.15l-3.72,35.91c-3.22,1.09-5.99,2.95-7.93,5.37-1.88,2.34-2.76,5.02-2.46,7.54.3,2.6,1.84,5.07,4.33,6.93,2.07,1.55,4.58,2.56,7.3,3-.06,3.13-.05,6.16.05,9.07-19.82-3.61-39.85-6.97-59.63-10.01-18.38-2.82-36.98-5.43-55.48-7.77,42.53-13.37,54.52-28.7,56.78-39.67Z"/>
  <path class="cls-2" d="m727.76,84.46c-2.26,13.66-3.27,27.54-3.01,41.26.04,2.3.52,23.04,4.07,44.33,4.96,29.73,13.33,45.91,25.61,49.47,22.01,6.37,50.63-30.15,72.72-71.08,1.33,33.13,2.91,69.4,4.08,86.51.22,3.25.49,6.64.8,10.07.42,4.61,4.36,8.16,8.94,8.16.2,0,.39,0,.59-.02,22.48-1.5,36.4-2.43,44.71-2.99q12.78-.86,14.18-2.02l2.08-1.75v-1.79c.79-3.79-2.17-7.13-3.24-8.34-10.16-11.48-27.08-11.61-27.25-11.61-8.75,0-15.97,3.06-21.19,6.35-11.52-70.31-11.59-132.35-10.86-167.26l3.34-13.37-3.14,4.7c.05-1.93.1-3.77.15-5.46.13-4.61.23-8.24.24-10.74,0-3.15.03-9.01-5.6-9.32l-2.37-.1-1.72,1.55c-2,1.8-2.08,3.28-2.44,10.37-.38,7.39-1.08,21.14-3.84,37.87l-.03.19c-5.83,35.15-17.64,65.65-35.09,90.67l4.58,3.2h0s0,0,0,0l-4.58-3.19c-18.2,26.08-26.44,27.22-29.14,26.48-2.9-.78-12.51-7.34-14.37-59.06-.63-17.43.98-32.87,2.14-44.15.6-5.75,1.07-10.29,1.11-13.74,0-.03,0-.07,0-.1,3.26-.08,6.48-.16,9.65-.24,9.27-.23,18.02-.44,25.92-.76l2.94-.12,1.56-2.49c3.25-5.18,1.77-9.13.6-11.03-6.18-9.97-31.44-9.24-85.73-3.82-4.7.47-9,.9-12.75,1.24l2.35-44.62-4.61-1.03c-3.11-.69-5.48-.05-6.93.6-7.09,3.23-7.33,11.97-7.7,25.2l-.07,2.65c-.17,5.95-.43,12.04-.76,18.15-91.84,8.14-106.46,18.3-108.57,28.07-1.24,5.76,2.39,11.08,10.79,15.82l3.41,1.92,2.97-2.55c18.91-16.23,59.26-19.67,91.03-21.7-.83,25.22,1.41,50.73,3.58,75.46,1.46,16.71,2.98,33.99,3.45,50.54l.05,1.88,1.18,1.46c.3.38.59.76.87,1.13,1.7,2.27,4.63,6.16,9.98,6.16,1.04,0,2.18-.15,3.42-.49l4.35-1.19-.24-4.5c-.92-16.96-2.49-34.36-4.02-51.18-2.43-26.77-4.93-54.41-4.88-81.27,12.22-1.4,25.69-2.17,38.5-2.67-.25.44-.51.9-.77,1.37-.5.91-.84,1.88-1.01,2.89Z"/>
  <path class="cls-2" d="m582.6,168.42c-32.54,8.04-58.79,4.1-68.68,2.62-4.74-.71-6.51-.98-8.63.6l-1.9,1.44-.34,2.29c-.31,2.13.6,4.22,2.44,5.6,6.41,4.81,62.64,23.59,113.74.29,24.73-11.27,36.51-22.55,35-33.53-2.65-19.23-42.95-25.21-108.5-33.39-16.94-2.11-31.51-3.48-44.13-4.56,1.85-8.53,1.16-16.51-2.04-23.82.67-.26,1.36-.53,2.04-.79l1.67-.65c33.2-12.89,46.37-15.58,51.53-15.86-.33.51-.66.99-.92,1.37-1.7,2.49-4.87,7.12-1.07,10.91,3.97,3.96,9.73.71,14.81-2.65,5.14-3.39,21.59-15.21,17.74-24.83-3.26-8.16-16.01-7.5-38.39-3.42-19.27,3.51-40.71,9.9-60.78,18.1-10.36-9.36-24.25-15.94-37.77-18.34,15.12-6.54,26.89-9.98,31.86-11.43,3.4-.99,5.28-1.54,6.33-4.15l1.01-2.52-2.93-5.01-3.03-.17s-.09,0-.14,0c-6.83,0-100.2,21.17-148.03,86.37-8.62,11.74-34.83,47.48-17.14,69.23,7.84,9.64,23.9,14.85,45,14.85,4.09,0,8.37-.2,12.82-.59,25.56-2.28,52.97-10.95,73.33-23.19,14.65-8.8,33.81-24.46,45.3-42.83,9.42,1.05,22.72,2.59,38.61,4.6,68.5,8.7,87.58,14.08,92.37,16.84-3.66,4.1-20.23,11.44-41.2,16.63Zm-118.29-34.81c-.39.44-.71.8-.95,1.08-.79.88-1.6,1.75-2.42,2.61-.14.14-.29.28-.43.43-.7.71-1.4,1.41-2.12,2.1-.19.18-.38.35-.57.52-.69.65-1.39,1.3-2.1,1.93-.2.17-.4.34-.6.52-.72.63-1.44,1.25-2.18,1.86-.21.17-.43.34-.64.51-.74.6-1.49,1.2-2.25,1.78-.22.17-.44.33-.66.49-.77.58-1.54,1.16-2.32,1.72-.23.17-.47.32-.7.49-.79.55-1.57,1.11-2.38,1.64-.25.16-.5.32-.74.49-.8.53-1.6,1.05-2.42,1.57-.26.16-.52.32-.78.48-.81.5-1.63,1.01-2.46,1.49-.27.16-.54.31-.81.47-.83.48-1.65.96-2.49,1.42-.29.16-.58.31-.86.47-.83.45-1.66.9-2.5,1.34-.31.16-.62.31-.92.47-.83.42-1.66.85-2.5,1.26-.32.16-.65.31-.97.46-.83.4-1.66.79-2.49,1.17-.35.16-.7.31-1.05.47-.82.37-1.63.73-2.46,1.09-.37.16-.74.31-1.11.47-.81.34-1.62.68-2.43,1.01-.39.16-.79.31-1.18.46-.79.31-1.58.62-2.38.92-.42.16-.84.31-1.27.47-.77.28-1.54.57-2.31.84-.45.16-.9.31-1.34.46-.75.26-1.5.51-2.25.76-.47.15-.94.3-1.42.45-.73.23-1.45.46-2.18.68-.5.15-1,.3-1.5.44-.7.21-1.4.41-2.1.61-.52.15-1.04.29-1.57.43-.67.18-1.35.37-2.02.54-.54.14-1.09.27-1.63.41-.65.16-1.3.32-1.94.47-.57.13-1.13.26-1.69.39-.62.14-1.24.28-1.86.41-.58.12-1.16.24-1.74.36-.6.12-1.19.24-1.79.36-.6.11-1.19.22-1.78.33-.57.1-1.14.21-1.71.3-.6.1-1.2.2-1.8.29-.55.09-1.11.17-1.66.26-.6.09-1.2.17-1.8.25-.54.07-1.07.14-1.61.21-.6.07-1.2.14-1.8.21-.53.06-1.05.12-1.57.17-.59.06-1.18.11-1.76.16-.52.04-1.04.09-1.55.13-.58.04-1.15.08-1.71.11-.51.03-1.03.06-1.53.09-.55.03-1.1.05-1.65.07-.51.02-1.03.03-1.53.05-.52.01-1.04.02-1.56.02-.74,0-1.48.01-2.2,0-8.81-.11-16.23-1.43-21.22-3.68-2.27-1.02-4.03-2.23-5.19-3.61-9.84-11.64,18.81-50.45,51.76-79.41,9.96-8.76,20.99-16.85,32.79-24.07,1.87.12,4.05.09,6.19.04h.81c.46-.02.95-.01,1.43,0,.46,0,.92.01,1.4.03.23,0,.46.02.69.03.61.03,1.22.06,1.84.11.11,0,.23.02.35.03.74.06,1.49.12,2.26.21.01,0,.02,0,.03,0,5.95.64,12.55,2.01,18.96,4.01,0,0,0,0,.01,0,.9.28,1.8.58,2.7.89.1.04.2.07.31.11.8.28,1.59.56,2.37.86.21.08.42.17.63.25.67.26,1.35.52,2.01.8.34.14.67.29,1,.43.53.23,1.06.45,1.58.69.51.23,1,.47,1.5.71.33.16.68.32,1.01.48.82.41,1.63.84,2.41,1.27-11.52,5.85-19.58,11.17-25.12,15.94-.03.03-.06.05-.09.08-.39.33-.76.66-1.13.99-.25.22-.49.45-.73.68-.14.13-.29.27-.43.41-5.15,4.93-8.43,10.06-8.51,15.18,0,.07,0,.14,0,.2,0,.23,0,.45.01.68.02.31.05.61.08.9.01.11.03.21.05.32.06.35.12.7.21,1.04,1.66,6.58,8.05,8.81,14.08,10.12,1.75.38,3.72.74,5.97,1.09,4.95.77,11.25,1.51,19.5,2.42-1.9,2.52-3.62,4.55-4.78,5.87Zm-7.54-28.78c2.53-1.86,7.28-4.23,12.3-6.49.56-.25,1.12-.5,1.68-.75,1.12-.5,2.25-.98,3.36-1.46,2.22-.94,4.36-1.83,6.26-2.6,1.25,4.22,1.06,9.05-.56,14.43-2.55-.22-5.3-.48-8.02-.76-5.98-.63-11.8-1.41-15.02-2.37Z"/>
  <path class="cls-2" d="m6.79,193.64l3.86,1.34c.62.21,1.25.36,1.9.44,1.2.15,2.44.06,3.51-.23,3.34-.66,49.58-8.96,137.52-24.69,2.3,74.63,4.7,133.68,7.13,175.55,1.48,25.5,3,45.24,4.53,58.67,2.3,20.22,4.15,26.97,10.55,27.08.04,0,.08,0,.11,0,1.82,0,3.56-.77,4.77-2.13,2.66-2.97,2.14-6.97,1.01-15.74-.92-7.14-2.19-16.92-1.65-27.09,2.89-55.19-.58-139.92-2.44-185.44-.62-15.2-1.16-28.32-1.01-30.18l.25-7.72c13.4-1.4,42.57-5.03,71.34-12.49,46.36-12.03,71-28.8,73.25-49.85.67-6.33-.84-11.62-2.05-15.87-11.69-40.92-62.58-56.46-81.74-62.31-22.16-6.77-46.03-8.9-70.99-6.36-2.52-9.83-5.63-14.44-10.55-15.99-3.83-1.21-8.78-.65-12.61,1.42-2.86,1.55-4.77,3.76-5.52,6.41-1.41,5.01,1.81,9.56,4.07,12.11-15.84,3.47-37.11,9.85-60.33,21.58-3.63,1.55-8.06,3.5-6.56,8.42l.8,2.53,2.39,1c.77.32,1.45.46,2.11.46,1.47,0,2.85-.7,4.85-1.72l1.08-.55c5.2-2.2,30.07-12.12,64.32-15.94,2.88,13.12,2.89,36.5,2.93,81.95,0,8.12.01,16.94.04,26.56l-.34,1.69c-62.35,11.63-142.91,26.64-145.11,27.01-1.03.17-2.03.51-2.96,1.02-2.23,1.21-3.91,3.26-4.74,5.84-1.76,5.46,1.05,11.38,6.26,13.2ZM204.86,36.81c2.17.3,4.34.63,6.47,1h0c1.54.27,2.78.51,3.56.66,10.34,1.99,30.41,6.53,48.69,14.67,22.67,10.1,35.2,22.18,37.24,35.9.9,6.08-.43,11.19-1.3,13.69-2.7,7.75-17.65,22.61-87.43,35.1-11.94,2.14-24.04,3.94-36.04,5.36-.27-29.8-1.42-58.55-3.26-81.18-.84-10.4-1.79-19.47-2.81-27.04,11.98-.36,23.67.26,34.87,1.83Z"/>
</svg>